artack-Regular.ufo
<glyph name="exclam" format="2">
	<advance width="167"/>
	<unicode hex="0021"/>
	<outline>
		<contour>
			<point x="117" y="34" type="curve"/>
			<point x="117" y="34" type="line"/>
			<point x="117" y="15"/>
			<point x="102" y="0"/>
			<point x="83" y="0" type="curve"/>
			<point x="65" y="0"/>
			<point x="50" y="15"/>
			<point x="50" y="34" type="curve"/>
			<point x="50" y="52"/>
			<point x="65" y="67"/>
			<point x="83" y="67" type="curve"/>
			<point x="102" y="67"/>
			<point x="117" y="52"/>
		</contour>
		<contour>
			<point x="61" y="700" type="line"/>
			<point x="66" y="196" type="line"/>
			<point x="100" y="196" type="line"/>
			<point x="105" y="700" type="line"/>
		</contour>
	</outline>
</glyph>
<glyph name="quotedbl" format="2">
	<advance width="256"/>
	<unicode hex="0022"/>
	<outline>
		<contour>
			<point x="50" y="700" type="line"/>
			<point x="55" y="531" type="line"/>
			<point x="89" y="531" type="line"/>
			<point x="94" y="700" type="line"/>
		</contour>
		<contour>
			<point x="162" y="700" type="line"/>
			<point x="167" y="531" type="line"/>
			<point x="201" y="531" type="line"/>
			<point x="206" y="700" type="line"/>
		</contour>
	</outline>
</glyph>
<glyph name="numbersign" format="2">
	<advance width="798"/>
	<unicode hex="0023"/>
	<outline>
		<contour>
			<point x="506" y="164" type="line"/>
			<point x="518" y="227" type="line"/>
			<point x="525" y="261" type="line"/>
			<point x="525" y="261" type="line"/>
			<point x="541" y="347" type="line"/>
			<point x="742" y="347" type="line"/>
			<point x="748" y="381" type="line"/>
			<point x="574" y="381" type="line"/>
			<point x="548" y="381" type="line"/>
			<point x="560" y="444" type="line"/>
			<point x="560" y="444" type="line"/>
			<point x="567" y="478" type="line"/>
			<point x="567" y="478" type="line"/>
			<point x="591" y="603" type="line"/>
			<point x="590" y="603" type="line"/>
			<point x="609" y="700" type="line"/>
			<point x="572" y="700" type="line"/>
			<point x="529" y="478" type="line"/>
			<point x="529" y="478" type="line"/>
			<point x="523" y="444" type="line"/>
			<point x="523" y="444" type="line"/>
			<point x="511" y="381" type="line"/>
			<point x="322" y="381" type="line"/>
			<point x="334" y="444" type="line"/>
			<point x="334" y="444" type="line"/>
			<point x="341" y="478" type="line"/>
			<point x="341" y="478" type="line"/>
			<point x="365" y="603" type="line"/>
			<point x="364" y="603" type="line"/>
			<point x="383" y="700" type="line"/>
			<point x="346" y="700" type="line"/>
			<point x="303" y="478" type="line"/>
			<point x="297" y="444" type="line"/>
			<point x="285" y="381" type="line"/>
			<point x="277" y="381" type="line"/>
			<point x="224" y="381" type="line"/>
			<point x="99" y="381" type="line"/>
			<point x="92" y="347" type="line"/>
			<point x="278" y="347" type="line"/>
			<point x="262" y="261" type="line"/>
			<point x="262" y="261" type="line"/>
			<point x="255" y="227" type="line"/>
			<point x="255" y="227" type="line"/>
			<point x="243" y="164" type="line"/>
			<point x="224" y="164" type="line"/>
			<point x="57" y="164" type="line"/>
			<point x="50" y="130" type="line"/>
			<point x="236" y="130" type="line"/>
			<point x="211" y="0" type="line"/>
			<point x="212" y="0" type="line"/>
			<point x="248" y="0" type="line"/>
			<point x="273" y="130" type="line"/>
			<point x="462" y="130" type="line"/>
			<point x="437" y="0" type="line"/>
			<point x="438" y="0" type="line"/>
			<point x="438" y="0" type="line"/>
			<point x="474" y="0" type="line"/>
			<point x="499" y="130" type="line"/>
			<point x="700" y="130" type="line"/>
			<point x="707" y="164" type="line"/>
			<point x="574" y="164" type="line"/>
			<point x="522" y="164" type="line"/>
		</contour>
		<contour>
			<point x="504" y="347" type="line"/>
			<point x="488" y="261" type="line"/>
			<point x="488" y="261" type="line"/>
			<point x="481" y="227" type="line"/>
			<point x="481" y="227" type="line"/>
			<point x="469" y="164" type="line"/>
			<point x="280" y="164" type="line"/>
			<point x="292" y="227" type="line"/>
			<point x="292" y="227" type="line"/>
			<point x="299" y="261" type="line"/>
			<point x="299" y="261" type="line"/>
			<point x="315" y="347" type="line"/>
		</contour>
	</outline>
</glyph>
<glyph name="dollar" format="2">
	<advance width="582"/>
	<unicode hex="0024"/>
	<outline>
		<contour>
			<point x="532" y="226" type="curve"/>
			<point x="532" y="226" type="line"/>
			<point x="532" y="344"/>
			<point x="442" y="440"/>
			<point x="327" y="451" type="curve"/>
			<point x="327" y="486" type="line"/>
			<point x="327" y="543" type="line"/>
			<point x="327" y="665" type="line"/>
			<point x="379" y="658"/>
			<point x="419" y="613"/>
			<point x="419" y="559" type="curve"/>
			<point x="453" y="559" type="line"/>
			<point x="453" y="632"/>
			<point x="398" y="692"/>
			<point x="327" y="700" type="curve"/>
			<point x="327" y="736" type="line"/>
			<point x="293" y="736" type="line"/>
			<point x="293" y="700" type="line"/>
			<point x="293" y="700" type="line"/>
			<point x="223" y="692"/>
			<point x="170" y="631"/>
			<point x="170" y="559" type="curve"/>
			<point x="170" y="487"/>
			<point x="223" y="427"/>
			<point x="293" y="419" type="curve"/>
			<point x="293" y="37" type="line"/>
			<point x="216" y="42"/>
			<point x="152" y="93"/>
			<point x="128" y="163" type="curve"/>
			<point x="128" y="163" type="line"/>
			<point x="121" y="185"/>
			<point x="104" y="209"/>
			<point x="88" y="226" type="curve"/>
			<point x="57" y="226" type="line"/>
			<point x="50" y="226" type="line"/>
			<point x="66" y="208"/>
			<point x="82" y="187"/>
			<point x="90" y="164" type="curve"/>
			<point x="115" y="74"/>
			<point x="196" y="6"/>
			<point x="293" y="0" type="curve"/>
			<point x="293" y="-35" type="line"/>
			<point x="327" y="-35" type="line"/>
			<point x="327" y="0" type="line"/>
			<point x="442" y="11"/>
			<point x="532" y="108"/>
		</contour>
		<contour>
			<point x="203" y="559" type="curve"/>
			<point x="203" y="559" type="line"/>
			<point x="203" y="612"/>
			<point x="242" y="656"/>
			<point x="293" y="665" type="curve"/>
			<point x="293" y="453" type="line"/>
			<point x="242" y="462"/>
			<point x="203" y="506"/>
		</contour>
		<contour>
			<point x="327" y="37" type="curve"/>
			<point x="327" y="37" type="line"/>
			<point x="327" y="158" type="line"/>
			<point x="327" y="216" type="line"/>
			<point x="327" y="416" type="line"/>
			<point x="422" y="406"/>
			<point x="496" y="324"/>
			<point x="496" y="226" type="curve"/>
			<point x="496" y="128"/>
			<point x="422" y="48"/>
		</contour>
	</outline>
</glyph>
<glyph name="percent" format="2">
	<advance width="703"/>
	<unicode hex="0025"/>
	<outline>
		<contour>
			<point x="117" y="618" type="curve"/>
			<point x="117" y="618" type="line"/>
			<point x="117" y="636"/>
			<point x="102" y="651"/>
			<point x="84" y="651" type="curve"/>
			<point x="65" y="651"/>
			<point x="50" y="636"/>
			<point x="50" y="618" type="curve"/>
			<point x="50" y="599"/>
			<point x="65" y="584"/>
			<point x="84" y="584" type="curve"/>
			<point x="102" y="584"/>
			<point x="117" y="599"/>
		</contour>
		<contour>
			<point x="620" y="116" type="curve"/>
			<point x="620" y="116" type="line"/>
			<point x="601" y="116"/>
			<point x="586" y="101"/>
			<point x="586" y="83" type="curve"/>
			<point x="586" y="64"/>
			<point x="601" y="49"/>
			<point x="620" y="49" type="curve"/>
			<point x="638" y="49"/>
			<point x="653" y="64"/>
			<point x="653" y="83" type="curve"/>
			<point x="653" y="101"/>
			<point x="638" y="116"/>
		</contour>
		<contour>
			<point x="621" y="700" type="line"/>
			<point x="579" y="700" type="line"/>
			<point x="84" y="0" type="line"/>
			<point x="125" y="0" type="line"/>
		</contour>
	</outline>
</glyph>
<glyph name="ampersand" format="2">
	<advance width="582"/>
	<unicode hex="0026"/>
	<outline>
		<contour>
			<point x="426" y="58" type="curve"/>
			<point x="426" y="58" type="line"/>
			<point x="457" y="86"/>
			<point x="481" y="122"/>
			<point x="493" y="164" type="curve"/>
			<point x="501" y="187"/>
			<point x="516" y="208"/>
			<point x="532" y="226" type="curve"/>
			<point x="525" y="226" type="line"/>
			<point x="494" y="226" type="line"/>
			<point x="478" y="209"/>
			<point x="461" y="185"/>
			<point x="455" y="163" type="curve"/>
			<point x="455" y="163" type="line"/>
			<point x="443" y="131"/>
			<point x="424" y="103"/>
			<point x="398" y="81" type="curve"/>
			<point x="314" y="158"/>
			<point x="246" y="260"/>
			<point x="206" y="347" type="curve"/>
			<point x="199" y="364"/>
			<point x="193" y="380"/>
			<point x="188" y="395" type="curve"/>
			<point x="188" y="396"/>
			<point x="188" y="396"/>
			<point x="188" y="396" type="curve"/>
			<point x="178" y="429" type="line"/>
			<point x="178" y="429" type="line"/>
			<point x="178" y="429"/>
			<point x="178" y="429"/>
			<point x="178" y="429" type="curve"/>
			<point x="165" y="477"/>
			<point x="164" y="511"/>
			<point x="164" y="521" type="curve"/>
			<point x="164" y="521" type="line"/>
			<point x="164" y="521"/>
			<point x="161" y="539"/>
			<point x="163" y="559" type="curve"/>
			<point x="163" y="559" type="line"/>
			<point x="163" y="618"/>
			<point x="212" y="667"/>
			<point x="271" y="667" type="curve"/>
			<point x="330" y="667"/>
			<point x="378" y="619"/>
			<point x="379" y="560" type="curve"/>
			<point x="413" y="560" type="line"/>
			<point x="412" y="638"/>
			<point x="349" y="701"/>
			<point x="271" y="701" type="curve"/>
			<point x="193" y="701"/>
			<point x="130" y="637"/>
			<point x="130" y="559" type="curve"/>
			<point x="130" y="559" type="line"/>
			<point x="130" y="554"/>
			<point x="129" y="534"/>
			<point x="131" y="514" type="curve"/>
			<point x="132" y="497"/>
			<point x="134" y="460"/>
			<point x="147" y="411" type="curve"/>
			<point x="88" y="371"/>
			<point x="50" y="303"/>
			<point x="50" y="226" type="curve"/>
			<point x="50" y="101"/>
			<point x="151" y="1"/>
			<point x="276" y="1" type="curve"/>
			<point x="320" y="1"/>
			<point x="362" y="13"/>
			<point x="397" y="36" type="curve"/>
			<point x="415" y="22"/>
			<point x="433" y="10"/>
			<point x="452" y="0" type="curve"/>
			<point x="501" y="0" type="line"/>
			<point x="501" y="0"/>
			<point x="483" y="15"/>
			<point x="456" y="34" type="curve"/>
			<point x="446" y="41"/>
			<point x="436" y="49"/>
		</contour>
		<contour>
			<point x="276" y="36" type="curve"/>
			<point x="276" y="36" type="line"/>
			<point x="171" y="36"/>
			<point x="86" y="121"/>
			<point x="86" y="226" type="curve"/>
			<point x="86" y="286"/>
			<point x="114" y="340"/>
			<point x="158" y="376" type="curve"/>
			<point x="161" y="366"/>
			<point x="165" y="357"/>
			<point x="168" y="347" type="curve"/>
			<point x="204" y="259"/>
			<point x="276" y="140"/>
			<point x="367" y="60" type="curve"/>
			<point x="340" y="45"/>
			<point x="309" y="36"/>
		</contour>
	</outline>
</glyph>
<glyph name="quotesingle" format="2">
	<advance width="144"/>
	<unicode hex="0027"/>
	<outline>
		<contour>
			<point x="50" y="700" type="line"/>
			<point x="55" y="531" type="line"/>
			<point x="89" y="531" type="line"/>
			<point x="94" y="700" type="line"/>
		</contour>
	</outline>
</glyph>
<glyph name="parenleft" format="2">
	<advance width="272"/>
	<unicode hex="0028"/>
	<outline>
		<contour>
			<point x="222" y="700" type="curve"/>
			<point x="188" y="700" type="line"/>
			<point x="188" y="700"/>
			<point x="-122" y="361"/>
			<point x="188" y="0" type="curve"/>
			<point x="222" y="0" type="line"/>
			<point x="222" y="0"/>
			<point x="-88" y="310"/>
		</contour>
	</outline>
</glyph>
<glyph name="parenright" format="2">
	<advance width="272"/>
	<unicode hex="0029"/>
	<outline>
		<contour>
			<point x="50" y="700" type="curve"/>
			<point x="84" y="700" type="line"/>
			<point x="84" y="700"/>
			<point x="394" y="361"/>
			<point x="84" y="0" type="curve"/>
			<point x="50" y="0" type="line"/>
			<point x="50" y="0"/>
			<point x="360" y="310"/>
		</contour>
	</outline>
</glyph>
<glyph name="asterisk" format="2">
	<advance width="423"/>
	<unicode hex="002A"/>
	<outline>
		<contour>
			<point x="245" y="526" type="line"/>
			<point x="373" y="600" type="line"/>
			<point x="356" y="629" type="line"/>
			<point x="279" y="585" type="line"/>
			<point x="256" y="572" type="line"/>
			<point x="228" y="555" type="line"/>
			<point x="228" y="700" type="line"/>
			<point x="194" y="700" type="line"/>
			<point x="194" y="615" type="line"/>
			<point x="194" y="588" type="line"/>
			<point x="194" y="555" type="line"/>
			<point x="67" y="629" type="line"/>
			<point x="50" y="600" type="line"/>
			<point x="127" y="556" type="line"/>
			<point x="149" y="543" type="line"/>
			<point x="177" y="526" type="line"/>
			<point x="149" y="510" type="line"/>
			<point x="127" y="497" type="line"/>
			<point x="50" y="453" type="line"/>
			<point x="67" y="423" type="line"/>
			<point x="194" y="496" type="line"/>
			<point x="194" y="465" type="line"/>
			<point x="194" y="438" type="line"/>
			<point x="194" y="350" type="line"/>
			<point x="228" y="350" type="line"/>
			<point x="228" y="496" type="line"/>
			<point x="256" y="481" type="line"/>
			<point x="279" y="467" type="line"/>
			<point x="356" y="423" type="line"/>
			<point x="373" y="453" type="line"/>
		</contour>
	</outline>
</glyph>
<glyph name="plus" format="2">
	<advance width="560"/>
	<unicode hex="002B"/>
	<outline>
		<contour>
			<point x="266" y="120" type="line"/>
			<point x="299" y="120" type="line"/>
			<point x="298" y="234" type="line"/>
			<point x="298" y="269" type="line"/>
			<point x="298" y="333" type="line"/>
			<point x="361" y="333" type="line"/>
			<point x="395" y="333" type="line"/>
			<point x="510" y="333" type="line"/>
			<point x="510" y="366" type="line"/>
			<point x="298" y="366" type="line"/>
			<point x="298" y="430" type="line"/>
			<point x="297" y="465" type="line"/>
			<point x="296" y="580" type="line"/>
			<point x="262" y="580" type="line"/>
			<point x="264" y="366" type="line"/>
			<point x="50" y="366" type="line"/>
			<point x="50" y="334" type="line"/>
			<point x="165" y="333" type="line"/>
			<point x="200" y="333" type="line"/>
			<point x="264" y="333" type="line"/>
		</contour>
	</outline>
</glyph>
<glyph name="comma" format="2">
	<advance width="184"/>
	<unicode hex="002C"/>
	<outline>
		<contour>
			<point x="134" y="76" type="line"/>
			<point x="84" y="-93" type="line"/>
			<point x="50" y="-93" type="line"/>
			<point x="90" y="76" type="line"/>
		</contour>
	</outline>
</glyph>
<glyph name="hyphen" format="2">
	<advance width="300"/>
	<unicode hex="002D"/>
	<outline>
		<contour>
			<point x="185" y="295" type="line"/>
			<point x="115" y="295" type="line"/>
			<point x="100" y="295" type="line"/>
			<point x="50" y="295" type="line"/>
			<point x="50" y="329" type="line"/>
			<point x="250" y="329" type="line"/>
			<point x="250" y="295" type="line"/>
			<point x="200" y="295" type="line"/>
		</contour>
	</outline>
</glyph>
<glyph name="period" format="2">
	<advance width="167"/>
	<unicode hex="002E"/>
	<outline>
		<contour>
			<point x="117" y="34" type="curve"/>
			<point x="117" y="34" type="line"/>
			<point x="117" y="15"/>
			<point x="102" y="0"/>
			<point x="84" y="0" type="curve"/>
			<point x="65" y="0"/>
			<point x="50" y="15"/>
			<point x="50" y="34" type="curve"/>
			<point x="50" y="52"/>
			<point x="65" y="67"/>
			<point x="84" y="67" type="curve"/>
			<point x="102" y="67"/>
			<point x="117" y="52"/>
		</contour>
	</outline>
</glyph>
<glyph name="zero" format="2">
	<advance width="453"/>
	<unicode hex="0030"/>
	<outline>
		<contour>
			<point x="227" y="700" type="curve"/>
			<point x="227" y="700" type="line"/>
			<point x="129" y="700"/>
			<point x="50" y="543"/>
			<point x="50" y="350" type="curve"/>
			<point x="50" y="157"/>
			<point x="129" y="0"/>
			<point x="227" y="0" type="curve"/>
			<point x="324" y="0"/>
			<point x="403" y="157"/>
			<point x="403" y="350" type="curve"/>
			<point x="403" y="543"/>
			<point x="324" y="700"/>
		</contour>
		<contour>
			<point x="227" y="34" type="curve"/>
			<point x="227" y="34" type="line"/>
			<point x="145" y="34"/>
			<point x="84" y="187"/>
			<point x="84" y="350" type="curve"/>
			<point x="84" y="513"/>
			<point x="145" y="666"/>
			<point x="227" y="666" type="curve"/>
			<point x="309" y="666"/>
			<point x="369" y="513"/>
			<point x="369" y="350" type="curve"/>
			<point x="369" y="187"/>
			<point x="309" y="34"/>
		</contour>
	</outline>
</glyph>
<glyph name="one" format="2">
	<advance width="276"/>
	<unicode hex="0031"/>
	<outline>
		<contour>
			<point x="226" y="675" type="line"/>
			<point x="226" y="700" type="line"/>
			<point x="221" y="700" type="line"/>
			<point x="201" y="700" type="line"/>
			<point x="192" y="700" type="line"/>
			<point x="192" y="700" type="line"/>
			<point x="192" y="700" type="line"/>
			<point x="192" y="700" type="line"/>
			<point x="137" y="672" type="line"/>
			<point x="135" y="671"/>
			<point x="132" y="670"/>
			<point x="129" y="668" type="curve"/>
			<point x="119" y="664" type="line"/>
			<point x="98" y="655"/>
			<point x="74" y="650"/>
			<point x="50" y="650" type="curve"/>
			<point x="50" y="633" type="line"/>
			<point x="50" y="633" type="line"/>
			<point x="50" y="623" type="line"/>
			<point x="50" y="623" type="line"/>
			<point x="50" y="617" type="line"/>
			<point x="83" y="617"/>
			<point x="115" y="625"/>
			<point x="144" y="639" type="curve"/>
			<point x="192" y="660" type="line"/>
			<point x="192" y="606" type="line"/>
			<point x="192" y="606" type="line"/>
			<point x="192" y="0" type="line"/>
			<point x="226" y="0" type="line"/>
			<point x="226" y="112" type="line"/>
			<point x="226" y="145" type="line"/>
			<point x="226" y="145" type="line"/>
			<point x="226" y="482" type="line"/>
			<point x="226" y="520" type="line"/>
			<point x="226" y="675" type="line"/>
		</contour>
	</outline>
</glyph>
<glyph name="two" format="2">
	<advance width="453"/>
	<unicode hex="0032"/>
	<outline>
		<contour>
			<point x="353" y="401" type="curve"/>
			<point x="353" y="401" type="line"/>
			<point x="353" y="401" type="line"/>
			<point x="386" y="435"/>
			<point x="403" y="479"/>
			<point x="403" y="523" type="curve"/>
			<point x="403" y="523" type="line"/>
			<point x="403" y="523"/>
			<point x="403" y="523"/>
			<point x="403" y="523" type="curve"/>
			<point x="403" y="568"/>
			<point x="386" y="613"/>
			<point x="352" y="648" type="curve"/>
			<point x="338" y="662"/>
			<point x="322" y="673"/>
			<point x="305" y="681" type="curve"/>
			<point x="239" y="714"/>
			<point x="157" y="704"/>
			<point x="102" y="649" type="curve"/>
			<point x="68" y="614"/>
			<point x="50" y="569"/>
			<point x="50" y="523" type="curve"/>
			<point x="83" y="523" type="line"/>
			<point x="83" y="559"/>
			<point x="97" y="596"/>
			<point x="126" y="625" type="curve"/>
			<point x="154" y="653"/>
			<point x="190" y="667"/>
			<point x="226" y="667" type="curve"/>
			<point x="226" y="667" type="line"/>
			<point x="243" y="667"/>
			<point x="261" y="664"/>
			<point x="277" y="657" type="curve"/>
			<point x="295" y="650"/>
			<point x="312" y="639"/>
			<point x="327" y="624" type="curve"/>
			<point x="345" y="606"/>
			<point x="357" y="587"/>
			<point x="363" y="566" type="curve"/>
			<point x="378" y="520"/>
			<point x="368" y="470"/>
			<point x="334" y="431" type="curve"/>
			<point x="334" y="431" type="line"/>
			<point x="334" y="430"/>
			<point x="308" y="389"/>
			<point x="243" y="305" type="curve"/>
			<point x="184" y="231"/>
			<point x="81" y="116"/>
			<point x="50" y="0" type="curve"/>
			<point x="84" y="0" type="line"/>
			<point x="84" y="0"/>
			<point x="84" y="0"/>
			<point x="84" y="0" type="curve"/>
			<point x="120" y="0" type="line"/>
			<point x="120" y="0" type="line"/>
			<point x="189" y="0" type="line"/>
			<point x="210" y="0" type="line"/>
			<point x="279" y="0" type="line"/>
			<point x="279" y="0" type="line"/>
			<point x="322" y="0"/>
			<point x="366" y="13"/>
			<point x="403" y="39" type="curve"/>
			<point x="403" y="81" type="line"/>
			<point x="403" y="83" type="line"/>
			<point x="369" y="51"/>
			<point x="323" y="34"/>
			<point x="279" y="34" type="curve"/>
			<point x="279" y="34" type="line"/>
			<point x="274" y="34" type="line"/>
			<point x="273" y="34" type="line"/>
			<point x="273" y="34" type="line"/>
			<point x="97" y="34" type="line"/>
			<point x="137" y="124"/>
			<point x="214" y="207"/>
			<point x="262" y="273" type="curve"/>
			<point x="324" y="359"/>
			<point x="352" y="400"/>
		</contour>
	</outline>
</glyph>
<glyph name="three" format="2">
	<advance width="550"/>
	<unicode hex="0033"/>
	<outline>
		<contour>
			<point x="352" y="437" type="curve"/>
			<point x="352" y="437" type="line"/>
			<point x="393" y="462"/>
			<point x="420" y="507"/>
			<point x="420" y="559" type="curve"/>
			<point x="421" y="559" type="line"/>
			<point x="421" y="637"/>
			<point x="357" y="700"/>
			<point x="279" y="700" type="curve"/>
			<point x="279" y="700"/>
			<point x="279" y="700"/>
			<point x="279" y="700" type="curve"/>
			<point x="279" y="700"/>
			<point x="279" y="700"/>
			<point x="279" y="700" type="curve"/>
			<point x="204" y="700"/>
			<point x="144" y="643"/>
			<point x="138" y="570" type="curve"/>
			<point x="137" y="562"/>
			<point x="135" y="553"/>
			<point x="131" y="545" type="curve"/>
			<point x="130" y="543"/>
			<point x="129" y="541"/>
			<point x="128" y="539" type="curve"/>
			<point x="128" y="538"/>
			<point x="127" y="537"/>
			<point x="127" y="536" type="curve"/>
			<point x="126" y="536"/>
			<point x="126" y="536"/>
			<point x="126" y="535" type="curve"/>
			<point x="126" y="535" type="line"/>
			<point x="123" y="531"/>
			<point x="120" y="527"/>
			<point x="116" y="523" type="curve"/>
			<point x="118" y="523" type="line"/>
			<point x="156" y="523" type="line"/>
			<point x="158" y="527"/>
			<point x="165" y="538"/>
			<point x="170" y="555" type="curve"/>
			<point x="170" y="555" type="line"/>
			<point x="171" y="557"/>
			<point x="171" y="559"/>
			<point x="171" y="562" type="curve"/>
			<point x="173" y="620"/>
			<point x="221" y="666"/>
			<point x="279" y="666" type="curve"/>
			<point x="338" y="666"/>
			<point x="386" y="618"/>
			<point x="386" y="559" type="curve"/>
			<point x="386" y="499"/>
			<point x="338" y="451"/>
			<point x="279" y="451" type="curve"/>
			<point x="279" y="417" type="line"/>
			<point x="382" y="415"/>
			<point x="464" y="329"/>
			<point x="464" y="226" type="curve"/>
			<point x="464" y="201"/>
			<point x="460" y="178"/>
			<point x="451" y="157" type="curve"/>
			<point x="446" y="143"/>
			<point x="439" y="130"/>
			<point x="431" y="119" type="curve"/>
			<point x="397" y="69"/>
			<point x="340" y="36"/>
			<point x="275" y="36" type="curve"/>
			<point x="192" y="36"/>
			<point x="122" y="89"/>
			<point x="96" y="163" type="curve"/>
			<point x="96" y="163" type="line"/>
			<point x="89" y="182"/>
			<point x="85" y="204"/>
			<point x="85" y="226" type="curve"/>
			<point x="85" y="226"/>
			<point x="85" y="227"/>
			<point x="85" y="228" type="curve"/>
			<point x="50" y="228" type="line"/>
			<point x="50" y="227"/>
			<point x="50" y="226"/>
			<point x="50" y="225" type="curve"/>
			<point x="50" y="203"/>
			<point x="53" y="182"/>
			<point x="58" y="163" type="curve"/>
			<point x="58" y="163" type="line"/>
			<point x="58" y="163"/>
			<point x="58" y="163"/>
			<point x="58" y="164" type="curve"/>
			<point x="61" y="153"/>
			<point x="65" y="142"/>
			<point x="69" y="132" type="curve"/>
			<point x="70" y="131"/>
			<point x="70" y="130"/>
			<point x="70" y="130" type="curve"/>
			<point x="70" y="130"/>
			<point x="70" y="130"/>
			<point x="70" y="129" type="curve"/>
			<point x="94" y="78"/>
			<point x="137" y="37"/>
			<point x="191" y="16" type="curve"/>
			<point x="217" y="6"/>
			<point x="244" y="0"/>
			<point x="273" y="0" type="curve"/>
			<point x="276" y="0"/>
			<point x="280" y="0"/>
			<point x="283" y="0" type="curve"/>
			<point x="371" y="2"/>
			<point x="442" y="52"/>
			<point x="477" y="126" type="curve"/>
			<point x="492" y="156"/>
			<point x="500" y="190"/>
			<point x="500" y="226" type="curve"/>
			<point x="500" y="323"/>
			<point x="438" y="406"/>
		</contour>
	</outline>
</glyph>
<glyph name="four" format="2">
	<advance width="437"/>
	<unicode hex="0034"/>
	<outline>
		<contour>
			<point x="338" y="117" type="curve"/>
			<point x="338" y="117" type="line"/>
			<point x="338" y="140" type="line"/>
			<point x="338" y="145" type="line"/>
			<point x="338" y="145" type="line"/>
			<point x="338" y="374" type="line"/>
			<point x="369" y="388" type="line"/>
			<point x="369" y="388" type="line"/>
			<point x="387" y="396" type="line"/>
			<point x="387" y="433" type="line"/>
			<point x="338" y="411" type="line"/>
			<point x="338" y="514" type="line"/>
			<point x="338" y="542" type="line"/>
			<point x="338" y="700" type="line"/>
			<point x="338" y="700" type="line"/>
			<point x="300" y="700" type="line"/>
			<point x="90" y="343" type="line"/>
			<point x="76" y="319" type="line"/>
			<point x="76" y="319" type="line"/>
			<point x="67" y="303" type="line"/>
			<point x="67" y="303" type="line"/>
			<point x="50" y="276" type="line"/>
			<point x="50" y="246" type="line"/>
			<point x="101" y="269" type="line"/>
			<point x="101" y="269" type="line"/>
			<point x="118" y="277" type="line"/>
			<point x="142" y="287" type="line"/>
			<point x="250" y="335" type="line"/>
			<point x="276" y="346" type="line"/>
			<point x="304" y="359" type="line"/>
			<point x="304" y="140" type="line"/>
			<point x="304" y="126" type="line"/>
			<point x="304" y="126" type="line"/>
			<point x="304" y="82"/>
			<point x="317" y="37"/>
			<point x="343" y="0" type="curve"/>
			<point x="385" y="0" type="line"/>
			<point x="387" y="0" type="line"/>
			<point x="357" y="32"/>
			<point x="340" y="75"/>
		</contour>
		<contour>
			<point x="304" y="642" type="line"/>
			<point x="304" y="606" type="line"/>
			<point x="304" y="606" type="line"/>
			<point x="304" y="396" type="line"/>
			<point x="108" y="310" type="line"/>
			<point x="113" y="317" type="line"/>
			<point x="113" y="317" type="line"/>
			<point x="113" y="317" type="line"/>
			<point x="113" y="317" type="line"/>
		</contour>
	</outline>
</glyph>
<glyph name="five" format="2">
	<advance width="416"/>
	<unicode hex="0035"/>
	<outline>
		<contour>
			<point x="311" y="325" type="curve"/>
			<point x="311" y="325" type="line"/>
			<point x="256" y="379"/>
			<point x="176" y="393"/>
			<point x="108" y="366" type="curve"/>
			<point x="138" y="450" type="line"/>
			<point x="153" y="490" type="line"/>
			<point x="216" y="665" type="line"/>
			<point x="236" y="665" type="line"/>
			<point x="236" y="665" type="line"/>
			<point x="282" y="666"/>
			<point x="330" y="649"/>
			<point x="365" y="616" type="curve"/>
			<point x="365" y="618" type="line"/>
			<point x="365" y="660" type="line"/>
			<point x="327" y="687"/>
			<point x="282" y="699"/>
			<point x="237" y="699" type="curve"/>
			<point x="237" y="699" type="line"/>
			<point x="211" y="699" type="line"/>
			<point x="193" y="699" type="line"/>
			<point x="191" y="693" type="line"/>
			<point x="190" y="693" type="line"/>
			<point x="112" y="477" type="line"/>
			<point x="62" y="338" type="line"/>
			<point x="62" y="338" type="line"/>
			<point x="62" y="338"/>
			<point x="61" y="336"/>
			<point x="60" y="332" type="curve"/>
			<point x="58" y="326" type="line"/>
			<point x="58" y="326" type="line"/>
			<point x="57" y="322"/>
			<point x="56" y="317"/>
			<point x="56" y="312" type="curve"/>
			<point x="90" y="312" type="line"/>
			<point x="90" y="312"/>
			<point x="99" y="319"/>
			<point x="102" y="321" type="curve"/>
			<point x="102" y="321"/>
			<point x="103" y="322"/>
			<point x="103" y="322" type="curve"/>
			<point x="103" y="322"/>
			<point x="103" y="322"/>
			<point x="103" y="322" type="curve"/>
			<point x="103" y="322" type="line"/>
			<point x="161" y="358"/>
			<point x="233" y="351"/>
			<point x="285" y="299" type="curve"/>
			<point x="346" y="238"/>
			<point x="346" y="145"/>
			<point x="284" y="83" type="curve"/>
			<point x="223" y="21"/>
			<point x="127" y="19"/>
			<point x="66" y="80" type="curve"/>
			<point x="62" y="84"/>
			<point x="55" y="91"/>
			<point x="50" y="96" type="curve"/>
			<point x="50" y="45" type="line"/>
			<point x="124" y="-19"/>
			<point x="238" y="-14"/>
			<point x="309" y="57" type="curve"/>
			<point x="384" y="132"/>
			<point x="384" y="251"/>
		</contour>
	</outline>
</glyph>
<glyph name="six" format="2">
	<advance width="453"/>
	<unicode hex="0036"/>
	<outline>
		<contour>
			<point x="352" y="296" type="curve"/>
			<point x="352" y="296" type="line"/>
			<point x="318" y="330"/>
			<point x="272" y="347"/>
			<point x="226" y="347" type="curve"/>
			<point x="226" y="347" type="line"/>
			<point x="182" y="347"/>
			<point x="137" y="330"/>
			<point x="102" y="297" type="curve"/>
			<point x="108" y="315"/>
			<point x="115" y="333"/>
			<point x="123" y="353" type="curve"/>
			<point x="171" y="460"/>
			<point x="247" y="588"/>
			<point x="357" y="666" type="curve"/>
			<point x="384" y="685"/>
			<point x="402" y="700"/>
			<point x="402" y="700" type="curve"/>
			<point x="353" y="700" type="line"/>
			<point x="223" y="633"/>
			<point x="131" y="467"/>
			<point x="85" y="353" type="curve"/>
			<point x="45" y="254"/>
			<point x="50" y="177"/>
			<point x="50" y="177" type="curve"/>
			<point x="50" y="177" type="line"/>
			<point x="50" y="132"/>
			<point x="67" y="87"/>
			<point x="102" y="52" type="curve"/>
			<point x="132" y="22"/>
			<point x="170" y="5"/>
			<point x="209" y="1" type="curve"/>
			<point x="209" y="1"/>
			<point x="209" y="1"/>
			<point x="209" y="1" type="curve"/>
			<point x="210" y="1"/>
			<point x="210" y="1"/>
			<point x="210" y="1" type="curve"/>
			<point x="216" y="0"/>
			<point x="221" y="0"/>
			<point x="226" y="0" type="curve"/>
			<point x="226" y="0" type="line"/>
			<point x="262" y="0"/>
			<point x="298" y="10"/>
			<point x="328" y="32" type="curve"/>
			<point x="336" y="38"/>
			<point x="344" y="44"/>
			<point x="351" y="51" type="curve"/>
			<point x="420" y="119"/>
			<point x="421" y="229"/>
		</contour>
		<contour>
			<point x="125" y="273" type="curve"/>
			<point x="125" y="273" type="line"/>
			<point x="154" y="301"/>
			<point x="190" y="315"/>
			<point x="226" y="315" type="curve"/>
			<point x="226" y="315" type="line"/>
			<point x="263" y="315"/>
			<point x="299" y="301"/>
			<point x="328" y="272" type="curve"/>
			<point x="356" y="245"/>
			<point x="370" y="211"/>
			<point x="370" y="177" type="curve"/>
			<point x="370" y="177" type="line"/>
			<point x="370" y="141"/>
			<point x="356" y="104"/>
			<point x="327" y="75" type="curve"/>
			<point x="270" y="18"/>
			<point x="183" y="19"/>
			<point x="126" y="76" type="curve"/>
			<point x="97" y="105"/>
			<point x="83" y="141"/>
			<point x="83" y="177" type="curve"/>
			<point x="83" y="177" type="line"/>
			<point x="83" y="177"/>
			<point x="83" y="181"/>
			<point x="83" y="188" type="curve"/>
			<point x="86" y="219"/>
			<point x="101" y="248"/>
		</contour>
	</outline>
</glyph>
<glyph name="seven" format="2">
	<advance width="454"/>
	<unicode hex="0037"/>
	<outline>
		<contour>
			<point x="404" y="700" type="line"/>
			<point x="379" y="700" type="line"/>
			<point x="287" y="700" type="line"/>
			<point x="260" y="700" type="line"/>
			<point x="171" y="700" type="line"/>
			<point x="171" y="700" type="line"/>
			<point x="129" y="699"/>
			<point x="86" y="686"/>
			<point x="50" y="661" type="curve"/>
			<point x="50" y="619" type="line"/>
			<point x="50" y="617" type="line"/>
			<point x="83" y="648"/>
			<point x="128" y="665"/>
			<point x="171" y="666" type="curve"/>
			<point x="171" y="666" type="line"/>
			<point x="179" y="666" type="line"/>
			<point x="179" y="666"/>
			<point x="179" y="666"/>
			<point x="179" y="666" type="curve"/>
			<point x="292" y="666" type="line"/>
			<point x="292" y="666"/>
			<point x="292" y="666"/>
			<point x="292" y="666" type="curve"/>
			<point x="292" y="666" type="line"/>
			<point x="354" y="666" type="line"/>
			<point x="283" y="449"/>
			<point x="234" y="226"/>
			<point x="208" y="0" type="curve"/>
			<point x="208" y="0" type="line"/>
			<point x="242" y="0" type="line"/>
			<point x="242" y="0" type="line"/>
			<point x="269" y="231"/>
			<point x="320" y="458"/>
			<point x="396" y="677" type="curve"/>
		</contour>
	</outline>
</glyph>
<glyph name="eight" format="2">
	<advance width="550"/>
	<unicode hex="0038"/>
	<outline>
		<contour>
			<point x="352" y="437" type="curve"/>
			<point x="352" y="437" type="line"/>
			<point x="393" y="462"/>
			<point x="421" y="507"/>
			<point x="421" y="559" type="curve"/>
			<point x="421" y="559" type="line"/>
			<point x="421" y="637"/>
			<point x="357" y="700"/>
			<point x="279" y="700" type="curve"/>
			<point x="279" y="700"/>
			<point x="279" y="700"/>
			<point x="279" y="700" type="curve"/>
			<point x="279" y="700"/>
			<point x="279" y="700"/>
			<point x="279" y="700" type="curve"/>
			<point x="278" y="700"/>
			<point x="278" y="700"/>
			<point x="278" y="700" type="curve"/>
			<point x="278" y="700" type="line"/>
			<point x="251" y="700" type="line"/>
			<point x="242" y="700" type="line"/>
			<point x="204" y="700" type="line"/>
			<point x="196" y="700" type="line"/>
			<point x="169" y="700" type="line"/>
			<point x="169" y="700" type="line"/>
			<point x="127" y="699"/>
			<point x="85" y="686"/>
			<point x="50" y="661" type="curve"/>
			<point x="50" y="619" type="line"/>
			<point x="50" y="617" type="line"/>
			<point x="83" y="648"/>
			<point x="127" y="665"/>
			<point x="170" y="666" type="curve"/>
			<point x="187" y="666" type="line"/>
			<point x="156" y="640"/>
			<point x="137" y="602"/>
			<point x="137" y="559" type="curve"/>
			<point x="137" y="559" type="line" smooth="yes"/>
			<point x="137" y="507"/>
			<point x="165" y="462"/>
			<point x="206" y="438" type="curve"/>
			<point x="117" y="406"/>
			<point x="50" y="322"/>
			<point x="50" y="225" type="curve"/>
			<point x="50" y="203"/>
			<point x="53" y="182"/>
			<point x="58" y="163" type="curve"/>
			<point x="58" y="163" type="line"/>
			<point x="58" y="163"/>
			<point x="58" y="162"/>
			<point x="58" y="163" type="curve"/>
			<point x="61" y="152"/>
			<point x="65" y="141"/>
			<point x="69" y="131" type="curve"/>
			<point x="70" y="130"/>
			<point x="70" y="130"/>
			<point x="70" y="130" type="curve"/>
			<point x="70" y="130"/>
			<point x="70" y="130"/>
			<point x="70" y="129" type="curve"/>
			<point x="94" y="78"/>
			<point x="137" y="37"/>
			<point x="191" y="16" type="curve"/>
			<point x="217" y="6"/>
			<point x="244" y="0"/>
			<point x="273" y="0" type="curve"/>
			<point x="276" y="0"/>
			<point x="280" y="0"/>
			<point x="283" y="0" type="curve"/>
			<point x="371" y="2"/>
			<point x="442" y="52"/>
			<point x="477" y="126" type="curve"/>
			<point x="492" y="156"/>
			<point x="500" y="190"/>
			<point x="500" y="226" type="curve"/>
			<point x="500" y="323"/>
			<point x="438" y="406"/>
		</contour>
		<contour>
			<point x="171" y="559" type="curve"/>
			<point x="171" y="559" type="line"/>
			<point x="171" y="617"/>
			<point x="218" y="664"/>
			<point x="276" y="666" type="curve"/>
			<point x="278" y="666" type="line"/>
			<point x="278" y="666" type="line"/>
			<point x="281" y="666" type="line"/>
			<point x="340" y="665"/>
			<point x="386" y="617"/>
			<point x="386" y="559" type="curve"/>
			<point x="386" y="499"/>
			<point x="338" y="451"/>
			<point x="279" y="451" type="curve"/>
			<point x="220" y="451"/>
			<point x="171" y="499"/>
		</contour>
		<contour>
			<point x="451" y="157" type="curve"/>
			<point x="451" y="157" type="line"/>
			<point x="446" y="143"/>
			<point x="439" y="130"/>
			<point x="431" y="119" type="curve"/>
			<point x="397" y="69"/>
			<point x="340" y="36"/>
			<point x="275" y="36" type="curve"/>
			<point x="192" y="36"/>
			<point x="122" y="89"/>
			<point x="96" y="163" type="curve"/>
			<point x="96" y="163" type="line"/>
			<point x="89" y="182"/>
			<point x="85" y="204"/>
			<point x="85" y="226" type="curve"/>
			<point x="85" y="329"/>
			<point x="176" y="415"/>
			<point x="279" y="417" type="curve"/>
			<point x="279" y="417"/>
			<point x="279" y="417"/>
			<point x="279" y="417" type="curve"/>
			<point x="279" y="417"/>
			<point x="279" y="417"/>
			<point x="279" y="417" type="curve"/>
			<point x="382" y="415"/>
			<point x="464" y="329"/>
			<point x="464" y="226" type="curve"/>
			<point x="464" y="201"/>
			<point x="460" y="178"/>
		</contour>
	</outline>
</glyph>
<glyph name="nine" format="2">
	<advance width="453"/>
	<unicode hex="0039"/>
	<outline>
		<contour>
			<point x="403" y="523" type="curve"/>
			<point x="403" y="523" type="line"/>
			<point x="403" y="523" type="line"/>
			<point x="403" y="568"/>
			<point x="386" y="614"/>
			<point x="351" y="648" type="curve"/>
			<point x="321" y="678"/>
			<point x="283" y="695"/>
			<point x="244" y="699" type="curve"/>
			<point x="244" y="699"/>
			<point x="244" y="699"/>
			<point x="244" y="699" type="curve"/>
			<point x="243" y="699"/>
			<point x="243" y="699"/>
			<point x="243" y="699" type="curve"/>
			<point x="238" y="700"/>
			<point x="232" y="700"/>
			<point x="227" y="700" type="curve"/>
			<point x="227" y="700" type="line"/>
			<point x="191" y="700"/>
			<point x="155" y="690"/>
			<point x="125" y="668" type="curve"/>
			<point x="117" y="662"/>
			<point x="109" y="656"/>
			<point x="102" y="649" type="curve"/>
			<point x="33" y="581"/>
			<point x="32" y="471"/>
			<point x="101" y="404" type="curve"/>
			<point x="135" y="370"/>
			<point x="181" y="353"/>
			<point x="227" y="353" type="curve"/>
			<point x="227" y="353" type="line"/>
			<point x="272" y="353"/>
			<point x="316" y="370"/>
			<point x="351" y="403" type="curve"/>
			<point x="345" y="385"/>
			<point x="339" y="367"/>
			<point x="330" y="347" type="curve"/>
			<point x="282" y="240"/>
			<point x="206" y="112"/>
			<point x="96" y="34" type="curve"/>
			<point x="69" y="15"/>
			<point x="51" y="0"/>
			<point x="51" y="0" type="curve"/>
			<point x="100" y="0" type="line"/>
			<point x="230" y="67"/>
			<point x="322" y="233"/>
			<point x="368" y="347" type="curve"/>
			<point x="408" y="446"/>
			<point x="403" y="523"/>
		</contour>
		<contour>
			<point x="328" y="427" type="curve"/>
			<point x="328" y="427" type="line"/>
			<point x="299" y="399"/>
			<point x="263" y="385"/>
			<point x="227" y="385" type="curve"/>
			<point x="227" y="385" type="line"/>
			<point x="190" y="385"/>
			<point x="154" y="399"/>
			<point x="125" y="428" type="curve"/>
			<point x="97" y="455"/>
			<point x="83" y="489"/>
			<point x="83" y="523" type="curve"/>
			<point x="83" y="523" type="line"/>
			<point x="83" y="559"/>
			<point x="98" y="596"/>
			<point x="126" y="625" type="curve"/>
			<point x="183" y="682"/>
			<point x="270" y="681"/>
			<point x="327" y="624" type="curve"/>
			<point x="356" y="595"/>
			<point x="370" y="559"/>
			<point x="370" y="523" type="curve"/>
			<point x="370" y="523" type="line"/>
			<point x="370" y="523"/>
			<point x="371" y="519"/>
			<point x="370" y="512" type="curve"/>
			<point x="367" y="481"/>
			<point x="353" y="452"/>
		</contour>
	</outline>
</glyph>
<glyph name="colon" format="2">
	<advance width="167"/>
	<unicode hex="003A"/>
	<outline>
		<contour>
			<point x="117" y="34" type="curve"/>
			<point x="117" y="34" type="line"/>
			<point x="117" y="15"/>
			<point x="102" y="0"/>
			<point x="83" y="0" type="curve"/>
			<point x="65" y="0"/>
			<point x="50" y="15"/>
			<point x="50" y="34" type="curve"/>
			<point x="50" y="52"/>
			<point x="65" y="67"/>
			<point x="83" y="67" type="curve"/>
			<point x="102" y="67"/>
			<point x="117" y="52"/>
		</contour>
		<contour>
			<point x="117" y="384" type="curve"/>
			<point x="117" y="384" type="line"/>
			<point x="117" y="365"/>
			<point x="102" y="350"/>
			<point x="83" y="350" type="curve"/>
			<point x="65" y="350"/>
			<point x="50" y="365"/>
			<point x="50" y="384" type="curve"/>
			<point x="50" y="402"/>
			<point x="65" y="417"/>
			<point x="83" y="417" type="curve"/>
			<point x="102" y="417"/>
			<point x="117" y="402"/>
		</contour>
	</outline>
</glyph>
<glyph name="semicolon" format="2">
	<advance width="196"/>
	<unicode hex="003B"/>
	<outline>
		<contour>
			<point x="146" y="282" type="curve"/>
			<point x="146" y="282" type="line"/>
			<point x="146" y="264"/>
			<point x="131" y="249"/>
			<point x="112" y="249" type="curve"/>
			<point x="94" y="249"/>
			<point x="79" y="264"/>
			<point x="79" y="282" type="curve"/>
			<point x="79" y="301"/>
			<point x="94" y="316"/>
			<point x="112" y="316" type="curve"/>
			<point x="131" y="316"/>
			<point x="146" y="301"/>
		</contour>
		<contour>
			<point x="135" y="84" type="line"/>
			<point x="85" y="-84" type="line"/>
			<point x="51" y="-84" type="line"/>
			<point x="91" y="84" type="line"/>
		</contour>
	</outline>
</glyph>
<glyph name="less" format="2">
	<advance width="390"/>
	<unicode hex="003C"/>
	<outline>
		<contour>
			<point x="340" y="433" type="line"/>
			<point x="340" y="474" type="line"/>
			<point x="50" y="310" type="line"/>
			<point x="50" y="288" type="line"/>
			<point x="50" y="266" type="line"/>
			<point x="340" y="102" type="line"/>
			<point x="340" y="143" type="line"/>
			<point x="84" y="288" type="line"/>
		</contour>
	</outline>
</glyph>
<glyph name="greater" format="2">
	<advance width="390"/>
	<unicode hex="003E"/>
	<outline>
		<contour>
			<point x="50" y="433" type="line"/>
			<point x="50" y="474" type="line"/>
			<point x="340" y="310" type="line"/>
			<point x="340" y="288" type="line"/>
			<point x="340" y="266" type="line"/>
			<point x="50" y="102" type="line"/>
			<point x="50" y="143" type="line"/>
			<point x="307" y="288" type="line"/>
		</contour>
	</outline>
</glyph>
<glyph name="question" format="2">
	<advance width="453"/>
	<unicode hex="003F"/>
	<outline>
		<contour>
			<point x="260" y="34" type="curve"/>
			<point x="260" y="34" type="line"/>
			<point x="260" y="15"/>
			<point x="245" y="0"/>
			<point x="227" y="0" type="curve"/>
			<point x="208" y="0"/>
			<point x="193" y="15"/>
			<point x="193" y="34" type="curve"/>
			<point x="193" y="52"/>
			<point x="208" y="67"/>
			<point x="227" y="67" type="curve"/>
			<point x="245" y="67"/>
			<point x="260" y="52"/>
		</contour>
		<contour>
			<point x="403" y="523" type="curve"/>
			<point x="403" y="523" type="line"/>
			<point x="403" y="568"/>
			<point x="386" y="613"/>
			<point x="352" y="648" type="curve"/>
			<point x="338" y="662"/>
			<point x="322" y="673"/>
			<point x="305" y="681" type="curve"/>
			<point x="239" y="714"/>
			<point x="157" y="704"/>
			<point x="102" y="649" type="curve"/>
			<point x="68" y="614"/>
			<point x="50" y="569"/>
			<point x="50" y="523" type="curve"/>
			<point x="83" y="523" type="line"/>
			<point x="83" y="559"/>
			<point x="98" y="596"/>
			<point x="126" y="625" type="curve"/>
			<point x="154" y="653"/>
			<point x="190" y="667"/>
			<point x="226" y="667" type="curve"/>
			<point x="226" y="667" type="line"/>
			<point x="243" y="667"/>
			<point x="261" y="664"/>
			<point x="277" y="657" type="curve"/>
			<point x="295" y="650"/>
			<point x="312" y="639"/>
			<point x="327" y="624" type="curve"/>
			<point x="345" y="606"/>
			<point x="357" y="587"/>
			<point x="364" y="566" type="curve"/>
			<point x="378" y="521"/>
			<point x="370" y="472"/>
			<point x="338" y="434" type="curve"/>
			<point x="336" y="432"/>
			<point x="333" y="429"/>
			<point x="332" y="428" type="curve"/>
			<point x="314" y="416"/>
			<point x="245" y="357"/>
			<point x="229" y="300" type="curve"/>
			<point x="223" y="281"/>
			<point x="210" y="230"/>
			<point x="210" y="177" type="curve"/>
			<point x="244" y="177" type="line"/>
			<point x="244" y="177"/>
			<point x="242" y="215"/>
			<point x="252" y="258" type="curve"/>
			<point x="253" y="261"/>
			<point x="257" y="284"/>
			<point x="259" y="290" type="curve"/>
			<point x="259" y="290"/>
			<point x="260" y="291"/>
			<point x="260" y="291" type="curve"/>
			<point x="269" y="336"/>
			<point x="322" y="378"/>
			<point x="344" y="394" type="curve"/>
			<point x="344" y="394" type="line"/>
			<point x="344" y="394"/>
			<point x="344" y="394"/>
			<point x="344" y="394" type="curve"/>
			<point x="345" y="396"/>
			<point x="347" y="397"/>
			<point x="348" y="397" type="curve"/>
			<point x="351" y="400"/>
			<point x="356" y="404"/>
			<point x="360" y="408" type="curve"/>
			<point x="360" y="409"/>
			<point x="361" y="410"/>
			<point x="362" y="411" type="curve"/>
			<point x="362" y="411"/>
			<point x="362" y="411"/>
			<point x="362" y="411" type="curve"/>
			<point x="389" y="443"/>
			<point x="403" y="483"/>
			<point x="403" y="523" type="curve"/>
			<point x="403" y="523" type="line"/>
			<point x="403" y="523"/>
			<point x="403" y="523"/>
		</contour>
	</outline>
</glyph>
<glyph name="at" format="2">
	<advance width="799"/>
	<unicode hex="0040"/>
	<outline>
		<contour>
			<point x="556" y="73" type="curve"/>
			<point x="556" y="73" type="line"/>
			<point x="556" y="73"/>
			<point x="556" y="73"/>
			<point x="556" y="73" type="curve"/>
			<point x="556" y="73"/>
			<point x="556" y="73"/>
		</contour>
		<contour>
			<point x="746" y="193" type="curve"/>
			<point x="746" y="193" type="line"/>
			<point x="750" y="223"/>
			<point x="749" y="247"/>
			<point x="749" y="250" type="curve"/>
			<point x="749" y="251" type="line"/>
			<point x="749" y="251" type="line"/>
			<point x="748" y="443"/>
			<point x="592" y="598"/>
			<point x="400" y="598" type="curve"/>
			<point x="207" y="598"/>
			<point x="50" y="441"/>
			<point x="50" y="248" type="curve"/>
			<point x="50" y="56"/>
			<point x="205" y="-100"/>
			<point x="397" y="-101" type="curve"/>
			<point x="397" y="-66" type="line"/>
			<point x="223" y="-65"/>
			<point x="82" y="76"/>
			<point x="82" y="250" type="curve"/>
			<point x="82" y="425"/>
			<point x="224" y="567"/>
			<point x="399" y="567" type="curve"/>
			<point x="573" y="567"/>
			<point x="715" y="425"/>
			<point x="715" y="251" type="curve"/>
			<point x="715" y="251" type="line"/>
			<point x="715" y="249" type="line"/>
			<point x="715" y="249"/>
			<point x="715" y="248"/>
			<point x="715" y="241" type="curve"/>
			<point x="715" y="230"/>
			<point x="715" y="208"/>
			<point x="714" y="191" type="curve"/>
			<point x="714" y="191" type="line"/>
			<point x="714" y="191"/>
			<point x="710" y="145"/>
			<point x="703" y="125" type="curve"/>
			<point x="701" y="119"/>
			<point x="700" y="117"/>
			<point x="695" y="107" type="curve"/>
			<point x="659" y="35"/>
			<point x="604" y="71"/>
			<point x="602" y="73" type="curve"/>
			<point x="602" y="73" type="line"/>
			<point x="571" y="104"/>
			<point x="554" y="146"/>
			<point x="551" y="188" type="curve"/>
			<point x="551" y="192"/>
			<point x="551" y="197"/>
			<point x="551" y="202" type="curve"/>
			<point x="551" y="240" type="line"/>
			<point x="551" y="243"/>
			<point x="551" y="245"/>
			<point x="551" y="248" type="curve"/>
			<point x="519" y="248" type="line"/>
			<point x="519" y="167"/>
			<point x="456" y="107"/>
			<point x="376" y="107" type="curve"/>
			<point x="296" y="107"/>
			<point x="235" y="171"/>
			<point x="235" y="251" type="curve"/>
			<point x="235" y="331"/>
			<point x="296" y="386"/>
			<point x="377" y="386" type="curve"/>
			<point x="377" y="386"/>
			<point x="376" y="393"/>
			<point x="377" y="393" type="curve"/>
			<point x="377" y="420" type="line"/>
			<point x="376" y="420"/>
			<point x="376" y="420"/>
			<point x="376" y="420" type="curve"/>
			<point x="280" y="420"/>
			<point x="201" y="344"/>
			<point x="201" y="248" type="curve"/>
			<point x="201" y="151"/>
			<point x="280" y="73"/>
			<point x="376" y="73" type="curve"/>
			<point x="436" y="73"/>
			<point x="490" y="103"/>
			<point x="521" y="149" type="curve"/>
			<point x="522" y="146"/>
			<point x="523" y="142"/>
			<point x="524" y="139" type="curve"/>
			<point x="531" y="115"/>
			<point x="541" y="93"/>
			<point x="556" y="73" type="curve"/>
			<point x="556" y="73" type="line"/>
			<point x="556" y="73"/>
			<point x="556" y="73"/>
			<point x="556" y="73" type="curve"/>
			<point x="556" y="73"/>
			<point x="556" y="73"/>
			<point x="556" y="73" type="curve"/>
			<point x="556" y="73"/>
			<point x="556" y="73"/>
			<point x="556" y="73" type="curve"/>
			<point x="556" y="73"/>
			<point x="556" y="73"/>
			<point x="556" y="73" type="curve"/>
			<point x="557" y="73"/>
			<point x="557" y="72"/>
			<point x="557" y="72" type="curve"/>
			<point x="557" y="72"/>
			<point x="557" y="72"/>
			<point x="557" y="72" type="curve"/>
			<point x="557" y="72"/>
			<point x="557" y="72"/>
			<point x="557" y="72" type="curve"/>
			<point x="557" y="72"/>
			<point x="557" y="72"/>
			<point x="557" y="72" type="curve"/>
			<point x="557" y="72"/>
			<point x="557" y="72"/>
			<point x="557" y="72" type="curve"/>
			<point x="558" y="72"/>
			<point x="558" y="72"/>
			<point x="558" y="71" type="curve"/>
			<point x="562" y="66"/>
			<point x="578" y="48"/>
			<point x="601" y="37" type="curve"/>
			<point x="611" y="32"/>
			<point x="622" y="29"/>
			<point x="633" y="29" type="curve"/>
			<point x="634" y="29"/>
			<point x="728" y="25"/>
			<point x="743" y="162" type="curve"/>
			<point x="745" y="176"/>
			<point x="746" y="188"/>
		</contour>
	</outline>
</glyph>
<glyph name="A" format="2">
	<advance width="563"/>
	<unicode hex="0041"/>
	<outline>
		<contour>
			<point x="471" y="0" type="curve"/>
			<point x="513" y="0" type="line"/>
			<point x="488" y="29"/>
			<point x="469" y="65"/>
			<point x="454" y="108" type="curve"/>
			<point x="431" y="180" type="line"/>
			<point x="335" y="494" type="line"/>
			<point x="335" y="494" type="line"/>
			<point x="325" y="528" type="line"/>
			<point x="325" y="528" type="line"/>
			<point x="279" y="680" type="line"/>
			<point x="279" y="680" type="line"/>
			<point x="273" y="700" type="line"/>
			<point x="243" y="700" type="line"/>
			<point x="201" y="563" type="line"/>
			<point x="190" y="528" type="line"/>
			<point x="190" y="528" type="line"/>
			<point x="180" y="494" type="line"/>
			<point x="180" y="494" type="line"/>
			<point x="30" y="0" type="line"/>
			<point x="65" y="0" type="line"/>
			<point x="215" y="494" type="line"/>
			<point x="216" y="494" type="line"/>
			<point x="226" y="528" type="line"/>
			<point x="226" y="528" type="line"/>
			<point x="258" y="633" type="line"/>
			<point x="290" y="528" type="line"/>
			<point x="300" y="494" type="line"/>
			<point x="337" y="373" type="line"/>
			<point x="258" y="338" type="line"/>
			<point x="258" y="303" type="line"/>
			<point x="258" y="303" type="line"/>
			<point x="346" y="342" type="line"/>
			<point x="423" y="89" type="line"/>
			<point x="423" y="89" type="line"/>
			<point x="433" y="56"/>
			<point x="449" y="25"/>
		</contour>
	</outline>
</glyph>
<glyph name="B" format="2">
	<advance width="514"/>
	<unicode hex="0042"/>
	<outline>
		<contour>
			<point x="354" y="350" type="curve"/>
			<point x="354" y="350" type="line"/>
			<point x="419" y="378"/>
			<point x="464" y="442"/>
			<point x="464" y="518" type="curve"/>
			<point x="464" y="618"/>
			<point x="382" y="700"/>
			<point x="282" y="700" type="curve"/>
			<point x="219" y="700"/>
			<point x="162" y="667"/>
			<point x="129" y="617" type="curve"/>
			<point x="123" y="647"/>
			<point x="112" y="675"/>
			<point x="94" y="700" type="curve"/>
			<point x="52" y="700" type="line"/>
			<point x="50" y="700" type="line"/>
			<point x="81" y="667"/>
			<point x="98" y="623"/>
			<point x="99" y="580" type="curve"/>
			<point x="99" y="571" type="line"/>
			<point x="99" y="458" type="line"/>
			<point x="99" y="0" type="line"/>
			<point x="100" y="0" type="line"/>
			<point x="100" y="0" type="line"/>
			<point x="282" y="0" type="line"/>
			<point x="282" y="0" type="line"/>
			<point x="282" y="0"/>
			<point x="282" y="0"/>
			<point x="282" y="0" type="curve"/>
			<point x="382" y="0"/>
			<point x="464" y="82"/>
			<point x="464" y="183" type="curve"/>
			<point x="464" y="258"/>
			<point x="419" y="322"/>
		</contour>
		<contour>
			<point x="282" y="34" type="curve"/>
			<point x="282" y="34" type="line"/>
			<point x="282" y="34"/>
			<point x="281" y="34"/>
			<point x="281" y="34" type="curve"/>
			<point x="281" y="34" type="line"/>
			<point x="236" y="34" type="line"/>
			<point x="222" y="34" type="line"/>
			<point x="159" y="34" type="line"/>
			<point x="145" y="34" type="line"/>
			<point x="133" y="34" type="line"/>
			<point x="133" y="152" type="line"/>
			<point x="133" y="197" type="line"/>
			<point x="133" y="409" type="line"/>
			<point x="133" y="455" type="line"/>
			<point x="133" y="522" type="line"/>
			<point x="135" y="604"/>
			<point x="200" y="666"/>
			<point x="282" y="666" type="curve"/>
			<point x="365" y="666"/>
			<point x="430" y="602"/>
			<point x="430" y="518" type="curve"/>
			<point x="430" y="434"/>
			<point x="366" y="367"/>
			<point x="283" y="367" type="curve"/>
			<point x="283" y="367"/>
			<point x="282" y="367"/>
			<point x="282" y="367" type="curve"/>
			<point x="282" y="333" type="line"/>
			<point x="282" y="333"/>
			<point x="282" y="333"/>
			<point x="282" y="333" type="curve"/>
			<point x="365" y="333"/>
			<point x="430" y="267"/>
			<point x="430" y="183" type="curve"/>
			<point x="430" y="99"/>
			<point x="365" y="34"/>
		</contour>
	</outline>
</glyph>
<glyph name="C" format="2">
	<advance width="799"/>
	<unicode hex="0043"/>
	<outline>
		<contour>
			<point x="749" y="347" type="curve"/>
			<point x="714" y="347" type="line"/>
			<point x="713" y="173"/>
			<point x="572" y="32"/>
			<point x="398" y="32" type="curve"/>
			<point x="223" y="32"/>
			<point x="81" y="174"/>
			<point x="81" y="349" type="curve"/>
			<point x="81" y="523"/>
			<point x="222" y="665"/>
			<point x="397" y="665" type="curve"/>
			<point x="397" y="699" type="line"/>
			<point x="205" y="698"/>
			<point x="50" y="542"/>
			<point x="50" y="350" type="curve"/>
			<point x="50" y="156"/>
			<point x="206" y="0"/>
			<point x="400" y="0" type="curve"/>
			<point x="592" y="0"/>
			<point x="748" y="155"/>
		</contour>
	</outline>
</glyph>
<glyph name="D" format="2">
	<advance width="592"/>
	<unicode hex="0044"/>
	<outline>
		<contour>
			<point x="50" y="0" type="line"/>
			<point x="50" y="0" type="line"/>
		</contour>
		<contour>
			<point x="208" y="700" type="curve"/>
			<point x="208" y="700" type="line"/>
			<point x="208" y="700" type="line"/>
			<point x="205" y="700"/>
			<point x="201" y="700"/>
			<point x="197" y="700" type="curve"/>
			<point x="197" y="700" type="line"/>
			<point x="108" y="700" type="line"/>
			<point x="108" y="700" type="line"/>
			<point x="92" y="700" type="line"/>
			<point x="92" y="126" type="line"/>
			<point x="91" y="82"/>
			<point x="71" y="44"/>
			<point x="50" y="0" type="curve"/>
			<point x="89" y="0" type="line"/>
			<point x="116" y="44"/>
			<point x="126" y="80"/>
			<point x="126" y="123" type="curve"/>
			<point x="126" y="123" type="line"/>
			<point x="126" y="267" type="line"/>
			<point x="126" y="310" type="line"/>
			<point x="126" y="512" type="line"/>
			<point x="126" y="556" type="line"/>
			<point x="126" y="665" type="line"/>
			<point x="130" y="665" type="line"/>
			<point x="137" y="665" type="line"/>
			<point x="168" y="665" type="line"/>
			<point x="175" y="665" type="line"/>
			<point x="175" y="665" type="line"/>
			<point x="175" y="665" type="line"/>
			<point x="208" y="665" type="line"/>
			<point x="208" y="665" type="line"/>
			<point x="376" y="657"/>
			<point x="510" y="518"/>
			<point x="510" y="348" type="curve"/>
			<point x="510" y="173"/>
			<point x="368" y="31"/>
			<point x="193" y="31" type="curve"/>
			<point x="187" y="31"/>
			<point x="181" y="31"/>
			<point x="175" y="32" type="curve"/>
			<point x="175" y="0" type="line"/>
			<point x="181" y="0"/>
			<point x="187" y="0"/>
			<point x="192" y="0" type="curve"/>
			<point x="385" y="0"/>
			<point x="542" y="157"/>
			<point x="542" y="350" type="curve"/>
			<point x="542" y="538"/>
			<point x="394" y="692"/>
		</contour>
	</outline>
</glyph>
<glyph name="E" format="2">
	<advance width="583"/>
	<unicode hex="0045"/>
	<outline>
		<contour>
			<point x="204" y="474" type="line"/>
			<point x="204" y="571" type="line"/>
			<point x="204" y="666" type="line"/>
			<point x="439" y="666" type="line"/>
			<point x="503" y="666" type="line"/>
			<point x="526" y="666" type="line"/>
			<point x="533" y="666" type="line"/>
			<point x="533" y="700" type="line"/>
			<point x="204" y="700" type="line"/>
			<point x="170" y="700" type="line"/>
			<point x="170" y="700" type="line"/>
			<point x="128" y="699"/>
			<point x="85" y="686"/>
			<point x="50" y="661" type="curve"/>
			<point x="50" y="619" type="line"/>
			<point x="50" y="617" type="line"/>
			<point x="83" y="648"/>
			<point x="127" y="665"/>
			<point x="170" y="666" type="curve"/>
			<point x="170" y="666" type="line"/>
			<point x="170" y="34" type="line"/>
			<point x="170" y="3" type="line"/>
			<point x="170" y="0" type="line"/>
			<point x="503" y="0" type="line"/>
			<point x="533" y="0" type="line"/>
			<point x="533" y="34" type="line"/>
			<point x="503" y="34" type="line"/>
			<point x="439" y="34" type="line"/>
			<point x="204" y="34" type="line"/>
			<point x="204" y="295" type="line"/>
			<point x="361" y="364" type="line"/>
			<point x="361" y="400" type="line"/>
			<point x="361" y="400" type="line"/>
			<point x="204" y="331" type="line"/>
			<point x="204" y="333" type="line"/>
			<point x="204" y="333" type="line"/>
			<point x="204" y="367" type="line"/>
			<point x="204" y="367" type="line"/>
			<point x="204" y="474" type="line"/>
		</contour>
	</outline>
</glyph>
<glyph name="F" format="2">
	<advance width="534"/>
	<unicode hex="0046"/>
	<outline>
		<contour>
			<point x="484" y="700" type="line"/>
			<point x="155" y="700" type="line"/>
			<point x="121" y="700" type="line"/>
			<point x="121" y="700" type="line"/>
			<point x="78" y="699"/>
			<point x="36" y="686"/>
			<point x="0" y="661" type="curve"/>
			<point x="0" y="619" type="line"/>
			<point x="0" y="617" type="line"/>
			<point x="33" y="648"/>
			<point x="77" y="665"/>
			<point x="121" y="666" type="curve"/>
			<point x="121" y="666" type="line"/>
			<point x="121" y="34" type="line"/>
			<point x="121" y="3" type="line"/>
			<point x="121" y="0" type="line"/>
			<point x="155" y="0" type="line"/>
			<point x="155" y="34" type="line"/>
			<point x="155" y="34" type="line"/>
			<point x="155" y="295" type="line"/>
			<point x="312" y="364" type="line"/>
			<point x="312" y="400" type="line"/>
			<point x="312" y="400" type="line"/>
			<point x="155" y="331" type="line"/>
			<point x="155" y="333" type="line"/>
			<point x="155" y="333" type="line"/>
			<point x="155" y="367" type="line"/>
			<point x="155" y="367" type="line"/>
			<point x="155" y="474" type="line"/>
			<point x="155" y="474" type="line"/>
			<point x="155" y="571" type="line"/>
			<point x="155" y="571" type="line"/>
			<point x="155" y="666" type="line"/>
			<point x="390" y="666" type="line"/>
			<point x="454" y="666" type="line"/>
			<point x="477" y="666" type="line"/>
			<point x="484" y="666" type="line"/>
		</contour>
	</outline>
</glyph>
<glyph name="G" format="2">
	<advance width="463"/>
	<unicode hex="0047"/>
	<outline>
		<contour>
			<point x="413" y="0" type="curve"/>
			<point x="413" y="214" type="line"/>
			<point x="414" y="260"/>
			<point x="402" y="307"/>
			<point x="377" y="346" type="curve"/>
			<point x="342" y="346" type="line"/>
			<point x="362" y="301"/>
			<point x="381" y="264"/>
			<point x="381" y="218" type="curve"/>
			<point x="381" y="216" type="line"/>
			<point x="381" y="216" type="line"/>
			<point x="383" y="33" type="line"/>
			<point x="216" y="42"/>
			<point x="84" y="180"/>
			<point x="84" y="349" type="curve"/>
			<point x="84" y="349" type="line"/>
			<point x="84" y="349"/>
			<point x="84" y="350"/>
			<point x="84" y="351" type="curve"/>
			<point x="84" y="526"/>
			<point x="224" y="667"/>
			<point x="398" y="669" type="curve"/>
			<point x="398" y="700" type="line"/>
			<point x="206" y="699"/>
			<point x="50" y="543"/>
			<point x="50" y="350" type="curve"/>
			<point x="50" y="157"/>
			<point x="206" y="0"/>
			<point x="399" y="0" type="curve"/>
			<point x="404" y="0"/>
			<point x="409" y="0"/>
		</contour>
		<contour>
			<point x="342" y="346" type="curve"/>
			<point x="342" y="346" type="line"/>
			<point x="342" y="346" type="line"/>
			<point x="342" y="346"/>
			<point x="342" y="346"/>
		</contour>
	</outline>
</glyph>
<glyph name="H" format="2">
	<advance width="463"/>
	<unicode hex="0048"/>
	<outline>
		<contour>
			<point x="413" y="700" type="line"/>
			<point x="379" y="700" type="line"/>
			<point x="379" y="423" type="line"/>
			<point x="83" y="292" type="line"/>
			<point x="83" y="387" type="line"/>
			<point x="83" y="430" type="line"/>
			<point x="83" y="573" type="line"/>
			<point x="83" y="573" type="line"/>
			<point x="83" y="618"/>
			<point x="71" y="662"/>
			<point x="44" y="700" type="curve"/>
			<point x="2" y="700" type="line"/>
			<point x="0" y="700" type="line"/>
			<point x="33" y="665"/>
			<point x="50" y="618"/>
			<point x="49" y="573" type="curve"/>
			<point x="49" y="573" type="line"/>
			<point x="49" y="571" type="line"/>
			<point x="49" y="458" type="line"/>
			<point x="49" y="0" type="line"/>
			<point x="83" y="0" type="line"/>
			<point x="83" y="143" type="line"/>
			<point x="83" y="187" type="line"/>
			<point x="83" y="256" type="line"/>
			<point x="150" y="287" type="line"/>
			<point x="379" y="388" type="line"/>
			<point x="379" y="0" type="line"/>
			<point x="413" y="0" type="line"/>
			<point x="413" y="175" type="line"/>
			<point x="413" y="228" type="line"/>
			<point x="413" y="473" type="line"/>
			<point x="413" y="525" type="line"/>
		</contour>
	</outline>
</glyph>
<glyph name="J" format="2">
	<advance width="280"/>
	<unicode hex="004A"/>
	<outline>
		<contour>
			<point x="230" y="700" type="line"/>
			<point x="195" y="700" type="line"/>
			<point x="195" y="457" type="line"/>
			<point x="195" y="279" type="line"/>
			<point x="195" y="192" type="line"/>
			<point x="195" y="174" type="line"/>
			<point x="195" y="170" type="line"/>
			<point x="195" y="160"/>
			<point x="193" y="137"/>
			<point x="181" y="113" type="curve"/>
			<point x="181" y="113" type="line"/>
			<point x="157" y="66"/>
			<point x="107" y="33"/>
			<point x="50" y="33" type="curve"/>
			<point x="50" y="0" type="line"/>
			<point x="100" y="0"/>
			<point x="145" y="20"/>
			<point x="177" y="52" type="curve"/>
			<point x="177" y="52" type="line"/>
			<point x="177" y="52"/>
			<point x="228" y="99"/>
			<point x="230" y="153" type="curve"/>
			<point x="230" y="154"/>
			<point x="230" y="154"/>
			<point x="230" y="155" type="curve"/>
			<point x="230" y="175" type="line"/>
			<point x="230" y="227" type="line"/>
			<point x="230" y="472" type="line"/>
			<point x="230" y="525" type="line"/>
		</contour>
	</outline>
</glyph>
<glyph name="K" format="2">
	<advance width="606"/>
	<unicode hex="004B"/>
	<outline>
		<contour>
			<point x="212" y="284" type="line"/>
			<point x="556" y="700" type="line"/>
			<point x="556" y="700" type="line"/>
			<point x="509" y="700" type="line"/>
			<point x="187" y="304" type="line"/>
			<point x="133" y="349" type="line"/>
			<point x="133" y="387" type="line"/>
			<point x="133" y="430" type="line"/>
			<point x="133" y="573" type="line"/>
			<point x="133" y="573" type="line"/>
			<point x="133" y="618"/>
			<point x="120" y="662"/>
			<point x="94" y="700" type="curve"/>
			<point x="52" y="700" type="line"/>
			<point x="50" y="700" type="line"/>
			<point x="83" y="665"/>
			<point x="100" y="618"/>
			<point x="99" y="573" type="curve"/>
			<point x="99" y="573" type="line"/>
			<point x="99" y="571" type="line"/>
			<point x="99" y="458" type="line"/>
			<point x="99" y="0" type="line"/>
			<point x="133" y="0" type="line"/>
			<point x="133" y="143" type="line"/>
			<point x="133" y="187" type="line"/>
			<point x="133" y="302" type="line"/>
			<point x="505" y="0" type="line"/>
			<point x="556" y="0" type="line"/>
		</contour>
	</outline>
</glyph>
<glyph name="L" format="2">
	<advance width="512"/>
	<unicode hex="004C"/>
	<outline>
		<contour>
			<point x="462" y="34" type="line"/>
			<point x="448" y="34" type="line"/>
			<point x="416" y="34" type="line"/>
			<point x="355" y="34" type="line"/>
			<point x="134" y="34" type="line"/>
			<point x="134" y="178" type="line"/>
			<point x="134" y="367" type="line"/>
			<point x="134" y="522" type="line"/>
			<point x="134" y="580" type="line"/>
			<point x="134" y="580" type="line"/>
			<point x="133" y="622"/>
			<point x="120" y="664"/>
			<point x="95" y="700" type="curve"/>
			<point x="53" y="700" type="line"/>
			<point x="50" y="700" type="line"/>
			<point x="84" y="665"/>
			<point x="99" y="618"/>
			<point x="100" y="572" type="curve"/>
			<point x="100" y="519" type="line"/>
			<point x="100" y="34" type="line"/>
			<point x="100" y="3" type="line"/>
			<point x="100" y="0" type="line"/>
			<point x="416" y="0" type="line"/>
			<point x="448" y="0" type="line"/>
			<point x="462" y="0" type="line"/>
		</contour>
	</outline>
</glyph>
<glyph name="M" format="2">
	<advance width="680"/>
	<unicode hex="004D"/>
	<outline>
		<contour>
			<point x="630" y="0" type="line"/>
			<point x="592" y="130" type="line"/>
			<point x="571" y="201" type="line"/>
			<point x="473" y="537" type="line"/>
			<point x="452" y="610" type="line"/>
			<point x="426" y="700" type="line"/>
			<point x="426" y="700" type="line"/>
			<point x="390" y="700" type="line"/>
			<point x="390" y="700" type="line"/>
			<point x="305" y="407" type="line"/>
			<point x="267" y="537" type="line"/>
			<point x="246" y="610" type="line"/>
			<point x="220" y="700" type="line"/>
			<point x="220" y="700" type="line"/>
			<point x="184" y="700" type="line"/>
			<point x="184" y="700" type="line"/>
			<point x="-1" y="63" type="line"/>
			<point x="-2" y="63" type="line"/>
			<point x="-9" y="40"/>
			<point x="-33" y="18"/>
			<point x="-50" y="0" type="curve"/>
			<point x="-36" y="0" type="line"/>
			<point x="-20" y="0" type="line"/>
			<point x="-19" y="0" type="line"/>
			<point x="-5" y="0" type="line"/>
			<point x="10" y="17"/>
			<point x="28" y="41"/>
			<point x="34" y="63" type="curve"/>
			<point x="34" y="63" type="line"/>
			<point x="51" y="121" type="line"/>
			<point x="72" y="193" type="line"/>
			<point x="170" y="529" type="line"/>
			<point x="191" y="601" type="line"/>
			<point x="202" y="639" type="line"/>
			<point x="287" y="347" type="line"/>
			<point x="323" y="347" type="line"/>
			<point x="376" y="529" type="line"/>
			<point x="397" y="601" type="line"/>
			<point x="408" y="639" type="line"/>
			<point x="594" y="0" type="line"/>
		</contour>
	</outline>
</glyph>
<glyph name="O" format="2">
	<advance width="729"/>
	<unicode hex="004F"/>
	<outline>
		<contour>
			<point x="330" y="700" type="curve"/>
			<point x="330" y="700" type="line"/>
			<point x="137" y="700"/>
			<point x="-20" y="543"/>
			<point x="-20" y="350" type="curve"/>
			<point x="-20" y="156"/>
			<point x="137" y="0"/>
			<point x="330" y="0" type="curve"/>
			<point x="523" y="0"/>
			<point x="679" y="156"/>
			<point x="679" y="350" type="curve"/>
			<point x="679" y="543"/>
			<point x="523" y="700"/>
		</contour>
		<contour>
			<point x="515" y="91" type="curve"/>
			<point x="515" y="91" type="line"/>
			<point x="463" y="54"/>
			<point x="400" y="32"/>
			<point x="331" y="32" type="curve"/>
			<point x="156" y="32"/>
			<point x="15" y="173"/>
			<point x="14" y="348" type="curve"/>
			<point x="15" y="348" type="line"/>
			<point x="15" y="349"/>
			<point x="14" y="350"/>
			<point x="14" y="351" type="curve"/>
			<point x="14" y="526"/>
			<point x="157" y="668"/>
			<point x="332" y="668" type="curve"/>
			<point x="507" y="668"/>
			<point x="649" y="526"/>
			<point x="649" y="351" type="curve"/>
			<point x="649" y="243"/>
			<point x="596" y="149"/>
		</contour>
	</outline>
</glyph>
<glyph name="Q" format="2">
	<advance width="829"/>
	<unicode hex="0051"/>
	<outline>
		<contour>
			<point x="677" y="24" type="line"/>
			<point x="678" y="23" type="line"/>
			<point x="711" y="38" type="line"/>
			<point x="647" y="103" type="line"/>
			<point x="710" y="166"/>
			<point x="749" y="253"/>
			<point x="749" y="350" type="curve"/>
			<point x="749" y="543"/>
			<point x="592" y="699"/>
			<point x="399" y="699" type="curve"/>
			<point x="206" y="699"/>
			<point x="50" y="543"/>
			<point x="50" y="350" type="curve"/>
			<point x="50" y="156"/>
			<point x="206" y="0"/>
			<point x="399" y="0" type="curve"/>
			<point x="400" y="0"/>
			<point x="401" y="0"/>
			<point x="401" y="0" type="curve"/>
			<point x="401" y="32" type="line"/>
			<point x="401" y="32"/>
			<point x="401" y="32"/>
			<point x="400" y="32" type="curve"/>
			<point x="226" y="32"/>
			<point x="84" y="173"/>
			<point x="84" y="348" type="curve"/>
			<point x="84" y="348" type="line"/>
			<point x="84" y="349"/>
			<point x="84" y="350"/>
			<point x="84" y="351" type="curve"/>
			<point x="84" y="526"/>
			<point x="226" y="668"/>
			<point x="401" y="668" type="curve"/>
			<point x="577" y="668"/>
			<point x="719" y="526"/>
			<point x="719" y="351" type="curve"/>
			<point x="719" y="250"/>
			<point x="672" y="160"/>
			<point x="599" y="102" type="curve"/>
			<point x="677" y="24" type="line"/>
		</contour>
		<contour>
			<point x="711" y="38" type="curve"/>
			<point x="711" y="38" type="line"/>
			<point x="678" y="23" type="line"/>
			<point x="685" y="15"/>
			<point x="695" y="7"/>
			<point x="705" y="0" type="curve"/>
			<point x="779" y="0" type="line"/>
			<point x="756" y="10"/>
			<point x="727" y="20"/>
		</contour>
	</outline>
</glyph>
<glyph name="R" format="2">
	<advance width="514"/>
	<unicode hex="0052"/>
	<outline>
		<contour>
			<point x="464" y="0" type="line"/>
			<point x="133" y="350" type="line"/>
			<point x="133" y="409" type="line"/>
			<point x="133" y="455" type="line"/>
			<point x="133" y="507" type="line"/>
			<point x="133" y="512"/>
			<point x="133" y="517"/>
			<point x="133" y="523" type="curve"/>
			<point x="133" y="604"/>
			<point x="196" y="666"/>
			<point x="277" y="666" type="curve"/>
			<point x="357" y="666"/>
			<point x="418" y="604"/>
			<point x="418" y="523" type="curve"/>
			<point x="418" y="442"/>
			<point x="357" y="381"/>
			<point x="277" y="381" type="curve"/>
			<point x="276" y="381"/>
			<point x="276" y="381"/>
			<point x="276" y="381" type="curve"/>
			<point x="276" y="347" type="line"/>
			<point x="314" y="348"/>
			<point x="344" y="360"/>
			<point x="346" y="361" type="curve"/>
			<point x="346" y="361"/>
			<point x="346" y="361"/>
			<point x="346" y="361" type="curve"/>
			<point x="408" y="389"/>
			<point x="452" y="451"/>
			<point x="452" y="523" type="curve"/>
			<point x="452" y="621"/>
			<point x="373" y="700"/>
			<point x="277" y="700" type="curve"/>
			<point x="215" y="700"/>
			<point x="160" y="668"/>
			<point x="128" y="620" type="curve"/>
			<point x="123" y="649"/>
			<point x="111" y="676"/>
			<point x="94" y="700" type="curve"/>
			<point x="52" y="700" type="line"/>
			<point x="50" y="700" type="line"/>
			<point x="81" y="667"/>
			<point x="98" y="623"/>
			<point x="99" y="580" type="curve"/>
			<point x="99" y="571" type="line"/>
			<point x="99" y="523" type="line"/>
			<point x="99" y="518"/>
			<point x="99" y="512"/>
			<point x="99" y="507" type="curve"/>
			<point x="99" y="458" type="line"/>
			<point x="99" y="0" type="line"/>
			<point x="133" y="0" type="line"/>
			<point x="133" y="152" type="line"/>
			<point x="133" y="197" type="line"/>
			<point x="133" y="303" type="line"/>
			<point x="424" y="0" type="line"/>
		</contour>
	</outline>
</glyph>
<glyph name="S" format="2">
	<advance width="582"/>
	<unicode hex="0053"/>
	<outline>
		<contour>
			<point x="311" y="451" type="curve"/>
			<point x="311" y="451" type="line"/>
			<point x="311" y="451" type="line"/>
			<point x="252" y="451"/>
			<point x="203" y="499"/>
			<point x="203" y="559" type="curve"/>
			<point x="203" y="618"/>
			<point x="252" y="666"/>
			<point x="311" y="666" type="curve"/>
			<point x="370" y="666"/>
			<point x="419" y="618"/>
			<point x="419" y="559" type="curve"/>
			<point x="453" y="559" type="line"/>
			<point x="453" y="637"/>
			<point x="389" y="700"/>
			<point x="311" y="700" type="curve"/>
			<point x="233" y="700"/>
			<point x="170" y="637"/>
			<point x="170" y="559" type="curve"/>
			<point x="170" y="480"/>
			<point x="233" y="417"/>
			<point x="311" y="417" type="curve"/>
			<point x="414" y="415"/>
			<point x="496" y="329"/>
			<point x="496" y="226" type="curve"/>
			<point x="496" y="121"/>
			<point x="411" y="36"/>
			<point x="307" y="36" type="curve"/>
			<point x="224" y="36"/>
			<point x="154" y="89"/>
			<point x="128" y="163" type="curve"/>
			<point x="128" y="163" type="line"/>
			<point x="121" y="185"/>
			<point x="104" y="209"/>
			<point x="88" y="226" type="curve"/>
			<point x="57" y="226" type="line"/>
			<point x="50" y="226" type="line"/>
			<point x="66" y="207"/>
			<point x="82" y="186"/>
			<point x="90" y="164" type="curve"/>
			<point x="117" y="69"/>
			<point x="203" y="0"/>
			<point x="307" y="0" type="curve"/>
			<point x="431" y="0"/>
			<point x="532" y="101"/>
			<point x="532" y="226" type="curve"/>
			<point x="532" y="349"/>
			<point x="433" y="449"/>
		</contour>
	</outline>
</glyph>
<glyph name="T" format="2">
	<advance width="483"/>
	<unicode hex="0054"/>
	<outline>
		<contour>
			<point x="433" y="700" type="line"/>
			<point x="254" y="700" type="line"/>
			<point x="227" y="700" type="line"/>
			<point x="227" y="700" type="line"/>
			<point x="169" y="700" type="line"/>
			<point x="169" y="700" type="line"/>
			<point x="127" y="699"/>
			<point x="86" y="686"/>
			<point x="50" y="661" type="curve"/>
			<point x="50" y="619" type="line"/>
			<point x="50" y="617" type="line"/>
			<point x="83" y="648"/>
			<point x="127" y="665"/>
			<point x="170" y="666" type="curve"/>
			<point x="223" y="666" type="line"/>
			<point x="223" y="305" type="line"/>
			<point x="223" y="34" type="line"/>
			<point x="223" y="0" type="line"/>
			<point x="257" y="0" type="line"/>
			<point x="257" y="34" type="line"/>
			<point x="257" y="351" type="line"/>
			<point x="257" y="666" type="line"/>
			<point x="433" y="666" type="line"/>
			<point x="433" y="666" type="line"/>
			<point x="433" y="700" type="line"/>
		</contour>
	</outline>
</glyph>
<glyph name="U" format="2">
	<advance width="606"/>
	<unicode hex="0055"/>
	<outline>
		<contour>
			<point x="556" y="348" type="curve"/>
			<point x="556" y="348" type="line"/>
			<point x="556" y="348" type="line"/>
			<point x="556" y="700" type="line"/>
			<point x="522" y="700" type="line"/>
			<point x="522" y="348" type="line"/>
			<point x="522" y="348" type="line"/>
			<point x="522" y="348"/>
			<point x="522" y="348"/>
			<point x="522" y="347" type="curve"/>
			<point x="522" y="347" type="line"/>
			<point x="522" y="346"/>
			<point x="522" y="345"/>
			<point x="522" y="343" type="curve"/>
			<point x="522" y="178"/>
			<point x="435" y="34"/>
			<point x="328" y="34" type="curve"/>
			<point x="221" y="34"/>
			<point x="133" y="178"/>
			<point x="133" y="343" type="curve"/>
			<point x="133" y="345"/>
			<point x="133" y="346"/>
			<point x="133" y="347" type="curve"/>
			<point x="133" y="348"/>
			<point x="133" y="348"/>
			<point x="133" y="348" type="curve"/>
			<point x="133" y="406" type="line"/>
			<point x="133" y="423" type="line"/>
			<point x="133" y="505" type="line"/>
			<point x="133" y="523" type="line"/>
			<point x="133" y="581" type="line"/>
			<point x="133" y="581" type="line"/>
			<point x="132" y="623"/>
			<point x="119" y="665"/>
			<point x="95" y="700" type="curve"/>
			<point x="52" y="700" type="line"/>
			<point x="50" y="700" type="line"/>
			<point x="81" y="667"/>
			<point x="98" y="623"/>
			<point x="99" y="580" type="curve"/>
			<point x="99" y="571" type="line"/>
			<point x="99" y="459" type="line"/>
			<point x="99" y="347" type="line"/>
			<point x="99" y="347" type="line"/>
			<point x="99" y="347"/>
			<point x="99" y="347"/>
			<point x="99" y="347" type="curve"/>
			<point x="99" y="155"/>
			<point x="202" y="0"/>
			<point x="328" y="0" type="curve"/>
			<point x="454" y="0"/>
			<point x="556" y="155"/>
			<point x="556" y="347" type="curve"/>
			<point x="556" y="347"/>
			<point x="556" y="347"/>
			<point x="556" y="347" type="curve"/>
			<point x="556" y="347" type="line"/>
			<point x="556" y="348"/>
			<point x="556" y="348"/>
		</contour>
	</outline>
</glyph>
<glyph name="V" format="2">
	<advance width="583"/>
	<unicode hex="0056"/>
	<outline>
		<contour>
			<point x="533" y="700" type="line"/>
			<point x="500" y="700" type="line"/>
			<point x="305" y="45" type="line"/>
			<point x="128" y="637" type="line"/>
			<point x="128" y="637" type="line"/>
			<point x="122" y="659"/>
			<point x="105" y="683"/>
			<point x="89" y="700" type="curve"/>
			<point x="58" y="700" type="line"/>
			<point x="50" y="700" type="line"/>
			<point x="67" y="682"/>
			<point x="88" y="660"/>
			<point x="96" y="637" type="curve"/>
			<point x="96" y="637" type="line"/>
			<point x="289" y="1" type="line"/>
			<point x="289" y="0" type="line"/>
			<point x="321" y="0" type="line"/>
			<point x="321" y="0" type="line"/>
			<point x="321" y="0" type="line"/>
			<point x="321" y="0" type="line"/>
			<point x="321" y="0" type="line"/>
		</contour>
	</outline>
</glyph>
<glyph name="X" format="2">
	<advance width="635"/>
	<unicode hex="0058"/>
	<outline>
		<contour>
			<point x="501" y="71" type="curve"/>
			<point x="501" y="71" type="line"/>
			<point x="466" y="123" type="line"/>
			<point x="329" y="352" type="line"/>
			<point x="539" y="700" type="line"/>
			<point x="500" y="700" type="line"/>
			<point x="311" y="383" type="line"/>
			<point x="158" y="639" type="line"/>
			<point x="145" y="662"/>
			<point x="129" y="683"/>
			<point x="110" y="700" type="curve"/>
			<point x="50" y="700" type="line"/>
			<point x="79" y="685"/>
			<point x="104" y="662"/>
			<point x="121" y="635" type="curve"/>
			<point x="124" y="631" type="line"/>
			<point x="292" y="352" type="line"/>
			<point x="82" y="0" type="line"/>
			<point x="117" y="0" type="line"/>
			<point x="311" y="321" type="line"/>
			<point x="464" y="67" type="line"/>
			<point x="468" y="60"/>
			<point x="472" y="54"/>
			<point x="476" y="47" type="curve"/>
			<point x="477" y="45" type="line"/>
			<point x="477" y="45" type="line"/>
			<point x="489" y="28"/>
			<point x="503" y="13"/>
			<point x="519" y="0" type="curve"/>
			<point x="585" y="0" type="line"/>
			<point x="550" y="15"/>
			<point x="520" y="40"/>
		</contour>
	</outline>
</glyph>
<glyph name="Z" format="2">
	<advance width="557"/>
	<unicode hex="005A"/>
	<outline>
		<contour>
			<point x="383" y="34" type="curve"/>
			<point x="383" y="34" type="line"/>
			<point x="378" y="34" type="line"/>
			<point x="266" y="34" type="line"/>
			<point x="114" y="34" type="line"/>
			<point x="506" y="700" type="line"/>
			<point x="506" y="700" type="line"/>
			<point x="507" y="700" type="line"/>
			<point x="418" y="700" type="line"/>
			<point x="415" y="700" type="line"/>
			<point x="393" y="700" type="line"/>
			<point x="359" y="700" type="line"/>
			<point x="326" y="700" type="line"/>
			<point x="324" y="700" type="line"/>
			<point x="299" y="700" type="line"/>
			<point x="297" y="700" type="line"/>
			<point x="200" y="700" type="line"/>
			<point x="170" y="700" type="line"/>
			<point x="169" y="700" type="line"/>
			<point x="165" y="700" type="line"/>
			<point x="142" y="700" type="line"/>
			<point x="142" y="700" type="line"/>
			<point x="51" y="700" type="line"/>
			<point x="50" y="700" type="line"/>
			<point x="50" y="666" type="line"/>
			<point x="398" y="666" type="line"/>
			<point x="398" y="666" type="line"/>
			<point x="401" y="666" type="line"/>
			<point x="401" y="666" type="line"/>
			<point x="445" y="666" type="line"/>
			<point x="73" y="34" type="line"/>
			<point x="72" y="34" type="line"/>
			<point x="52" y="0" type="line"/>
			<point x="52" y="0" type="line"/>
			<point x="93" y="0" type="line"/>
			<point x="197" y="0" type="line"/>
			<point x="239" y="0" type="line"/>
			<point x="383" y="0" type="line"/>
			<point x="383" y="0" type="line"/>
			<point x="427" y="0"/>
			<point x="470" y="13"/>
			<point x="507" y="39" type="curve"/>
			<point x="507" y="81" type="line"/>
			<point x="507" y="83" type="line"/>
			<point x="473" y="51"/>
			<point x="428" y="34"/>
		</contour>
	</outline>
</glyph>
<glyph name="bracketleft" format="2">
	<advance width="187"/>
	<unicode hex="005B"/>
	<outline>
		<contour>
			<point x="84" y="175" type="line"/>
			<point x="84" y="228" type="line"/>
			<point x="84" y="473" type="line"/>
			<point x="84" y="525" type="line"/>
			<point x="84" y="666" type="line"/>
			<point x="86" y="666" type="line"/>
			<point x="91" y="666" type="line"/>
			<point x="115" y="666" type="line"/>
			<point x="120" y="666" type="line"/>
			<point x="137" y="666" type="line"/>
			<point x="137" y="700" type="line"/>
			<point x="69" y="700" type="line"/>
			<point x="69" y="700" type="line"/>
			<point x="50" y="700" type="line"/>
			<point x="50" y="0" type="line"/>
			<point x="84" y="0" type="line"/>
			<point x="84" y="0" type="line"/>
			<point x="86" y="0" type="line"/>
			<point x="91" y="0" type="line"/>
			<point x="115" y="0" type="line"/>
			<point x="120" y="0" type="line"/>
			<point x="137" y="0" type="line"/>
			<point x="137" y="34" type="line"/>
			<point x="84" y="34" type="line"/>
		</contour>
	</outline>
</glyph>
<glyph name="backslash" format="2">
	<advance width="554"/>
	<unicode hex="005C"/>
	<outline>
		<contour>
			<point x="463" y="0" type="line"/>
			<point x="504" y="0" type="line"/>
			<point x="92" y="700" type="line"/>
			<point x="50" y="700" type="line"/>
		</contour>
	</outline>
</glyph>
<glyph name="bracketright" format="2">
	<advance width="187"/>
	<unicode hex="005D"/>
	<outline>
		<contour>
			<point x="137" y="700" type="line"/>
			<point x="118" y="700" type="line"/>
			<point x="118" y="700" type="line"/>
			<point x="50" y="700" type="line"/>
			<point x="50" y="666" type="line"/>
			<point x="67" y="666" type="line"/>
			<point x="72" y="666" type="line"/>
			<point x="96" y="666" type="line"/>
			<point x="101" y="666" type="line"/>
			<point x="103" y="666" type="line"/>
			<point x="103" y="525" type="line"/>
			<point x="103" y="473" type="line"/>
			<point x="103" y="228" type="line"/>
			<point x="103" y="175" type="line"/>
			<point x="103" y="34" type="line"/>
			<point x="50" y="34" type="line"/>
			<point x="50" y="0" type="line"/>
			<point x="67" y="0" type="line"/>
			<point x="72" y="0" type="line"/>
			<point x="96" y="0" type="line"/>
			<point x="101" y="0" type="line"/>
			<point x="103" y="0" type="line"/>
			<point x="103" y="0" type="line"/>
			<point x="137" y="0" type="line"/>
		</contour>
	</outline>
</glyph>
<glyph name="asciicircum" format="2">
	<advance width="472"/>
	<unicode hex="005E"/>
	<outline>
		<contour>
			<point x="381" y="410" type="line"/>
			<point x="422" y="410" type="line"/>
			<point x="258" y="700" type="line"/>
			<point x="236" y="700" type="line"/>
			<point x="214" y="700" type="line"/>
			<point x="50" y="410" type="line"/>
			<point x="91" y="410" type="line"/>
			<point x="236" y="667" type="line"/>
		</contour>
	</outline>
</glyph>
<glyph name="underscore" format="2">
	<advance width="400"/>
	<unicode hex="005F"/>
	<outline>
		<contour>
			<point x="350" y="-46" type="line"/>
			<point x="238" y="-46" type="line"/>
			<point x="162" y="-46" type="line"/>
			<point x="50" y="-46" type="line"/>
			<point x="50" y="-80" type="line"/>
			<point x="97" y="-80" type="line"/>
			<point x="111" y="-80" type="line"/>
			<point x="162" y="-80" type="line"/>
			<point x="177" y="-80" type="line"/>
			<point x="191" y="-80" type="line"/>
			<point x="209" y="-80" type="line"/>
			<point x="223" y="-80" type="line"/>
			<point x="238" y="-80" type="line"/>
			<point x="289" y="-80" type="line"/>
			<point x="303" y="-80" type="line"/>
			<point x="350" y="-80" type="line"/>
		</contour>
	</outline>
</glyph>
<glyph name="grave" format="2">
	<advance width="183"/>
	<unicode hex="0060"/>
	<outline>
		<contour>
			<point x="50" y="727" type="line"/>
			<point x="99" y="558" type="line"/>
			<point x="133" y="558" type="line"/>
			<point x="94" y="727" type="line"/>
		</contour>
	</outline>
</glyph>
<glyph name="a" format="2">
	<advance width="481"/>
	<unicode hex="0061"/>
	<outline>
		<contour>
			<point x="380" y="115" type="curve"/>
			<point x="380" y="115" type="line"/>
			<point x="380" y="119"/>
			<point x="380" y="124"/>
			<point x="380" y="129" type="curve"/>
			<point x="380" y="167" type="line"/>
			<point x="380" y="169"/>
			<point x="380" y="172"/>
			<point x="380" y="174" type="curve"/>
			<point x="348" y="174" type="line"/>
			<point x="348" y="94"/>
			<point x="285" y="34"/>
			<point x="205" y="34" type="curve"/>
			<point x="125" y="34"/>
			<point x="63" y="97"/>
			<point x="63" y="178" type="curve"/>
			<point x="63" y="258"/>
			<point x="125" y="316"/>
			<point x="205" y="316" type="curve"/>
			<point x="205" y="316"/>
			<point x="205" y="320"/>
			<point x="205" y="320" type="curve"/>
			<point x="205" y="350" type="line"/>
			<point x="205" y="350"/>
			<point x="205" y="350"/>
			<point x="205" y="350" type="curve"/>
			<point x="108" y="350"/>
			<point x="30" y="271"/>
			<point x="30" y="175" type="curve"/>
			<point x="30" y="78"/>
			<point x="108" y="0"/>
			<point x="205" y="0" type="curve"/>
			<point x="265" y="0"/>
			<point x="318" y="30"/>
			<point x="350" y="76" type="curve"/>
			<point x="351" y="73"/>
			<point x="352" y="69"/>
			<point x="353" y="66" type="curve"/>
			<point x="359" y="42"/>
			<point x="370" y="20"/>
			<point x="385" y="0" type="curve"/>
			<point x="430" y="0" type="line"/>
			<point x="431" y="1" type="line"/>
			<point x="399" y="32"/>
			<point x="382" y="73"/>
		</contour>
	</outline>
</glyph>
<glyph name="b" format="2">
	<advance width="499"/>
	<unicode hex="0062"/>
	<outline>
		<contour>
			<point x="274" y="350" type="curve"/>
			<point x="274" y="350" type="line"/>
			<point x="273" y="350"/>
			<point x="273" y="350"/>
			<point x="273" y="350" type="curve"/>
			<point x="273" y="320" type="line"/>
			<point x="273" y="320"/>
			<point x="273" y="320"/>
			<point x="274" y="320" type="curve"/>
			<point x="354" y="320"/>
			<point x="419" y="255"/>
			<point x="419" y="175" type="curve"/>
			<point x="419" y="94"/>
			<point x="354" y="29"/>
			<point x="274" y="29" type="curve"/>
			<point x="204" y="29"/>
			<point x="146" y="78"/>
			<point x="132" y="144" type="curve"/>
			<point x="132" y="249" type="line"/>
			<point x="132" y="293" type="line"/>
			<point x="132" y="504" type="line"/>
			<point x="132" y="549" type="line"/>
			<point x="132" y="700" type="line"/>
			<point x="98" y="700" type="line"/>
			<point x="98" y="116" type="line"/>
			<point x="96" y="74"/>
			<point x="80" y="33"/>
			<point x="50" y="1" type="curve"/>
			<point x="51" y="0" type="line"/>
			<point x="93" y="0" type="line"/>
			<point x="110" y="24"/>
			<point x="121" y="51"/>
			<point x="127" y="79" type="curve"/>
			<point x="158" y="31"/>
			<point x="212" y="0"/>
			<point x="274" y="0" type="curve"/>
			<point x="370" y="0"/>
			<point x="449" y="78"/>
			<point x="449" y="175" type="curve"/>
			<point x="449" y="271"/>
			<point x="370" y="350"/>
		</contour>
	</outline>
</glyph>
<glyph name="c" format="2">
	<advance width="450"/>
	<unicode hex="0063"/>
	<outline>
		<contour>
			<point x="400" y="174" type="curve"/>
			<point x="370" y="174" type="line"/>
			<point x="370" y="95"/>
			<point x="305" y="30"/>
			<point x="225" y="30" type="curve"/>
			<point x="144" y="30"/>
			<point x="79" y="95"/>
			<point x="79" y="175" type="curve"/>
			<point x="79" y="255"/>
			<point x="144" y="320"/>
			<point x="225" y="320" type="curve"/>
			<point x="225" y="320"/>
			<point x="225" y="320"/>
			<point x="225" y="320" type="curve"/>
			<point x="225" y="350" type="line"/>
			<point x="225" y="350"/>
			<point x="225" y="350"/>
			<point x="225" y="350" type="curve"/>
			<point x="128" y="350"/>
			<point x="50" y="272"/>
			<point x="50" y="175" type="curve"/>
			<point x="50" y="78"/>
			<point x="128" y="0"/>
			<point x="225" y="0" type="curve"/>
			<point x="321" y="0"/>
			<point x="399" y="78"/>
		</contour>
	</outline>
</glyph>
<glyph name="d" format="2">
	<advance width="500"/>
	<unicode hex="0064"/>
	<outline>
		<contour>
			<point x="401" y="129" type="curve"/>
			<point x="401" y="129" type="line"/>
			<point x="401" y="242" type="line"/>
			<point x="401" y="242"/>
			<point x="401" y="242"/>
			<point x="401" y="242" type="curve"/>
			<point x="401" y="700" type="line"/>
			<point x="367" y="700" type="line"/>
			<point x="367" y="550" type="line"/>
			<point x="367" y="505" type="line"/>
			<point x="367" y="294" type="line"/>
			<point x="367" y="250" type="line"/>
			<point x="367" y="145" type="line"/>
			<point x="353" y="79"/>
			<point x="295" y="30"/>
			<point x="225" y="30" type="curve"/>
			<point x="145" y="30"/>
			<point x="80" y="95"/>
			<point x="80" y="175" type="curve"/>
			<point x="80" y="256"/>
			<point x="145" y="321"/>
			<point x="225" y="321" type="curve"/>
			<point x="225" y="321"/>
			<point x="225" y="321"/>
			<point x="226" y="321" type="curve"/>
			<point x="226" y="350" type="line"/>
			<point x="225" y="350"/>
			<point x="225" y="350"/>
			<point x="225" y="350" type="curve"/>
			<point x="129" y="350"/>
			<point x="50" y="272"/>
			<point x="50" y="175" type="curve"/>
			<point x="50" y="79"/>
			<point x="129" y="0"/>
			<point x="225" y="0" type="curve"/>
			<point x="287" y="0"/>
			<point x="341" y="32"/>
			<point x="372" y="80" type="curve"/>
			<point x="378" y="52"/>
			<point x="389" y="25"/>
			<point x="406" y="0" type="curve"/>
			<point x="449" y="0" type="line"/>
			<point x="450" y="2" type="line"/>
			<point x="416" y="37"/>
			<point x="400" y="83"/>
		</contour>
	</outline>
</glyph>
<glyph name="e" format="2">
	<advance width="431"/>
	<unicode hex="0065"/>
	<outline>
		<contour>
			<point x="381" y="174" type="curve"/>
			<point x="381" y="174" type="line"/>
			<point x="381" y="174"/>
			<point x="381" y="174"/>
			<point x="381" y="175" type="curve"/>
			<point x="346" y="175" type="line"/>
			<point x="346" y="174"/>
			<point x="346" y="174"/>
			<point x="346" y="174" type="curve"/>
			<point x="346" y="96"/>
			<point x="269" y="38"/>
			<point x="207" y="38" type="curve"/>
			<point x="205" y="38"/>
			<point x="205" y="38"/>
			<point x="205" y="38" type="curve"/>
			<point x="205" y="38"/>
			<point x="206" y="38"/>
			<point x="204" y="38" type="curve"/>
			<point x="127" y="38"/>
			<point x="67" y="101"/>
			<point x="67" y="174" type="curve"/>
			<point x="67" y="174"/>
			<point x="67" y="174"/>
			<point x="67" y="174" type="curve"/>
			<point x="334" y="292" type="line"/>
			<point x="300" y="324"/>
			<point x="251" y="350"/>
			<point x="207" y="350" type="curve"/>
			<point x="207" y="350" type="line"/>
			<point x="207" y="350"/>
			<point x="207" y="350"/>
			<point x="207" y="350" type="curve"/>
			<point x="-39" y="350"/>
			<point x="-17" y="0"/>
			<point x="205" y="0" type="curve"/>
			<point x="205" y="0"/>
			<point x="205" y="0"/>
			<point x="206" y="0" type="curve"/>
			<point x="207" y="0"/>
			<point x="206" y="0"/>
			<point x="207" y="0" type="curve"/>
			<point x="319" y="0"/>
			<point x="381" y="96"/>
		</contour>
		<contour>
			<point x="277" y="300" type="curve"/>
			<point x="277" y="300" type="line"/>
			<point x="67" y="207" type="line"/>
			<point x="112" y="329"/>
			<point x="209" y="331"/>
		</contour>
	</outline>
</glyph>
<glyph name="f" format="2">
	<advance width="275"/>
	<unicode hex="0066"/>
	<outline>
		<contour>
			<point x="155" y="140" type="line"/>
			<point x="155" y="239" type="line"/>
			<point x="155" y="265" type="line"/>
			<point x="155" y="341" type="line"/>
			<point x="225" y="372" type="line"/>
			<point x="225" y="407" type="line"/>
			<point x="225" y="407" type="line"/>
			<point x="155" y="376" type="line"/>
			<point x="155" y="384" type="line"/>
			<point x="155" y="411" type="line"/>
			<point x="155" y="462" type="line"/>
			<point x="155" y="514" type="line"/>
			<point x="155" y="514" type="line"/>
			<point x="155" y="543" type="line"/>
			<point x="155" y="543" type="line"/>
			<point x="155" y="606" type="line"/>
			<point x="155" y="606" type="line"/>
			<point x="155" y="606"/>
			<point x="155" y="606"/>
			<point x="155" y="607" type="curve"/>
			<point x="155" y="640"/>
			<point x="182" y="667"/>
			<point x="215" y="667" type="curve"/>
			<point x="215" y="700" type="line"/>
			<point x="163" y="700"/>
			<point x="121" y="659"/>
			<point x="121" y="607" type="curve"/>
			<point x="121" y="606"/>
			<point x="121" y="606"/>
			<point x="121" y="606" type="curve"/>
			<point x="121" y="361" type="line"/>
			<point x="50" y="330" type="line"/>
			<point x="50" y="294" type="line"/>
			<point x="50" y="294" type="line"/>
			<point x="121" y="326" type="line"/>
			<point x="121" y="241" type="line"/>
			<point x="121" y="242"/>
			<point x="121" y="242"/>
			<point x="121" y="242" type="curve"/>
			<point x="121" y="129" type="line"/>
			<point x="122" y="83"/>
			<point x="107" y="36"/>
			<point x="57" y="0" type="curve"/>
			<point x="57" y="0" type="line"/>
			<point x="100" y="0" type="line"/>
			<point x="140" y="34"/>
			<point x="152" y="73"/>
			<point x="155" y="112" type="curve"/>
			<point x="155" y="112" type="line"/>
			<point x="155" y="116" type="line"/>
			<point x="155" y="122"/>
			<point x="155" y="127"/>
			<point x="155" y="133" type="curve"/>
		</contour>
	</outline>
</glyph>
<glyph name="g" format="2">
	<advance width="451"/>
	<unicode hex="0067"/>
	<outline>
		<contour>
			<point x="401" y="-167" type="line"/>
			<point x="401" y="167" type="line"/>
			<point x="401" y="170"/>
			<point x="401" y="172"/>
			<point x="401" y="175" type="curve"/>
			<point x="369" y="175" type="line"/>
			<point x="369" y="95"/>
			<point x="306" y="35"/>
			<point x="226" y="35" type="curve"/>
			<point x="146" y="35"/>
			<point x="84" y="98"/>
			<point x="84" y="179" type="curve"/>
			<point x="84" y="259"/>
			<point x="146" y="317"/>
			<point x="226" y="317" type="curve"/>
			<point x="226" y="317"/>
			<point x="226" y="321"/>
			<point x="226" y="321" type="curve"/>
			<point x="226" y="350" type="line"/>
			<point x="226" y="350"/>
			<point x="226" y="350"/>
			<point x="226" y="350" type="curve"/>
			<point x="129" y="350"/>
			<point x="51" y="272"/>
			<point x="51" y="175" type="curve"/>
			<point x="51" y="79"/>
			<point x="129" y="1"/>
			<point x="226" y="1" type="curve"/>
			<point x="285" y="1"/>
			<point x="337" y="30"/>
			<point x="369" y="74" type="curve"/>
			<point x="369" y="64" type="line"/>
			<point x="369" y="-56" type="line"/>
			<point x="369" y="-82" type="line"/>
			<point x="369" y="-167" type="line"/>
			<point x="369" y="-167" type="line"/>
			<point x="369" y="-168"/>
			<point x="369" y="-168"/>
			<point x="369" y="-168" type="curve"/>
			<point x="369" y="-252"/>
			<point x="302" y="-318"/>
			<point x="218" y="-318" type="curve"/>
			<point x="135" y="-318"/>
			<point x="84" y="-250"/>
			<point x="84" y="-167" type="curve"/>
			<point x="50" y="-167" type="line"/>
			<point x="50" y="-268"/>
			<point x="118" y="-349"/>
			<point x="218" y="-349" type="curve"/>
			<point x="319" y="-349"/>
			<point x="400" y="-268"/>
			<point x="401" y="-167" type="curve"/>
		</contour>
	</outline>
</glyph>
<glyph name="h" format="2">
	<advance width="397"/>
	<unicode hex="0068"/>
	<outline>
		<contour>
			<point x="194" y="350" type="curve"/>
			<point x="194" y="350" type="line"/>
			<point x="143" y="350"/>
			<point x="107" y="329"/>
			<point x="83" y="295" type="curve"/>
			<point x="83" y="316" type="line"/>
			<point x="83" y="515" type="line"/>
			<point x="83" y="558" type="line"/>
			<point x="83" y="700" type="line"/>
			<point x="49" y="700" type="line"/>
			<point x="49" y="241" type="line"/>
			<point x="49" y="241"/>
			<point x="49" y="241"/>
			<point x="49" y="241" type="curve"/>
			<point x="49" y="129" type="line"/>
			<point x="50" y="82"/>
			<point x="34" y="36"/>
			<point x="0" y="1" type="curve"/>
			<point x="1" y="0" type="line"/>
			<point x="44" y="0" type="line"/>
			<point x="72" y="39"/>
			<point x="85" y="86"/>
			<point x="83" y="133" type="curve"/>
			<point x="83" y="133" type="line"/>
			<point x="83" y="178" type="line"/>
			<point x="86" y="257"/>
			<point x="115" y="316"/>
			<point x="195" y="316" type="curve"/>
			<point x="276" y="316"/>
			<point x="309" y="254"/>
			<point x="313" y="174" type="curve"/>
			<point x="313" y="-1" type="line"/>
			<point x="347" y="-1" type="line"/>
			<point x="347" y="59" type="line"/>
			<point x="347" y="85" type="line"/>
			<point x="347" y="174" type="line"/>
			<point x="343" y="271"/>
			<point x="292" y="350"/>
		</contour>
	</outline>
</glyph>
<glyph name="i" format="2">
	<advance width="181"/>
	<unicode hex="0069"/>
	<outline>
		<contour>
			<point x="131" y="494" type="line"/>
			<point x="131" y="528" type="line"/>
			<point x="97" y="528" type="line"/>
			<point x="97" y="494" type="line"/>
		</contour>
		<contour>
			<point x="131" y="136" type="curve"/>
			<point x="131" y="136" type="line"/>
			<point x="131" y="350" type="line"/>
			<point x="97" y="350" type="line"/>
			<point x="97" y="242" type="line"/>
			<point x="97" y="129" type="line"/>
			<point x="97" y="120" type="line"/>
			<point x="96" y="77"/>
			<point x="81" y="33"/>
			<point x="50" y="0" type="curve"/>
			<point x="50" y="0" type="line"/>
			<point x="93" y="0" type="line"/>
			<point x="121" y="40"/>
			<point x="134" y="88"/>
		</contour>
	</outline>
</glyph>
<glyph name="j" format="2">
	<advance width="280"/>
	<unicode hex="006A"/>
	<outline>
		<contour>
			<point x="230" y="525" type="line"/>
			<point x="196" y="525" type="line"/>
			<point x="196" y="491" type="line"/>
			<point x="230" y="491" type="line"/>
		</contour>
		<contour>
			<point x="229" y="350" type="line"/>
			<point x="197" y="335" type="line"/>
			<point x="191" y="332" type="line"/>
			<point x="191" y="332" type="line"/>
			<point x="50" y="270" type="line"/>
			<point x="50" y="234" type="line"/>
			<point x="197" y="299" type="line"/>
			<point x="197" y="159" type="line"/>
			<point x="197" y="105" type="line"/>
			<point x="197" y="56" type="line"/>
			<point x="197" y="-71" type="line"/>
			<point x="197" y="-159" type="line"/>
			<point x="197" y="-176" type="line"/>
			<point x="196" y="-193" type="line"/>
			<point x="196" y="-203"/>
			<point x="194" y="-213"/>
			<point x="182" y="-237" type="curve"/>
			<point x="182" y="-238" type="line"/>
			<point x="158" y="-285"/>
			<point x="108" y="-317"/>
			<point x="50" y="-318" type="curve"/>
			<point x="50" y="-350" type="line"/>
			<point x="100" y="-350"/>
			<point x="146" y="-330"/>
			<point x="178" y="-299" type="curve"/>
			<point x="178" y="-298" type="line"/>
			<point x="178" y="-298"/>
			<point x="226" y="-248"/>
			<point x="228" y="-193" type="curve"/>
			<point x="228" y="-193"/>
			<point x="229" y="-191"/>
			<point x="229" y="-188" type="curve"/>
			<point x="229" y="-183"/>
			<point x="229" y="-178"/>
			<point x="229" y="-172" type="curve"/>
			<point x="229" y="-163" type="line"/>
			<point x="229" y="-112" type="line"/>
			<point x="229" y="56" type="line"/>
			<point x="229" y="64" type="line"/>
			<point x="229" y="174" type="line"/>
		</contour>
	</outline>
</glyph>
<glyph name="k" format="2">
	<advance width="396"/>
	<unicode hex="006B"/>
	<outline>
		<contour>
			<point x="294" y="0" type="line"/>
			<point x="346" y="0" type="line"/>
			<point x="168" y="146" type="line"/>
			<point x="341" y="350" type="line"/>
			<point x="300" y="350" type="line"/>
			<point x="144" y="166" type="line"/>
			<point x="132" y="176" type="line"/>
			<point x="132" y="271" type="line"/>
			<point x="132" y="314" type="line"/>
			<point x="132" y="514" type="line"/>
			<point x="132" y="557" type="line"/>
			<point x="132" y="700" type="line"/>
			<point x="98" y="700" type="line"/>
			<point x="98" y="241" type="line"/>
			<point x="98" y="241"/>
			<point x="98" y="241"/>
			<point x="98" y="241" type="curve"/>
			<point x="98" y="129" type="line"/>
			<point x="99" y="83"/>
			<point x="84" y="35"/>
			<point x="50" y="0" type="curve"/>
			<point x="50" y="0" type="line"/>
			<point x="93" y="0" type="line"/>
			<point x="120" y="38"/>
			<point x="133" y="83"/>
			<point x="132" y="129" type="curve"/>
			<point x="132" y="129" type="line"/>
			<point x="132" y="132" type="line"/>
		</contour>
	</outline>
</glyph>
<glyph name="l" format="2">
	<advance width="180"/>
	<unicode hex="006C"/>
	<outline>
		<contour>
			<point x="84" y="117" type="curve"/>
			<point x="84" y="117" type="line"/>
			<point x="84" y="117" type="line"/>
			<point x="84" y="700" type="line"/>
			<point x="50" y="700" type="line"/>
			<point x="50" y="555" type="line"/>
			<point x="50" y="510" type="line"/>
			<point x="50" y="306" type="line"/>
			<point x="50" y="263" type="line"/>
			<point x="50" y="117" type="line"/>
			<point x="50" y="117" type="line"/>
			<point x="51" y="76"/>
			<point x="64" y="35"/>
			<point x="88" y="0" type="curve"/>
			<point x="130" y="0" type="line"/>
			<point x="130" y="0" type="line" smooth="yes"/>
			<point x="99" y="35"/>
			<point x="85" y="75"/>
		</contour>
	</outline>
</glyph>
<glyph name="m" format="2">
	<advance width="515"/>
	<unicode hex="006D"/>
	<outline>
		<contour>
			<point x="465" y="250" type="curve"/>
			<point x="465" y="250" type="line"/>
			<point x="465" y="306"/>
			<point x="420" y="350"/>
			<point x="365" y="350" type="curve"/>
			<point x="330" y="350"/>
			<point x="299" y="333"/>
			<point x="281" y="306" type="curve"/>
			<point x="263" y="333"/>
			<point x="233" y="350"/>
			<point x="198" y="350" type="curve"/>
			<point x="172" y="350"/>
			<point x="149" y="341"/>
			<point x="131" y="326" type="curve"/>
			<point x="131" y="350" type="line"/>
			<point x="97" y="350" type="line"/>
			<point x="97" y="242" type="line"/>
			<point x="97" y="242"/>
			<point x="97" y="242"/>
			<point x="97" y="243" type="curve"/>
			<point x="97" y="130" type="line"/>
			<point x="98" y="84"/>
			<point x="84" y="39"/>
			<point x="50" y="0" type="curve"/>
			<point x="50" y="0" type="line"/>
			<point x="91" y="0" type="line"/>
			<point x="119" y="39"/>
			<point x="133" y="87"/>
			<point x="131" y="134" type="curve"/>
			<point x="131" y="134" type="line"/>
			<point x="131" y="188" type="line"/>
			<point x="131" y="204" type="line"/>
			<point x="131" y="250" type="line"/>
			<point x="132" y="250" type="line"/>
			<point x="132" y="250"/>
			<point x="132" y="250"/>
			<point x="132" y="250" type="curve"/>
			<point x="132" y="287"/>
			<point x="161" y="317"/>
			<point x="198" y="317" type="curve"/>
			<point x="235" y="317"/>
			<point x="264" y="287"/>
			<point x="264" y="250" type="curve"/>
			<point x="264" y="250"/>
			<point x="264" y="250"/>
			<point x="264" y="250" type="curve"/>
			<point x="264" y="250" type="line"/>
			<point x="298" y="250" type="line"/>
			<point x="299" y="250" type="line"/>
			<point x="299" y="250"/>
			<point x="299" y="250"/>
			<point x="299" y="250" type="curve"/>
			<point x="299" y="287"/>
			<point x="328" y="317"/>
			<point x="365" y="317" type="curve"/>
			<point x="401" y="317"/>
			<point x="431" y="287"/>
			<point x="431" y="251" type="curve"/>
			<point x="431" y="251" type="line"/>
			<point x="431" y="0" type="line"/>
			<point x="465" y="0" type="line"/>
			<point x="465" y="82" type="line"/>
			<point x="465" y="118" type="line"/>
			<point x="465" y="250" type="line"/>
			<point x="465" y="250" type="line"/>
			<point x="465" y="250"/>
			<point x="465" y="250"/>
		</contour>
	</outline>
</glyph>
<glyph name="o" format="2">
	<advance width="450"/>
	<unicode hex="006F"/>
	<outline>
		<contour>
			<point x="225" y="350" type="curve"/>
			<point x="225" y="350" type="line"/>
			<point x="128" y="350"/>
			<point x="50" y="272"/>
			<point x="50" y="175" type="curve"/>
			<point x="50" y="79"/>
			<point x="128" y="0"/>
			<point x="225" y="0" type="curve"/>
			<point x="322" y="0"/>
			<point x="400" y="79"/>
			<point x="400" y="175" type="curve"/>
			<point x="400" y="272"/>
			<point x="322" y="350"/>
		</contour>
		<contour>
			<point x="225" y="32" type="curve"/>
			<point x="225" y="32" type="line"/>
			<point x="146" y="32"/>
			<point x="81" y="96"/>
			<point x="81" y="175" type="curve"/>
			<point x="81" y="254"/>
			<point x="146" y="319"/>
			<point x="225" y="319" type="curve"/>
			<point x="304" y="319"/>
			<point x="368" y="254"/>
			<point x="368" y="175" type="curve"/>
			<point x="368" y="96"/>
			<point x="304" y="32"/>
		</contour>
	</outline>
</glyph>
<glyph name="p" format="2">
	<advance width="502"/>
	<unicode hex="0070"/>
	<outline>
		<contour>
			<point x="276" y="350" type="curve"/>
			<point x="276" y="350" type="line"/>
			<point x="218" y="350"/>
			<point x="166" y="321"/>
			<point x="133" y="277" type="curve"/>
			<point x="133" y="350" type="line"/>
			<point x="99" y="350" type="line"/>
			<point x="99" y="-110" type="line"/>
			<point x="99" y="-221" type="line"/>
			<point x="101" y="-267"/>
			<point x="83" y="-311"/>
			<point x="50" y="-350" type="curve"/>
			<point x="52" y="-350" type="line"/>
			<point x="95" y="-350" type="line"/>
			<point x="122" y="-311"/>
			<point x="135" y="-264"/>
			<point x="133" y="-217" type="curve"/>
			<point x="133" y="-86" type="line"/>
			<point x="133" y="-43" type="line"/>
			<point x="133" y="160" type="line"/>
			<point x="133" y="174" type="line"/>
			<point x="134" y="174" type="line"/>
			<point x="134" y="255"/>
			<point x="196" y="318"/>
			<point x="276" y="318" type="curve"/>
			<point x="357" y="318"/>
			<point x="421" y="255"/>
			<point x="421" y="174" type="curve"/>
			<point x="421" y="93"/>
			<point x="357" y="33"/>
			<point x="276" y="33" type="curve"/>
			<point x="276" y="33"/>
			<point x="276" y="33"/>
			<point x="276" y="33" type="curve"/>
			<point x="276" y="-2" type="line"/>
			<point x="276" y="-2"/>
			<point x="276" y="0"/>
			<point x="276" y="0" type="curve"/>
			<point x="374" y="0"/>
			<point x="452" y="77"/>
			<point x="452" y="174" type="curve"/>
			<point x="452" y="271"/>
			<point x="374" y="350"/>
		</contour>
	</outline>
</glyph>
<glyph name="q" format="2">
	<advance width="503"/>
	<unicode hex="0071"/>
	<outline>
		<contour>
			<point x="404" y="-221" type="curve"/>
			<point x="404" y="-221" type="line"/>
			<point x="403" y="-110" type="line"/>
			<point x="403" y="350" type="line"/>
			<point x="369" y="350" type="line"/>
			<point x="369" y="277" type="line"/>
			<point x="337" y="321"/>
			<point x="285" y="350"/>
			<point x="226" y="350" type="curve"/>
			<point x="129" y="350"/>
			<point x="50" y="271"/>
			<point x="50" y="174" type="curve"/>
			<point x="50" y="77"/>
			<point x="129" y="0"/>
			<point x="226" y="0" type="curve"/>
			<point x="227" y="0"/>
			<point x="227" y="-2"/>
			<point x="227" y="-2" type="curve"/>
			<point x="227" y="33" type="line"/>
			<point x="227" y="33"/>
			<point x="227" y="33"/>
			<point x="226" y="33" type="curve"/>
			<point x="146" y="33"/>
			<point x="82" y="93"/>
			<point x="82" y="174" type="curve"/>
			<point x="82" y="255"/>
			<point x="146" y="318"/>
			<point x="226" y="318" type="curve"/>
			<point x="307" y="318"/>
			<point x="369" y="255"/>
			<point x="369" y="174" type="curve"/>
			<point x="369" y="174" type="line"/>
			<point x="369" y="160" type="line"/>
			<point x="369" y="-43" type="line"/>
			<point x="369" y="-86" type="line"/>
			<point x="369" y="-217" type="line"/>
			<point x="368" y="-264"/>
			<point x="381" y="-311"/>
			<point x="408" y="-350" type="curve"/>
			<point x="451" y="-350" type="line"/>
			<point x="453" y="-350" type="line"/>
			<point x="420" y="-311"/>
			<point x="402" y="-267"/>
		</contour>
	</outline>
</glyph>
<glyph name="r" format="2">
	<advance width="285"/>
	<unicode hex="0072"/>
	<outline>
		<contour>
			<point x="227" y="350" type="curve"/>
			<point x="227" y="350" type="line"/>
			<point x="168" y="350"/>
			<point x="116" y="320"/>
			<point x="83" y="275" type="curve"/>
			<point x="83" y="279" type="line"/>
			<point x="83" y="296" type="line"/>
			<point x="83" y="350" type="line"/>
			<point x="49" y="350" type="line"/>
			<point x="49" y="241" type="line"/>
			<point x="49" y="241"/>
			<point x="49" y="241"/>
			<point x="49" y="241" type="curve"/>
			<point x="49" y="178" type="line"/>
			<point x="49" y="175"/>
			<point x="48" y="172"/>
			<point x="48" y="169" type="curve"/>
			<point x="48" y="166"/>
			<point x="49" y="163"/>
			<point x="49" y="160" type="curve"/>
			<point x="49" y="129" type="line"/>
			<point x="50" y="83"/>
			<point x="33" y="39"/>
			<point x="0" y="0" type="curve"/>
			<point x="1" y="0" type="line"/>
			<point x="44" y="0" type="line"/>
			<point x="72" y="39"/>
			<point x="85" y="86"/>
			<point x="83" y="133" type="curve"/>
			<point x="83" y="133" type="line"/>
			<point x="83" y="187" type="line"/>
			<point x="83" y="203" type="line"/>
			<point x="83" y="204" type="line"/>
			<point x="99" y="270"/>
			<point x="157" y="318"/>
			<point x="227" y="318" type="curve"/>
			<point x="230" y="318"/>
			<point x="233" y="318"/>
			<point x="235" y="318" type="curve"/>
			<point x="235" y="350" type="line"/>
			<point x="233" y="350"/>
			<point x="230" y="350"/>
		</contour>
	</outline>
</glyph>
<glyph name="t" format="2">
	<advance width="265"/>
	<unicode hex="0074"/>
	<outline>
		<contour>
			<point x="144" y="140" type="line"/>
			<point x="144" y="145" type="line"/>
			<point x="144" y="145" type="line"/>
			<point x="144" y="343" type="line"/>
			<point x="215" y="375" type="line"/>
			<point x="215" y="410" type="line"/>
			<point x="215" y="410" type="line"/>
			<point x="144" y="379" type="line"/>
			<point x="144" y="514" type="line"/>
			<point x="144" y="543" type="line"/>
			<point x="144" y="700" type="line"/>
			<point x="110" y="700" type="line"/>
			<point x="110" y="606" type="line"/>
			<point x="110" y="606" type="line"/>
			<point x="110" y="364" type="line"/>
			<point x="40" y="333" type="line"/>
			<point x="40" y="297" type="line"/>
			<point x="40" y="297" type="line"/>
			<point x="110" y="328" type="line"/>
			<point x="110" y="140" type="line"/>
			<point x="110" y="126" type="line"/>
			<point x="110" y="126" type="line"/>
			<point x="110" y="82"/>
			<point x="123" y="38"/>
			<point x="149" y="0" type="curve"/>
			<point x="191" y="0" type="line"/>
			<point x="193" y="0" type="line"/>
			<point x="159" y="38"/>
			<point x="146" y="75"/>
			<point x="144" y="118" type="curve"/>
		</contour>
	</outline>
</glyph>
<glyph name="v" format="2">
	<advance width="347"/>
	<unicode hex="0076"/>
	<outline>
		<contour>
			<point x="283" y="350" type="line"/>
			<point x="246" y="350" type="line"/>
			<point x="246" y="350" type="line"/>
			<point x="259" y="336"/>
			<point x="263" y="316"/>
			<point x="257" y="298" type="curve"/>
			<point x="180" y="46" type="line"/>
			<point x="87" y="350" type="line"/>
			<point x="50" y="350" type="line"/>
			<point x="160" y="0" type="line"/>
			<point x="163" y="0" type="line"/>
			<point x="197" y="0" type="line"/>
			<point x="197" y="0" type="line"/>
			<point x="197" y="0" type="line"/>
			<point x="197" y="0" type="line"/>
			<point x="200" y="0" type="line"/>
			<point x="294" y="298" type="line"/>
			<point x="300" y="316"/>
			<point x="296" y="336"/>
			<point x="283" y="350" type="curve"/>
		</contour>
	</outline>
</glyph>
<glyph name="w" format="2">
	<advance width="571"/>
	<unicode hex="0077"/>
	<outline>
		<contour>
			<point x="507" y="349" type="curve"/>
			<point x="507" y="349" type="line"/>
			<point x="470" y="349" type="line"/>
			<point x="482" y="335"/>
			<point x="487" y="316"/>
			<point x="481" y="297" type="curve"/>
			<point x="404" y="45" type="line"/>
			<point x="311" y="349" type="line"/>
			<point x="311" y="349" type="line"/>
			<point x="310" y="349" type="line"/>
			<point x="274" y="349" type="line"/>
			<point x="273" y="349" type="line"/>
			<point x="180" y="45" type="line"/>
			<point x="86" y="349" type="line"/>
			<point x="50" y="349" type="line"/>
			<point x="158" y="0" type="line"/>
			<point x="163" y="0" type="line"/>
			<point x="196" y="0" type="line"/>
			<point x="196" y="-1" type="line"/>
			<point x="196" y="0" type="line"/>
			<point x="196" y="0" type="line"/>
			<point x="200" y="0" type="line"/>
			<point x="292" y="290" type="line"/>
			<point x="382" y="0" type="line"/>
			<point x="387" y="0" type="line"/>
			<point x="420" y="0" type="line"/>
			<point x="420" y="-1" type="line"/>
			<point x="420" y="0" type="line"/>
			<point x="420" y="0" type="line"/>
			<point x="424" y="0" type="line"/>
			<point x="518" y="297" type="line"/>
			<point x="524" y="315"/>
			<point x="519" y="335"/>
		</contour>
	</outline>
</glyph>
<glyph name="x" format="2">
	<advance width="399"/>
	<unicode hex="0078"/>
	<outline>
		<contour>
			<point x="290" y="54" type="curve"/>
			<point x="290" y="54" type="line"/>
			<point x="208" y="178" type="line"/>
			<point x="322" y="350" type="line"/>
			<point x="281" y="350" type="line"/>
			<point x="188" y="208" type="line"/>
			<point x="95" y="350" type="line"/>
			<point x="53" y="350" type="line"/>
			<point x="168" y="178" type="line"/>
			<point x="50" y="0" type="line"/>
			<point x="89" y="0" type="line"/>
			<point x="188" y="148" type="line"/>
			<point x="263" y="36" type="line"/>
			<point x="276" y="17"/>
			<point x="286" y="5"/>
			<point x="302" y="0" type="curve"/>
			<point x="305" y="0" type="line"/>
			<point x="341" y="0" type="line"/>
			<point x="349" y="0" type="line"/>
			<point x="326" y="6"/>
			<point x="303" y="32"/>
		</contour>
	</outline>
</glyph>
<glyph name="y" format="2">
	<advance width="360"/>
	<unicode hex="0079"/>
	<outline>
		<contour>
			<point x="291" y="292" type="line"/>
			<point x="310" y="350" type="line"/>
			<point x="274" y="350" type="line"/>
			<point x="178" y="42" type="line"/>
			<point x="82" y="350" type="line"/>
			<point x="45" y="350" type="line"/>
			<point x="160" y="-15" type="line"/>
			<point x="127" y="-121" type="line"/>
			<point x="127" y="-121"/>
			<point x="127" y="-121"/>
			<point x="127" y="-121" type="curve"/>
			<point x="93" y="-228" type="line"/>
			<point x="81" y="-272"/>
			<point x="48" y="-311"/>
			<point x="0" y="-350" type="curve"/>
			<point x="50" y="-350" type="line"/>
			<point x="50" y="-350" type="line"/>
			<point x="93" y="-311"/>
			<point x="112" y="-284"/>
			<point x="125" y="-242" type="curve"/>
			<point x="135" y="-209" type="line"/>
			<point x="174" y="-85" type="line"/>
			<point x="184" y="-53" type="line"/>
			<point x="230" y="94" type="line"/>
			<point x="240" y="128" type="line"/>
			<point x="260" y="191" type="line"/>
			<point x="280" y="256" type="line"/>
			<point x="280" y="256" type="line"/>
			<point x="291" y="292" type="line"/>
		</contour>
	</outline>
</glyph>
<glyph name="braceleft" format="2">
	<advance width="350"/>
	<unicode hex="007B"/>
	<outline>
		<contour>
			<point x="189" y="555" type="curve"/>
			<point x="189" y="555" type="line"/>
			<point x="189" y="668"/>
			<point x="300" y="666"/>
			<point x="300" y="666" type="curve"/>
			<point x="300" y="698" type="line"/>
			<point x="149" y="718"/>
			<point x="152" y="551"/>
			<point x="152" y="551" type="curve"/>
			<point x="157" y="353"/>
			<point x="50" y="370"/>
			<point x="50" y="370" type="curve"/>
			<point x="50" y="353" type="line"/>
			<point x="50" y="347" type="line"/>
			<point x="50" y="331" type="line"/>
			<point x="50" y="331"/>
			<point x="157" y="346"/>
			<point x="152" y="147" type="curve"/>
			<point x="152" y="147"/>
			<point x="149" y="-19"/>
			<point x="300" y="2" type="curve"/>
			<point x="300" y="34" type="line"/>
			<point x="300" y="34"/>
			<point x="189" y="31"/>
			<point x="189" y="143" type="curve"/>
			<point x="189" y="254"/>
			<point x="180" y="311"/>
			<point x="99" y="348" type="curve"/>
			<point x="99" y="352" type="line"/>
			<point x="180" y="387"/>
			<point x="189" y="443"/>
		</contour>
	</outline>
</glyph>
<glyph name="bar" format="2">
	<advance width="134"/>
	<unicode hex="007C"/>
	<outline>
		<contour>
			<point x="50" y="473" type="line"/>
			<point x="50" y="228" type="line"/>
			<point x="50" y="175" type="line"/>
			<point x="50" y="0" type="line"/>
			<point x="84" y="0" type="line"/>
			<point x="84" y="700" type="line"/>
			<point x="50" y="700" type="line"/>
			<point x="50" y="525" type="line"/>
		</contour>
	</outline>
</glyph>
<glyph name="braceright" format="2">
	<advance width="351"/>
	<unicode hex="007D"/>
	<outline>
		<contour>
			<point x="163" y="145" type="curve"/>
			<point x="163" y="145" type="line"/>
			<point x="164" y="32"/>
			<point x="53" y="34"/>
			<point x="53" y="34" type="curve"/>
			<point x="53" y="2" type="line"/>
			<point x="204" y="-18"/>
			<point x="200" y="149"/>
			<point x="200" y="149" type="curve"/>
			<point x="194" y="347"/>
			<point x="301" y="331"/>
			<point x="301" y="331" type="curve"/>
			<point x="301" y="348" type="line"/>
			<point x="301" y="354" type="line"/>
			<point x="301" y="370" type="line"/>
			<point x="301" y="370"/>
			<point x="194" y="354"/>
			<point x="199" y="553" type="curve"/>
			<point x="199" y="553"/>
			<point x="201" y="719"/>
			<point x="50" y="698" type="curve"/>
			<point x="50" y="666" type="line"/>
			<point x="50" y="666"/>
			<point x="161" y="669"/>
			<point x="162" y="557" type="curve"/>
			<point x="162" y="446"/>
			<point x="171" y="389"/>
			<point x="252" y="353" type="curve"/>
			<point x="252" y="349" type="line"/>
			<point x="172" y="313"/>
			<point x="163" y="257"/>
		</contour>
	</outline>
</glyph>
<glyph name="asciitilde" format="2">
	<advance width="361"/>
	<unicode hex="007E"/>
	<outline>
		<contour>
			<point x="311" y="350" type="curve"/>
			<point x="278" y="350" type="line"/>
			<point x="278" y="329"/>
			<point x="260" y="311"/>
			<point x="239" y="311" type="curve"/>
			<point x="237" y="311"/>
			<point x="239" y="311"/>
			<point x="236" y="311" type="curve"/>
			<point x="236" y="311" type="line"/>
			<point x="230" y="311"/>
			<point x="216" y="318"/>
			<point x="212" y="320" type="curve"/>
			<point x="189" y="332"/>
			<point x="147" y="351"/>
			<point x="121" y="351" type="curve"/>
			<point x="121" y="351" type="line"/>
			<point x="81" y="351"/>
			<point x="50" y="320"/>
			<point x="50" y="280" type="curve"/>
			<point x="50" y="278"/>
			<point x="50" y="277"/>
			<point x="50" y="275" type="curve"/>
			<point x="83" y="275" type="line"/>
			<point x="83" y="277"/>
			<point x="83" y="278"/>
			<point x="83" y="280" type="curve"/>
			<point x="83" y="301"/>
			<point x="100" y="318"/>
			<point x="121" y="318" type="curve"/>
			<point x="121" y="318" type="line"/>
			<point x="121" y="318"/>
			<point x="134" y="321"/>
			<point x="174" y="303" type="curve"/>
			<point x="185" y="298" type="line"/>
			<point x="185" y="298" type="line"/>
			<point x="185" y="298" type="line"/>
			<point x="195" y="293"/>
			<point x="197" y="292"/>
			<point x="210" y="286" type="curve"/>
			<point x="215" y="284"/>
			<point x="219" y="282"/>
			<point x="225" y="280" type="curve"/>
			<point x="230" y="278"/>
			<point x="237" y="278"/>
			<point x="236" y="278" type="curve"/>
			<point x="236" y="278" type="line"/>
			<point x="236" y="278" type="line"/>
			<point x="236" y="278" type="line"/>
			<point x="237" y="278"/>
			<point x="234" y="278"/>
			<point x="236" y="278" type="curve"/>
			<point x="275" y="278"/>
			<point x="311" y="311"/>
		</contour>
	</outline>
</glyph>
<glyph name="exclamdown" format="2">
	<advance width="167"/>
	<unicode hex="00A1"/>
	<outline>
		<contour>
			<point x="50" y="519" type="curve"/>
			<point x="50" y="519" type="line"/>
			<point x="49" y="538"/>
			<point x="64" y="554"/>
			<point x="83" y="553" type="curve"/>
			<point x="101" y="553"/>
			<point x="116" y="538"/>
			<point x="117" y="519" type="curve"/>
			<point x="117" y="501"/>
			<point x="101" y="486"/>
			<point x="83" y="486" type="curve"/>
			<point x="64" y="487"/>
			<point x="50" y="501"/>
		</contour>
		<contour>
			<point x="105" y="-147" type="line"/>
			<point x="100" y="357" type="line"/>
			<point x="66" y="357" type="line"/>
			<point x="61" y="-147" type="line"/>
		</contour>
	</outline>
</glyph>
<glyph name="cent" format="2">
	<advance width="413"/>
	<unicode hex="00A2"/>
	<outline>
		<contour>
			<point x="363" y="648" type="line"/>
			<point x="363" y="648" type="line"/>
			<point x="357" y="648"/>
			<point x="344" y="648"/>
			<point x="335" y="648" type="curve"/>
			<point x="335" y="648" type="line"/>
			<point x="294" y="648"/>
			<point x="257" y="640"/>
			<point x="223" y="626" type="curve"/>
			<point x="223" y="700" type="line"/>
			<point x="189" y="700" type="line"/>
			<point x="189" y="608" type="line"/>
			<point x="102" y="556"/>
			<point x="50" y="458"/>
			<point x="50" y="349" type="curve"/>
			<point x="50" y="243"/>
			<point x="105" y="149"/>
			<point x="189" y="96" type="curve"/>
			<point x="189" y="0" type="line"/>
			<point x="223" y="0" type="line"/>
			<point x="223" y="78" type="line"/>
			<point x="261" y="60"/>
			<point x="304" y="50"/>
			<point x="348" y="50" type="curve"/>
			<point x="353" y="50"/>
			<point x="358" y="50"/>
			<point x="363" y="50" type="curve"/>
			<point x="363" y="84" type="line"/>
			<point x="358" y="84"/>
			<point x="353" y="84"/>
			<point x="347" y="84" type="curve"/>
			<point x="303" y="84"/>
			<point x="261" y="95"/>
			<point x="223" y="116" type="curve"/>
			<point x="223" y="586" type="line"/>
			<point x="256" y="603"/>
			<point x="294" y="613"/>
			<point x="335" y="613" type="curve"/>
			<point x="363" y="614" type="line"/>
			<point x="363" y="636" type="line"/>
			<point x="363" y="636" type="line"/>
		</contour>
		<contour>
			<point x="189" y="565" type="curve"/>
			<point x="189" y="525" type="line"/>
			<point x="189" y="473" type="line"/>
			<point x="189" y="228" type="line"/>
			<point x="189" y="175" type="line"/>
			<point x="189" y="137" type="line"/>
			<point x="126" y="185"/>
			<point x="84" y="260"/>
			<point x="84" y="347" type="curve"/>
			<point x="84" y="437"/>
			<point x="124" y="517"/>
		</contour>
	</outline>
</glyph>
<glyph name="brokenbar" format="2">
	<advance width="134"/>
	<unicode hex="00A6"/>
	<outline>
		<contour>
			<point x="50" y="607" type="line"/>
			<point x="50" y="506" type="line"/>
			<point x="50" y="485" type="line"/>
			<point x="50" y="413" type="line"/>
			<point x="84" y="413" type="line"/>
			<point x="84" y="700" type="line"/>
			<point x="50" y="700" type="line"/>
			<point x="50" y="629" type="line"/>
		</contour>
		<contour>
			<point x="50" y="194" type="line"/>
			<point x="50" y="93" type="line"/>
			<point x="50" y="72" type="line"/>
			<point x="50" y="0" type="line"/>
			<point x="84" y="0" type="line"/>
			<point x="84" y="287" type="line"/>
			<point x="50" y="287" type="line"/>
			<point x="50" y="216" type="line"/>
		</contour>
	</outline>
</glyph>
<glyph name="copyright" format="2">
	<advance width="799"/>
	<unicode hex="00A9"/>
	<outline>
		<contour>
			<point x="399" y="204" type="curve"/>
			<point x="399" y="204" type="line"/>
			<point x="319" y="204"/>
			<point x="254" y="269"/>
			<point x="254" y="350" type="curve"/>
			<point x="254" y="430"/>
			<point x="319" y="495"/>
			<point x="399" y="495" type="curve"/>
			<point x="399" y="495"/>
			<point x="399" y="495"/>
			<point x="400" y="495" type="curve"/>
			<point x="400" y="525" type="line"/>
			<point x="399" y="525"/>
			<point x="399" y="525"/>
			<point x="399" y="525" type="curve"/>
			<point x="302" y="525"/>
			<point x="224" y="446"/>
			<point x="224" y="350" type="curve"/>
			<point x="224" y="253"/>
			<point x="302" y="175"/>
			<point x="399" y="175" type="curve"/>
			<point x="496" y="175"/>
			<point x="574" y="253"/>
			<point x="574" y="349" type="curve"/>
			<point x="544" y="349" type="line"/>
			<point x="544" y="269"/>
			<point x="479" y="204"/>
		</contour>
		<contour>
			<point x="399" y="699" type="curve"/>
			<point x="399" y="699" type="line"/>
			<point x="206" y="699"/>
			<point x="50" y="543"/>
			<point x="50" y="350" type="curve"/>
			<point x="50" y="156"/>
			<point x="206" y="0"/>
			<point x="399" y="0" type="curve"/>
			<point x="593" y="0"/>
			<point x="749" y="156"/>
			<point x="749" y="350" type="curve"/>
			<point x="749" y="543"/>
			<point x="593" y="699"/>
		</contour>
		<contour>
			<point x="585" y="91" type="curve"/>
			<point x="585" y="91" type="line"/>
			<point x="533" y="54"/>
			<point x="469" y="32"/>
			<point x="400" y="32" type="curve"/>
			<point x="226" y="32"/>
			<point x="84" y="173"/>
			<point x="84" y="348" type="curve"/>
			<point x="84" y="348" type="line"/>
			<point x="84" y="349"/>
			<point x="84" y="350"/>
			<point x="84" y="351" type="curve"/>
			<point x="84" y="526"/>
			<point x="226" y="668"/>
			<point x="402" y="668" type="curve"/>
			<point x="577" y="668"/>
			<point x="719" y="526"/>
			<point x="719" y="351" type="curve"/>
			<point x="719" y="243"/>
			<point x="666" y="149"/>
		</contour>
	</outline>
</glyph>
<glyph name="guillemotleft" format="2">
	<advance width="364"/>
	<unicode hex="00AB"/>
	<outline>
		<contour>
			<point x="86" y="291" type="line"/>
			<point x="214" y="466" type="line"/>
			<point x="178" y="466" type="line"/>
			<point x="50" y="291" type="line"/>
			<point x="178" y="116" type="line"/>
			<point x="214" y="116" type="line"/>
		</contour>
		<contour>
			<point x="186" y="291" type="line"/>
			<point x="314" y="466" type="line"/>
			<point x="278" y="466" type="line"/>
			<point x="150" y="291" type="line"/>
			<point x="278" y="116" type="line"/>
			<point x="314" y="116" type="line"/>
		</contour>
	</outline>
</glyph>
<glyph name="registered" format="2">
	<advance width="463"/>
	<unicode hex="00AE"/>
	<outline>
		<contour>
			<point x="238" y="524" type="curve"/>
			<point x="238" y="524" type="line"/>
			<point x="238" y="500" type="line"/>
			<point x="272" y="500"/>
			<point x="299" y="528"/>
			<point x="299" y="561" type="curve"/>
			<point x="299" y="595"/>
			<point x="272" y="622"/>
			<point x="238" y="622" type="curve"/>
			<point x="223" y="622"/>
			<point x="210" y="617"/>
			<point x="199" y="608" type="curve"/>
			<point x="197" y="613"/>
			<point x="195" y="617"/>
			<point x="191" y="622" type="curve"/>
			<point x="180" y="622" type="line"/>
			<point x="163" y="622" type="line"/>
			<point x="171" y="614"/>
			<point x="177" y="588"/>
			<point x="177" y="576" type="curve"/>
			<point x="177" y="574" type="line"/>
			<point x="177" y="562" type="line"/>
			<point x="177" y="560"/>
			<point x="177" y="559"/>
			<point x="177" y="557" type="curve"/>
			<point x="177" y="545" type="line"/>
			<point x="177" y="426" type="line"/>
			<point x="201" y="426" type="line"/>
			<point x="201" y="466" type="line"/>
			<point x="201" y="470" type="line"/>
			<point x="257" y="426" type="line"/>
			<point x="296" y="426" type="line"/>
			<point x="292" y="429" type="line"/>
			<point x="281" y="438" type="line"/>
			<point x="226" y="482" type="line"/>
			<point x="214" y="491" type="line"/>
			<point x="201" y="501" type="line"/>
			<point x="201" y="505" type="line"/>
			<point x="201" y="517" type="line"/>
			<point x="201" y="532" type="line"/>
			<point x="201" y="544" type="line"/>
			<point x="201" y="557" type="line"/>
			<point x="201" y="559"/>
			<point x="201" y="560"/>
			<point x="201" y="562" type="curve"/>
			<point x="201" y="565" type="line"/>
			<point x="203" y="584"/>
			<point x="219" y="599"/>
			<point x="238" y="599" type="curve"/>
			<point x="259" y="599"/>
			<point x="275" y="582"/>
			<point x="275" y="561" type="curve"/>
			<point x="275" y="541"/>
			<point x="259" y="524"/>
		</contour>
		<contour>
			<point x="231" y="706" type="curve"/>
			<point x="231" y="706" type="line"/>
			<point x="131" y="706"/>
			<point x="50" y="625"/>
			<point x="50" y="525" type="curve"/>
			<point x="50" y="425"/>
			<point x="131" y="343"/>
			<point x="231" y="343" type="curve"/>
			<point x="332" y="343"/>
			<point x="413" y="425"/>
			<point x="413" y="525" type="curve"/>
			<point x="413" y="625"/>
			<point x="332" y="706"/>
		</contour>
		<contour>
			<point x="318" y="403" type="curve"/>
			<point x="318" y="403" type="line"/>
			<point x="317" y="403"/>
			<point x="317" y="402"/>
			<point x="317" y="402" type="curve"/>
			<point x="316" y="402"/>
			<point x="315" y="401"/>
			<point x="313" y="400" type="curve"/>
			<point x="290" y="384"/>
			<point x="261" y="375"/>
			<point x="231" y="375" type="curve"/>
			<point x="213" y="375"/>
			<point x="195" y="379"/>
			<point x="178" y="385" type="curve"/>
			<point x="136" y="398"/>
			<point x="106" y="427"/>
			<point x="93" y="469" type="curve"/>
			<point x="86" y="486"/>
			<point x="82" y="505"/>
			<point x="82" y="525" type="curve"/>
			<point x="82" y="545"/>
			<point x="86" y="564"/>
			<point x="93" y="581" type="curve"/>
			<point x="106" y="622"/>
			<point x="135" y="651"/>
			<point x="177" y="664" type="curve"/>
			<point x="194" y="671"/>
			<point x="212" y="675"/>
			<point x="231" y="675" type="curve"/>
			<point x="314" y="675"/>
			<point x="381" y="608"/>
			<point x="381" y="525" type="curve"/>
			<point x="381" y="475"/>
			<point x="356" y="430"/>
		</contour>
	</outline>
</glyph>
<glyph name="periodcentered" format="2">
	<advance width="167"/>
	<unicode hex="00B7"/>
	<outline>
		<contour>
			<point x="117" y="269" type="curve"/>
			<point x="117" y="269" type="line"/>
			<point x="117" y="250"/>
			<point x="102" y="235"/>
			<point x="84" y="235" type="curve"/>
			<point x="65" y="235"/>
			<point x="50" y="250"/>
			<point x="50" y="269" type="curve"/>
			<point x="50" y="287"/>
			<point x="65" y="302"/>
			<point x="84" y="302" type="curve"/>
			<point x="102" y="302"/>
			<point x="117" y="287"/>
		</contour>
	</outline>
</glyph>
<glyph name="guillemotright" format="2">
	<advance width="363"/>
	<unicode hex="00BB"/>
	<outline>
		<contour>
			<point x="277" y="291" type="line"/>
			<point x="150" y="116" type="line"/>
			<point x="186" y="116" type="line"/>
			<point x="313" y="291" type="line"/>
			<point x="186" y="466" type="line"/>
			<point x="150" y="466" type="line"/>
		</contour>
		<contour>
			<point x="178" y="291" type="line"/>
			<point x="50" y="116" type="line"/>
			<point x="86" y="116" type="line"/>
			<point x="214" y="291" type="line"/>
			<point x="86" y="466" type="line"/>
			<point x="50" y="466" type="line"/>
		</contour>
	</outline>
</glyph>
<glyph name="questiondown" format="2">
	<advance width="600"/>
	<unicode hex="00BF"/>
	<outline>
		<contour>
			<point x="270" y="493" type="curve"/>
			<point x="270" y="493" type="line"/>
			<point x="271" y="512"/>
			<point x="285" y="527"/>
			<point x="303" y="528" type="curve"/>
			<point x="322" y="527"/>
			<point x="337" y="512"/>
			<point x="338" y="493" type="curve"/>
			<point x="338" y="475"/>
			<point x="323" y="459"/>
			<point x="304" y="460" type="curve"/>
			<point x="286" y="460"/>
			<point x="271" y="475"/>
		</contour>
		<contour>
			<point x="133" y="3" type="curve"/>
			<point x="133" y="3" type="line"/>
			<point x="133" y="-42"/>
			<point x="150" y="-88"/>
			<point x="185" y="-122" type="curve"/>
			<point x="199" y="-136"/>
			<point x="215" y="-147"/>
			<point x="232" y="-155" type="curve"/>
			<point x="298" y="-186"/>
			<point x="381" y="-176"/>
			<point x="434" y="-121" type="curve"/>
			<point x="468" y="-86"/>
			<point x="486" y="-41"/>
			<point x="485" y="6" type="curve"/>
			<point x="452" y="5" type="line"/>
			<point x="453" y="-31"/>
			<point x="439" y="-68"/>
			<point x="410" y="-97" type="curve"/>
			<point x="383" y="-125"/>
			<point x="347" y="-140"/>
			<point x="311" y="-139" type="curve"/>
			<point x="311" y="-139" type="line"/>
			<point x="294" y="-140"/>
			<point x="276" y="-137"/>
			<point x="260" y="-131" type="curve"/>
			<point x="242" y="-124"/>
			<point x="225" y="-113"/>
			<point x="209" y="-98" type="curve"/>
			<point x="191" y="-80"/>
			<point x="179" y="-61"/>
			<point x="172" y="-40" type="curve"/>
			<point x="157" y="5"/>
			<point x="165" y="54"/>
			<point x="197" y="92" type="curve"/>
			<point x="199" y="93"/>
			<point x="201" y="97"/>
			<point x="202" y="98" type="curve"/>
			<point x="221" y="110"/>
			<point x="289" y="170"/>
			<point x="304" y="228" type="curve"/>
			<point x="310" y="246"/>
			<point x="323" y="296"/>
			<point x="322" y="350" type="curve"/>
			<point x="288" y="350" type="line"/>
			<point x="288" y="350"/>
			<point x="291" y="312"/>
			<point x="280" y="269" type="curve"/>
			<point x="280" y="266"/>
			<point x="277" y="243"/>
			<point x="274" y="237" type="curve"/>
			<point x="274" y="237"/>
			<point x="274" y="236"/>
			<point x="274" y="236" type="curve"/>
			<point x="265" y="191"/>
			<point x="212" y="148"/>
			<point x="190" y="132" type="curve"/>
			<point x="190" y="132" type="line"/>
			<point x="190" y="132"/>
			<point x="190" y="132"/>
			<point x="190" y="132" type="curve"/>
			<point x="189" y="131"/>
			<point x="188" y="130"/>
			<point x="187" y="129" type="curve"/>
			<point x="183" y="126"/>
			<point x="178" y="123"/>
			<point x="174" y="118" type="curve"/>
			<point x="174" y="117"/>
			<point x="173" y="116"/>
			<point x="172" y="115" type="curve"/>
			<point x="172" y="115"/>
			<point x="172" y="115"/>
			<point x="172" y="115" type="curve"/>
			<point x="146" y="83"/>
			<point x="132" y="42"/>
			<point x="133" y="3" type="curve"/>
			<point x="133" y="3" type="line"/>
			<point x="133" y="3"/>
			<point x="133" y="3"/>
		</contour>
	</outline>
</glyph>
<glyph name="Agrave" format="2">
	<advance width="600"/>
	<unicode hex="00C0"/>
	<outline>
		<contour>
			<point x="491" y="0" type="curve"/>
			<point x="533" y="0" type="line"/>
			<point x="508" y="29"/>
			<point x="489" y="65"/>
			<point x="474" y="108" type="curve"/>
			<point x="451" y="180" type="line"/>
			<point x="355" y="494" type="line"/>
			<point x="355" y="494" type="line"/>
			<point x="345" y="528" type="line"/>
			<point x="345" y="528" type="line"/>
			<point x="299" y="680" type="line"/>
			<point x="299" y="680" type="line"/>
			<point x="293" y="700" type="line"/>
			<point x="263" y="700" type="line"/>
			<point x="221" y="563" type="line"/>
			<point x="210" y="528" type="line"/>
			<point x="210" y="528" type="line"/>
			<point x="200" y="494" type="line"/>
			<point x="200" y="494" type="line"/>
			<point x="50" y="0" type="line"/>
			<point x="85" y="0" type="line"/>
			<point x="235" y="494" type="line"/>
			<point x="236" y="494" type="line"/>
			<point x="246" y="528" type="line"/>
			<point x="246" y="528" type="line"/>
			<point x="278" y="633" type="line"/>
			<point x="310" y="528" type="line"/>
			<point x="320" y="494" type="line"/>
			<point x="357" y="373" type="line"/>
			<point x="278" y="338" type="line"/>
			<point x="278" y="303" type="line"/>
			<point x="278" y="303" type="line"/>
			<point x="366" y="342" type="line"/>
			<point x="443" y="89" type="line"/>
			<point x="443" y="89" type="line"/>
			<point x="453" y="56"/>
			<point x="469" y="25"/>
		</contour>
		<contour>
			<point x="211" y="920" type="line"/>
			<point x="260" y="751" type="line"/>
			<point x="294" y="751" type="line"/>
			<point x="255" y="920" type="line"/>
		</contour>
	</outline>
</glyph>
<glyph name="Atilde" format="2">
	<advance width="583"/>
	<unicode hex="00C3"/>
	<outline>
		<contour>
			<point x="491" y="0" type="curve"/>
			<point x="533" y="0" type="line"/>
			<point x="508" y="29"/>
			<point x="489" y="65"/>
			<point x="474" y="108" type="curve"/>
			<point x="451" y="180" type="line"/>
			<point x="355" y="494" type="line"/>
			<point x="355" y="494" type="line"/>
			<point x="345" y="528" type="line"/>
			<point x="345" y="528" type="line"/>
			<point x="299" y="680" type="line"/>
			<point x="299" y="680" type="line"/>
			<point x="293" y="700" type="line"/>
			<point x="263" y="700" type="line"/>
			<point x="221" y="563" type="line"/>
			<point x="210" y="528" type="line"/>
			<point x="210" y="528" type="line"/>
			<point x="200" y="494" type="line"/>
			<point x="200" y="494" type="line"/>
			<point x="50" y="0" type="line"/>
			<point x="85" y="0" type="line"/>
			<point x="235" y="494" type="line"/>
			<point x="236" y="494" type="line"/>
			<point x="246" y="528" type="line"/>
			<point x="246" y="528" type="line"/>
			<point x="278" y="633" type="line"/>
			<point x="310" y="528" type="line"/>
			<point x="320" y="494" type="line"/>
			<point x="357" y="373" type="line"/>
			<point x="278" y="338" type="line"/>
			<point x="278" y="303" type="line"/>
			<point x="278" y="303" type="line"/>
			<point x="366" y="342" type="line"/>
			<point x="443" y="89" type="line"/>
			<point x="443" y="89" type="line"/>
			<point x="453" y="56"/>
			<point x="469" y="25"/>
		</contour>
		<contour>
			<point x="410" y="823" type="curve"/>
			<point x="377" y="823" type="line"/>
			<point x="377" y="802"/>
			<point x="359" y="783"/>
			<point x="338" y="783" type="curve"/>
			<point x="336" y="783"/>
			<point x="338" y="783"/>
			<point x="335" y="783" type="curve"/>
			<point x="335" y="783" type="line"/>
			<point x="329" y="783"/>
			<point x="315" y="790"/>
			<point x="311" y="792" type="curve"/>
			<point x="288" y="804"/>
			<point x="246" y="823"/>
			<point x="220" y="823" type="curve"/>
			<point x="219" y="823" type="line"/>
			<point x="179" y="823"/>
			<point x="149" y="792"/>
			<point x="149" y="752" type="curve"/>
			<point x="149" y="750"/>
			<point x="149" y="749"/>
			<point x="149" y="747" type="curve"/>
			<point x="182" y="747" type="line"/>
			<point x="182" y="749"/>
			<point x="182" y="750"/>
			<point x="182" y="752" type="curve"/>
			<point x="182" y="773"/>
			<point x="199" y="790"/>
			<point x="220" y="790" type="curve"/>
			<point x="221" y="790" type="line"/>
			<point x="221" y="790"/>
			<point x="237" y="791"/>
			<point x="273" y="775" type="curve"/>
			<point x="284" y="770" type="line"/>
			<point x="284" y="770" type="line"/>
			<point x="284" y="770" type="line"/>
			<point x="294" y="765"/>
			<point x="296" y="764"/>
			<point x="309" y="758" type="curve"/>
			<point x="314" y="756"/>
			<point x="318" y="754"/>
			<point x="324" y="752" type="curve"/>
			<point x="329" y="750"/>
			<point x="336" y="750"/>
			<point x="335" y="750" type="curve"/>
			<point x="335" y="750" type="line"/>
			<point x="335" y="750" type="line"/>
			<point x="335" y="750" type="line"/>
			<point x="336" y="750"/>
			<point x="333" y="750"/>
			<point x="335" y="750" type="curve"/>
			<point x="374" y="750"/>
			<point x="410" y="784"/>
		</contour>
	</outline>
</glyph>
<glyph name="Iacute" format="2">
	<advance width="500"/>
	<unicode hex="00CD"/>
	<outline>
		<contour>
			<point x="450" y="34" type="line"/>
			<point x="284" y="34" type="line"/>
			<point x="284" y="666" type="line"/>
			<point x="291" y="666" type="line"/>
			<point x="291" y="666"/>
			<point x="291" y="666"/>
			<point x="291" y="666" type="curve"/>
			<point x="365" y="666" type="line"/>
			<point x="365" y="700" type="line"/>
			<point x="279" y="700" type="line"/>
			<point x="253" y="700" type="line"/>
			<point x="171" y="700" type="line"/>
			<point x="171" y="700" type="line"/>
			<point x="128" y="699"/>
			<point x="85" y="686"/>
			<point x="50" y="661" type="curve"/>
			<point x="50" y="619" type="line"/>
			<point x="50" y="617" type="line"/>
			<point x="83" y="648"/>
			<point x="127" y="665"/>
			<point x="171" y="666" type="curve"/>
			<point x="171" y="666" type="line"/>
			<point x="178" y="666" type="line"/>
			<point x="178" y="666"/>
			<point x="178" y="666"/>
			<point x="178" y="666" type="curve"/>
			<point x="250" y="666" type="line"/>
			<point x="250" y="34" type="line"/>
			<point x="86" y="34" type="line"/>
			<point x="86" y="0" type="line"/>
			<point x="450" y="0" type="line"/>
		</contour>
		<contour>
			<point x="336" y="922" type="line"/>
			<point x="287" y="753" type="line"/>
			<point x="253" y="753" type="line"/>
			<point x="292" y="922" type="line"/>
		</contour>
	</outline>
</glyph>
<glyph name="Idieresis" format="2">
	<advance width="500"/>
	<unicode hex="00CF"/>
	<outline>
		<contour>
			<point x="450" y="34" type="line"/>
			<point x="284" y="34" type="line"/>
			<point x="284" y="666" type="line"/>
			<point x="291" y="666" type="line"/>
			<point x="291" y="666"/>
			<point x="291" y="666"/>
			<point x="291" y="666" type="curve"/>
			<point x="365" y="666" type="line"/>
			<point x="365" y="700" type="line"/>
			<point x="279" y="700" type="line"/>
			<point x="253" y="700" type="line"/>
			<point x="171" y="700" type="line"/>
			<point x="171" y="700" type="line"/>
			<point x="128" y="699"/>
			<point x="85" y="686"/>
			<point x="50" y="661" type="curve"/>
			<point x="50" y="619" type="line"/>
			<point x="50" y="617" type="line"/>
			<point x="83" y="648"/>
			<point x="127" y="665"/>
			<point x="171" y="666" type="curve"/>
			<point x="171" y="666" type="line"/>
			<point x="178" y="666" type="line"/>
			<point x="178" y="666"/>
			<point x="178" y="666"/>
			<point x="178" y="666" type="curve"/>
			<point x="250" y="666" type="line"/>
			<point x="250" y="34" type="line"/>
			<point x="86" y="34" type="line"/>
			<point x="86" y="0" type="line"/>
			<point x="450" y="0" type="line"/>
		</contour>
		<contour>
			<point x="212" y="822" type="curve"/>
			<point x="212" y="822" type="line"/>
			<point x="212" y="803"/>
			<point x="197" y="788"/>
			<point x="179" y="788" type="curve"/>
			<point x="160" y="788"/>
			<point x="145" y="803"/>
			<point x="145" y="822" type="curve"/>
			<point x="145" y="840"/>
			<point x="160" y="855"/>
			<point x="179" y="855" type="curve"/>
			<point x="197" y="855"/>
			<point x="212" y="840"/>
		</contour>
		<contour>
			<point x="390" y="822" type="curve"/>
			<point x="390" y="822" type="line"/>
			<point x="390" y="803"/>
			<point x="375" y="788"/>
			<point x="357" y="788" type="curve"/>
			<point x="338" y="788"/>
			<point x="323" y="803"/>
			<point x="323" y="822" type="curve"/>
			<point x="323" y="840"/>
			<point x="338" y="855"/>
			<point x="357" y="855" type="curve"/>
			<point x="375" y="855"/>
			<point x="390" y="840"/>
		</contour>
	</outline>
</glyph>
<glyph name="Ntilde" format="2">
	<advance width="598"/>
	<unicode hex="00D1"/>
	<outline>
		<contour>
			<point x="50" y="0" type="line"/>
			<point x="50" y="0" type="line"/>
		</contour>
		<contour>
			<point x="548" y="700" type="line"/>
			<point x="514" y="700" type="line"/>
			<point x="514" y="64" type="line"/>
			<point x="461" y="153" type="line"/>
			<point x="425" y="212" type="line"/>
			<point x="262" y="484" type="line"/>
			<point x="228" y="541" type="line"/>
			<point x="133" y="700" type="line"/>
			<point x="126" y="700" type="line"/>
			<point x="126" y="700" type="line"/>
			<point x="92" y="700" type="line"/>
			<point x="92" y="126" type="line"/>
			<point x="91" y="82"/>
			<point x="71" y="44"/>
			<point x="50" y="0" type="curve"/>
			<point x="88" y="0" type="line"/>
			<point x="117" y="42"/>
			<point x="126" y="80"/>
			<point x="126" y="123" type="curve"/>
			<point x="126" y="123" type="line"/>
			<point x="126" y="267" type="line"/>
			<point x="126" y="310" type="line"/>
			<point x="126" y="512" type="line"/>
			<point x="126" y="556" type="line"/>
			<point x="126" y="645" type="line"/>
			<point x="513" y="0" type="line"/>
			<point x="548" y="0" type="line"/>
			<point x="548" y="0" type="line"/>
			<point x="548" y="8" type="line"/>
			<point x="548" y="175" type="line"/>
			<point x="548" y="228" type="line"/>
			<point x="548" y="473" type="line"/>
			<point x="548" y="525" type="line"/>
		</contour>
		<contour>
			<point x="434" y="823" type="curve"/>
			<point x="401" y="823" type="line"/>
			<point x="401" y="802"/>
			<point x="383" y="783"/>
			<point x="362" y="783" type="curve"/>
			<point x="360" y="783"/>
			<point x="362" y="783"/>
			<point x="359" y="783" type="curve"/>
			<point x="359" y="783" type="line"/>
			<point x="353" y="783"/>
			<point x="339" y="790"/>
			<point x="335" y="792" type="curve"/>
			<point x="312" y="804"/>
			<point x="270" y="823"/>
			<point x="244" y="823" type="curve"/>
			<point x="243" y="823" type="line"/>
			<point x="203" y="823"/>
			<point x="173" y="792"/>
			<point x="173" y="752" type="curve"/>
			<point x="173" y="750"/>
			<point x="173" y="749"/>
			<point x="173" y="747" type="curve"/>
			<point x="206" y="747" type="line"/>
			<point x="206" y="749"/>
			<point x="206" y="750"/>
			<point x="206" y="752" type="curve"/>
			<point x="206" y="773"/>
			<point x="223" y="790"/>
			<point x="244" y="790" type="curve"/>
			<point x="245" y="790" type="line"/>
			<point x="245" y="790"/>
			<point x="261" y="791"/>
			<point x="297" y="775" type="curve"/>
			<point x="308" y="770" type="line"/>
			<point x="308" y="770" type="line"/>
			<point x="308" y="770" type="line"/>
			<point x="318" y="765"/>
			<point x="320" y="764"/>
			<point x="333" y="758" type="curve"/>
			<point x="338" y="756"/>
			<point x="342" y="754"/>
			<point x="348" y="752" type="curve"/>
			<point x="353" y="750"/>
			<point x="360" y="750"/>
			<point x="359" y="750" type="curve"/>
			<point x="359" y="750" type="line"/>
			<point x="359" y="750" type="line"/>
			<point x="359" y="750" type="line"/>
			<point x="360" y="750"/>
			<point x="357" y="750"/>
			<point x="359" y="750" type="curve"/>
			<point x="398" y="750"/>
			<point x="434" y="784"/>
		</contour>
	</outline>
</glyph>
<glyph name="Ograve" format="2">
	<advance width="799"/>
	<unicode hex="00D2"/>
	<outline>
		<contour>
			<point x="400" y="700" type="curve"/>
			<point x="400" y="700" type="line"/>
			<point x="207" y="700"/>
			<point x="50" y="543"/>
			<point x="50" y="350" type="curve"/>
			<point x="50" y="156"/>
			<point x="207" y="0"/>
			<point x="400" y="0" type="curve"/>
			<point x="593" y="0"/>
			<point x="749" y="156"/>
			<point x="749" y="350" type="curve"/>
			<point x="749" y="543"/>
			<point x="593" y="700"/>
		</contour>
		<contour>
			<point x="585" y="91" type="curve"/>
			<point x="585" y="91" type="line"/>
			<point x="533" y="54"/>
			<point x="470" y="32"/>
			<point x="401" y="32" type="curve"/>
			<point x="226" y="32"/>
			<point x="85" y="173"/>
			<point x="84" y="348" type="curve"/>
			<point x="85" y="348" type="line"/>
			<point x="85" y="349"/>
			<point x="84" y="350"/>
			<point x="84" y="351" type="curve"/>
			<point x="84" y="526"/>
			<point x="227" y="668"/>
			<point x="402" y="668" type="curve"/>
			<point x="577" y="668"/>
			<point x="719" y="526"/>
			<point x="719" y="351" type="curve"/>
			<point x="719" y="243"/>
			<point x="666" y="149"/>
		</contour>
		<contour>
			<point x="334" y="920" type="line"/>
			<point x="383" y="751" type="line"/>
			<point x="417" y="751" type="line"/>
			<point x="378" y="920" type="line"/>
		</contour>
	</outline>
</glyph>
<glyph name="Ocircumflex" format="2">
	<advance width="799"/>
	<unicode hex="00D4"/>
	<outline>
		<contour>
			<point x="400" y="699" type="curve"/>
			<point x="400" y="699" type="line"/>
			<point x="207" y="699"/>
			<point x="50" y="543"/>
			<point x="50" y="350" type="curve"/>
			<point x="50" y="156"/>
			<point x="207" y="0"/>
			<point x="400" y="0" type="curve"/>
			<point x="593" y="0"/>
			<point x="749" y="156"/>
			<point x="749" y="350" type="curve"/>
			<point x="749" y="543"/>
			<point x="593" y="699"/>
		</contour>
		<contour>
			<point x="585" y="91" type="curve"/>
			<point x="585" y="91" type="line"/>
			<point x="533" y="54"/>
			<point x="470" y="32"/>
			<point x="401" y="32" type="curve"/>
			<point x="226" y="32"/>
			<point x="85" y="173"/>
			<point x="84" y="348" type="curve"/>
			<point x="85" y="348" type="line"/>
			<point x="85" y="349"/>
			<point x="84" y="350"/>
			<point x="84" y="351" type="curve"/>
			<point x="84" y="526"/>
			<point x="227" y="668"/>
			<point x="402" y="668" type="curve"/>
			<point x="577" y="668"/>
			<point x="719" y="526"/>
			<point x="719" y="351" type="curve"/>
			<point x="719" y="243"/>
			<point x="666" y="149"/>
		</contour>
		<contour>
			<point x="464" y="734" type="line"/>
			<point x="505" y="734" type="line"/>
			<point x="421" y="882" type="line"/>
			<point x="399" y="882" type="line"/>
			<point x="377" y="882" type="line"/>
			<point x="293" y="734" type="line"/>
			<point x="334" y="734" type="line"/>
			<point x="399" y="849" type="line"/>
		</contour>
	</outline>
</glyph>
<glyph name="Otilde" format="2">
	<advance width="799"/>
	<unicode hex="00D5"/>
	<outline>
		<contour>
			<point x="400" y="700" type="curve"/>
			<point x="400" y="700" type="line"/>
			<point x="207" y="700"/>
			<point x="50" y="543"/>
			<point x="50" y="350" type="curve"/>
			<point x="50" y="156"/>
			<point x="207" y="0"/>
			<point x="400" y="0" type="curve"/>
			<point x="593" y="0"/>
			<point x="749" y="156"/>
			<point x="749" y="350" type="curve"/>
			<point x="749" y="543"/>
			<point x="593" y="700"/>
		</contour>
		<contour>
			<point x="585" y="91" type="curve"/>
			<point x="585" y="91" type="line"/>
			<point x="533" y="54"/>
			<point x="470" y="32"/>
			<point x="401" y="32" type="curve"/>
			<point x="226" y="32"/>
			<point x="85" y="173"/>
			<point x="84" y="348" type="curve"/>
			<point x="85" y="348" type="line"/>
			<point x="85" y="349"/>
			<point x="84" y="350"/>
			<point x="84" y="351" type="curve"/>
			<point x="84" y="526"/>
			<point x="227" y="668"/>
			<point x="402" y="668" type="curve"/>
			<point x="577" y="668"/>
			<point x="719" y="526"/>
			<point x="719" y="351" type="curve"/>
			<point x="719" y="243"/>
			<point x="666" y="149"/>
		</contour>
		<contour>
			<point x="531" y="823" type="curve"/>
			<point x="498" y="823" type="line"/>
			<point x="498" y="802"/>
			<point x="480" y="783"/>
			<point x="459" y="783" type="curve"/>
			<point x="457" y="783"/>
			<point x="459" y="783"/>
			<point x="456" y="783" type="curve"/>
			<point x="456" y="783" type="line"/>
			<point x="450" y="783"/>
			<point x="436" y="790"/>
			<point x="432" y="792" type="curve"/>
			<point x="409" y="804"/>
			<point x="367" y="823"/>
			<point x="341" y="823" type="curve"/>
			<point x="340" y="823" type="line"/>
			<point x="300" y="823"/>
			<point x="270" y="792"/>
			<point x="270" y="752" type="curve"/>
			<point x="270" y="750"/>
			<point x="270" y="749"/>
			<point x="270" y="747" type="curve"/>
			<point x="303" y="747" type="line"/>
			<point x="303" y="749"/>
			<point x="303" y="750"/>
			<point x="303" y="752" type="curve"/>
			<point x="303" y="773"/>
			<point x="320" y="790"/>
			<point x="341" y="790" type="curve"/>
			<point x="342" y="790" type="line"/>
			<point x="342" y="790"/>
			<point x="358" y="791"/>
			<point x="394" y="775" type="curve"/>
			<point x="405" y="770" type="line"/>
			<point x="405" y="770" type="line"/>
			<point x="405" y="770" type="line"/>
			<point x="415" y="765"/>
			<point x="417" y="764"/>
			<point x="430" y="758" type="curve"/>
			<point x="435" y="756"/>
			<point x="439" y="754"/>
			<point x="445" y="752" type="curve"/>
			<point x="450" y="750"/>
			<point x="457" y="750"/>
			<point x="456" y="750" type="curve"/>
			<point x="456" y="750" type="line"/>
			<point x="456" y="750" type="line"/>
			<point x="456" y="750" type="line"/>
			<point x="457" y="750"/>
			<point x="454" y="750"/>
			<point x="456" y="750" type="curve"/>
			<point x="495" y="750"/>
			<point x="531" y="784"/>
		</contour>
	</outline>
</glyph>
<glyph name="Odieresis" format="2">
	<advance width="799"/>
	<unicode hex="00D6"/>
	<outline>
		<contour>
			<point x="400" y="699" type="curve"/>
			<point x="400" y="699" type="line"/>
			<point x="207" y="699"/>
			<point x="50" y="543"/>
			<point x="50" y="350" type="curve"/>
			<point x="50" y="156"/>
			<point x="207" y="0"/>
			<point x="400" y="0" type="curve"/>
			<point x="593" y="0"/>
			<point x="749" y="156"/>
			<point x="749" y="350" type="curve"/>
			<point x="749" y="543"/>
			<point x="593" y="699"/>
		</contour>
		<contour>
			<point x="585" y="91" type="curve"/>
			<point x="585" y="91" type="line"/>
			<point x="533" y="54"/>
			<point x="470" y="32"/>
			<point x="401" y="32" type="curve"/>
			<point x="226" y="32"/>
			<point x="85" y="173"/>
			<point x="84" y="348" type="curve"/>
			<point x="85" y="348" type="line"/>
			<point x="85" y="349"/>
			<point x="84" y="350"/>
			<point x="84" y="351" type="curve"/>
			<point x="84" y="526"/>
			<point x="227" y="668"/>
			<point x="402" y="668" type="curve"/>
			<point x="577" y="668"/>
			<point x="719" y="526"/>
			<point x="719" y="351" type="curve"/>
			<point x="719" y="243"/>
			<point x="666" y="149"/>
		</contour>
		<contour>
			<point x="346" y="822" type="curve"/>
			<point x="346" y="822" type="line"/>
			<point x="346" y="803"/>
			<point x="331" y="788"/>
			<point x="313" y="788" type="curve"/>
			<point x="294" y="788"/>
			<point x="279" y="803"/>
			<point x="279" y="822" type="curve"/>
			<point x="279" y="840"/>
			<point x="294" y="855"/>
			<point x="313" y="855" type="curve"/>
			<point x="331" y="855"/>
			<point x="346" y="840"/>
		</contour>
		<contour>
			<point x="524" y="822" type="curve"/>
			<point x="524" y="822" type="line"/>
			<point x="524" y="803"/>
			<point x="509" y="788"/>
			<point x="491" y="788" type="curve"/>
			<point x="472" y="788"/>
			<point x="457" y="803"/>
			<point x="457" y="822" type="curve"/>
			<point x="457" y="840"/>
			<point x="472" y="855"/>
			<point x="491" y="855" type="curve"/>
			<point x="509" y="855"/>
			<point x="524" y="840"/>
		</contour>
	</outline>
</glyph>
<glyph name="multiply" format="2">
	<advance width="450"/>
	<unicode hex="00D7"/>
	<outline>
		<contour>
			<point x="376" y="175" type="line"/>
			<point x="400" y="199" type="line"/>
			<point x="319" y="280" type="line"/>
			<point x="294" y="305" type="line"/>
			<point x="249" y="350" type="line"/>
			<point x="294" y="394" type="line"/>
			<point x="318" y="419" type="line"/>
			<point x="400" y="501" type="line"/>
			<point x="375" y="525" type="line"/>
			<point x="225" y="374" type="line"/>
			<point x="181" y="419" type="line"/>
			<point x="156" y="443" type="line"/>
			<point x="75" y="525" type="line"/>
			<point x="50" y="501" type="line"/>
			<point x="201" y="350" type="line"/>
			<point x="50" y="199" type="line"/>
			<point x="74" y="175" type="line"/>
			<point x="155" y="256" type="line"/>
			<point x="180" y="281" type="line"/>
			<point x="225" y="326" type="line"/>
		</contour>
	</outline>
</glyph>
<glyph name="Udieresis" format="2">
	<advance width="606"/>
	<unicode hex="00DC"/>
	<outline>
		<contour>
			<point x="556" y="348" type="curve"/>
			<point x="556" y="348" type="line"/>
			<point x="556" y="348" type="line"/>
			<point x="556" y="700" type="line"/>
			<point x="522" y="700" type="line"/>
			<point x="522" y="348" type="line"/>
			<point x="522" y="348" type="line"/>
			<point x="522" y="348"/>
			<point x="522" y="348"/>
			<point x="522" y="347" type="curve"/>
			<point x="522" y="347" type="line"/>
			<point x="522" y="346"/>
			<point x="522" y="345"/>
			<point x="522" y="343" type="curve"/>
			<point x="522" y="178"/>
			<point x="435" y="34"/>
			<point x="328" y="34" type="curve"/>
			<point x="221" y="34"/>
			<point x="133" y="178"/>
			<point x="133" y="343" type="curve"/>
			<point x="133" y="345"/>
			<point x="133" y="346"/>
			<point x="133" y="347" type="curve"/>
			<point x="133" y="348"/>
			<point x="133" y="348"/>
			<point x="133" y="348" type="curve"/>
			<point x="133" y="406" type="line"/>
			<point x="133" y="423" type="line"/>
			<point x="133" y="505" type="line"/>
			<point x="133" y="523" type="line"/>
			<point x="133" y="581" type="line"/>
			<point x="133" y="581" type="line"/>
			<point x="132" y="623"/>
			<point x="119" y="665"/>
			<point x="95" y="700" type="curve"/>
			<point x="52" y="700" type="line"/>
			<point x="50" y="700" type="line"/>
			<point x="81" y="667"/>
			<point x="98" y="623"/>
			<point x="99" y="580" type="curve"/>
			<point x="99" y="571" type="line"/>
			<point x="99" y="459" type="line"/>
			<point x="99" y="347" type="line"/>
			<point x="99" y="347" type="line"/>
			<point x="99" y="347"/>
			<point x="99" y="347"/>
			<point x="99" y="347" type="curve"/>
			<point x="99" y="155"/>
			<point x="202" y="0"/>
			<point x="328" y="0" type="curve"/>
			<point x="454" y="0"/>
			<point x="556" y="155"/>
			<point x="556" y="347" type="curve"/>
			<point x="556" y="347"/>
			<point x="556" y="347"/>
			<point x="556" y="347" type="curve"/>
			<point x="556" y="347" type="line"/>
			<point x="556" y="348"/>
			<point x="556" y="348"/>
		</contour>
		<contour>
			<point x="254" y="822" type="curve"/>
			<point x="254" y="822" type="line"/>
			<point x="254" y="803"/>
			<point x="239" y="788"/>
			<point x="221" y="788" type="curve"/>
			<point x="202" y="788"/>
			<point x="187" y="803"/>
			<point x="187" y="822" type="curve"/>
			<point x="187" y="840"/>
			<point x="202" y="855"/>
			<point x="221" y="855" type="curve"/>
			<point x="239" y="855"/>
			<point x="254" y="840"/>
		</contour>
		<contour>
			<point x="432" y="822" type="curve"/>
			<point x="432" y="822" type="line"/>
			<point x="432" y="803"/>
			<point x="417" y="788"/>
			<point x="399" y="788" type="curve"/>
			<point x="380" y="788"/>
			<point x="365" y="803"/>
			<point x="365" y="822" type="curve"/>
			<point x="365" y="840"/>
			<point x="380" y="855"/>
			<point x="399" y="855" type="curve"/>
			<point x="417" y="855"/>
			<point x="432" y="840"/>
		</contour>
	</outline>
</glyph>
<glyph name="germandbls" format="2">
	<advance width="465"/>
	<unicode hex="00DF"/>
	<outline>
		<contour>
			<point x="306" y="350" type="curve"/>
			<point x="306" y="350" type="line"/>
			<point x="370" y="378"/>
			<point x="415" y="442"/>
			<point x="415" y="517" type="curve"/>
			<point x="415" y="618"/>
			<point x="334" y="700"/>
			<point x="233" y="700" type="curve"/>
			<point x="141" y="700"/>
			<point x="48" y="628"/>
			<point x="50" y="531" type="curve"/>
			<point x="50" y="522" type="line"/>
			<point x="50" y="458" type="line"/>
			<point x="50" y="0" type="line"/>
			<point x="84" y="0" type="line"/>
			<point x="84" y="152" type="line"/>
			<point x="84" y="197" type="line"/>
			<point x="84" y="320" type="line"/>
			<point x="84" y="409" type="line"/>
			<point x="84" y="455" type="line"/>
			<point x="84" y="522" type="line"/>
			<point x="86" y="604"/>
			<point x="152" y="666"/>
			<point x="233" y="666" type="curve"/>
			<point x="317" y="666"/>
			<point x="381" y="602"/>
			<point x="381" y="518" type="curve"/>
			<point x="381" y="434"/>
			<point x="317" y="367"/>
			<point x="234" y="367" type="curve"/>
			<point x="234" y="367"/>
			<point x="233" y="367"/>
			<point x="233" y="367" type="curve"/>
			<point x="233" y="333" type="line"/>
			<point x="233" y="333"/>
			<point x="233" y="333"/>
			<point x="233" y="333" type="curve"/>
			<point x="317" y="333"/>
			<point x="381" y="267"/>
			<point x="381" y="183" type="curve"/>
			<point x="381" y="99"/>
			<point x="316" y="34"/>
			<point x="233" y="34" type="curve"/>
			<point x="233" y="0" type="line"/>
			<point x="233" y="0"/>
			<point x="233" y="0"/>
			<point x="233" y="0" type="curve"/>
			<point x="334" y="0"/>
			<point x="415" y="82"/>
			<point x="415" y="183" type="curve"/>
			<point x="415" y="258"/>
			<point x="370" y="322"/>
		</contour>
	</outline>
</glyph>
<glyph name="atilde" format="2">
	<advance width="501"/>
	<unicode hex="00E3"/>
	<outline>
		<contour>
			<point x="400" y="115" type="curve"/>
			<point x="400" y="115" type="line"/>
			<point x="400" y="119"/>
			<point x="400" y="124"/>
			<point x="400" y="129" type="curve"/>
			<point x="400" y="167" type="line"/>
			<point x="400" y="169"/>
			<point x="400" y="172"/>
			<point x="400" y="174" type="curve"/>
			<point x="368" y="174" type="line"/>
			<point x="368" y="94"/>
			<point x="305" y="34"/>
			<point x="225" y="34" type="curve"/>
			<point x="145" y="34"/>
			<point x="83" y="97"/>
			<point x="83" y="178" type="curve"/>
			<point x="83" y="258"/>
			<point x="145" y="316"/>
			<point x="225" y="316" type="curve"/>
			<point x="225" y="316"/>
			<point x="225" y="320"/>
			<point x="225" y="320" type="curve"/>
			<point x="225" y="350" type="line"/>
			<point x="225" y="350"/>
			<point x="225" y="350"/>
			<point x="225" y="350" type="curve"/>
			<point x="128" y="350"/>
			<point x="50" y="271"/>
			<point x="50" y="175" type="curve"/>
			<point x="50" y="78"/>
			<point x="128" y="0"/>
			<point x="225" y="0" type="curve"/>
			<point x="285" y="0"/>
			<point x="338" y="30"/>
			<point x="370" y="76" type="curve"/>
			<point x="371" y="73"/>
			<point x="372" y="69"/>
			<point x="373" y="66" type="curve"/>
			<point x="379" y="42"/>
			<point x="390" y="20"/>
			<point x="405" y="0" type="curve"/>
			<point x="450" y="0" type="line"/>
			<point x="451" y="1" type="line"/>
			<point x="419" y="32"/>
			<point x="402" y="73"/>
		</contour>
		<contour>
			<point x="377" y="518" type="curve"/>
			<point x="344" y="518" type="line"/>
			<point x="344" y="497"/>
			<point x="326" y="478"/>
			<point x="305" y="478" type="curve"/>
			<point x="303" y="478"/>
			<point x="305" y="478"/>
			<point x="302" y="478" type="curve"/>
			<point x="302" y="478" type="line"/>
			<point x="296" y="478"/>
			<point x="282" y="485"/>
			<point x="278" y="487" type="curve"/>
			<point x="255" y="499"/>
			<point x="213" y="518"/>
			<point x="187" y="518" type="curve"/>
			<point x="186" y="518" type="line"/>
			<point x="146" y="518"/>
			<point x="116" y="487"/>
			<point x="116" y="447" type="curve"/>
			<point x="116" y="445"/>
			<point x="116" y="444"/>
			<point x="116" y="442" type="curve"/>
			<point x="149" y="442" type="line"/>
			<point x="149" y="444"/>
			<point x="149" y="445"/>
			<point x="149" y="447" type="curve"/>
			<point x="149" y="468"/>
			<point x="166" y="485"/>
			<point x="187" y="485" type="curve"/>
			<point x="188" y="485" type="line"/>
			<point x="188" y="485"/>
			<point x="204" y="486"/>
			<point x="240" y="470" type="curve"/>
			<point x="251" y="465" type="line"/>
			<point x="251" y="465" type="line"/>
			<point x="251" y="465" type="line"/>
			<point x="261" y="460"/>
			<point x="263" y="459"/>
			<point x="276" y="453" type="curve"/>
			<point x="281" y="451"/>
			<point x="285" y="449"/>
			<point x="291" y="447" type="curve"/>
			<point x="296" y="445"/>
			<point x="303" y="445"/>
			<point x="302" y="445" type="curve"/>
			<point x="302" y="445" type="line"/>
			<point x="302" y="445" type="line"/>
			<point x="302" y="445" type="line"/>
			<point x="303" y="445"/>
			<point x="300" y="445"/>
			<point x="302" y="445" type="curve"/>
			<point x="341" y="445"/>
			<point x="377" y="479"/>
		</contour>
	</outline>
</glyph>
<glyph name="adieresis" format="2">
	<advance width="501"/>
	<unicode hex="00E4"/>
	<outline>
		<contour>
			<point x="400" y="115" type="curve"/>
			<point x="400" y="115" type="line"/>
			<point x="400" y="119"/>
			<point x="400" y="124"/>
			<point x="400" y="129" type="curve"/>
			<point x="400" y="167" type="line"/>
			<point x="400" y="169"/>
			<point x="400" y="172"/>
			<point x="400" y="174" type="curve"/>
			<point x="368" y="174" type="line"/>
			<point x="368" y="94"/>
			<point x="305" y="34"/>
			<point x="225" y="34" type="curve"/>
			<point x="145" y="34"/>
			<point x="83" y="97"/>
			<point x="83" y="178" type="curve"/>
			<point x="83" y="258"/>
			<point x="145" y="316"/>
			<point x="225" y="316" type="curve"/>
			<point x="225" y="316"/>
			<point x="225" y="320"/>
			<point x="225" y="320" type="curve"/>
			<point x="225" y="350" type="line"/>
			<point x="225" y="350"/>
			<point x="225" y="350"/>
			<point x="225" y="350" type="curve"/>
			<point x="128" y="350"/>
			<point x="50" y="271"/>
			<point x="50" y="175" type="curve"/>
			<point x="50" y="78"/>
			<point x="128" y="0"/>
			<point x="225" y="0" type="curve"/>
			<point x="285" y="0"/>
			<point x="338" y="30"/>
			<point x="370" y="76" type="curve"/>
			<point x="371" y="73"/>
			<point x="372" y="69"/>
			<point x="373" y="66" type="curve"/>
			<point x="379" y="42"/>
			<point x="390" y="20"/>
			<point x="405" y="0" type="curve"/>
			<point x="450" y="0" type="line"/>
			<point x="451" y="1" type="line"/>
			<point x="419" y="32"/>
			<point x="402" y="73"/>
		</contour>
		<contour>
			<point x="172" y="476" type="curve"/>
			<point x="172" y="476" type="line"/>
			<point x="172" y="457"/>
			<point x="157" y="442"/>
			<point x="139" y="442" type="curve"/>
			<point x="120" y="442"/>
			<point x="105" y="457"/>
			<point x="105" y="476" type="curve"/>
			<point x="105" y="494"/>
			<point x="120" y="509"/>
			<point x="139" y="509" type="curve"/>
			<point x="157" y="509"/>
			<point x="172" y="494"/>
		</contour>
		<contour>
			<point x="350" y="476" type="curve"/>
			<point x="350" y="476" type="line"/>
			<point x="350" y="457"/>
			<point x="335" y="442"/>
			<point x="317" y="442" type="curve"/>
			<point x="298" y="442"/>
			<point x="283" y="457"/>
			<point x="283" y="476" type="curve"/>
			<point x="283" y="494"/>
			<point x="298" y="509"/>
			<point x="317" y="509" type="curve"/>
			<point x="335" y="509"/>
			<point x="350" y="494"/>
		</contour>
	</outline>
</glyph>
<glyph name="aring" format="2">
	<advance width="501"/>
	<unicode hex="00E5"/>
	<outline>
		<contour>
			<point x="400" y="115" type="curve"/>
			<point x="400" y="115" type="line"/>
			<point x="400" y="119"/>
			<point x="400" y="124"/>
			<point x="400" y="129" type="curve"/>
			<point x="400" y="167" type="line"/>
			<point x="400" y="169"/>
			<point x="400" y="172"/>
			<point x="400" y="174" type="curve"/>
			<point x="368" y="174" type="line"/>
			<point x="368" y="94"/>
			<point x="305" y="34"/>
			<point x="225" y="34" type="curve"/>
			<point x="145" y="34"/>
			<point x="83" y="97"/>
			<point x="83" y="178" type="curve"/>
			<point x="83" y="258"/>
			<point x="145" y="316"/>
			<point x="225" y="316" type="curve"/>
			<point x="225" y="316"/>
			<point x="225" y="320"/>
			<point x="225" y="320" type="curve"/>
			<point x="225" y="350" type="line"/>
			<point x="225" y="350"/>
			<point x="225" y="350"/>
			<point x="225" y="350" type="curve"/>
			<point x="128" y="350"/>
			<point x="50" y="271"/>
			<point x="50" y="175" type="curve"/>
			<point x="50" y="78"/>
			<point x="128" y="0"/>
			<point x="225" y="0" type="curve"/>
			<point x="285" y="0"/>
			<point x="338" y="30"/>
			<point x="370" y="76" type="curve"/>
			<point x="371" y="73"/>
			<point x="372" y="69"/>
			<point x="373" y="66" type="curve"/>
			<point x="379" y="42"/>
			<point x="390" y="20"/>
			<point x="405" y="0" type="curve"/>
			<point x="450" y="0" type="line"/>
			<point x="451" y="1" type="line"/>
			<point x="419" y="32"/>
			<point x="402" y="73"/>
		</contour>
		<contour>
			<point x="227" y="605" type="curve"/>
			<point x="227" y="605" type="line"/>
			<point x="182" y="605"/>
			<point x="146" y="568"/>
			<point x="146" y="523" type="curve"/>
			<point x="146" y="478"/>
			<point x="182" y="442"/>
			<point x="227" y="442" type="curve"/>
			<point x="272" y="442"/>
			<point x="309" y="478"/>
			<point x="309" y="523" type="curve"/>
			<point x="309" y="568"/>
			<point x="272" y="605"/>
		</contour>
		<contour>
			<point x="227" y="478" type="curve"/>
			<point x="227" y="478" type="line"/>
			<point x="203" y="478"/>
			<point x="183" y="498"/>
			<point x="183" y="523" type="curve"/>
			<point x="183" y="548"/>
			<point x="203" y="568"/>
			<point x="227" y="568" type="curve"/>
			<point x="252" y="568"/>
			<point x="272" y="548"/>
			<point x="272" y="523" type="curve"/>
			<point x="272" y="498"/>
			<point x="252" y="478"/>
		</contour>
	</outline>
</glyph>
<glyph name="egrave" format="2">
	<advance width="451"/>
	<unicode hex="00E8"/>
	<outline>
		<contour>
			<point x="160" y="611" type="line"/>
			<point x="209" y="442" type="line"/>
			<point x="243" y="442" type="line"/>
			<point x="204" y="611" type="line"/>
		</contour>
		<contour>
			<point x="401" y="174" type="curve"/>
			<point x="401" y="174" type="line"/>
			<point x="401" y="174"/>
			<point x="401" y="174"/>
			<point x="401" y="175" type="curve"/>
			<point x="366" y="175" type="line"/>
			<point x="366" y="174"/>
			<point x="366" y="174"/>
			<point x="366" y="174" type="curve"/>
			<point x="366" y="96"/>
			<point x="289" y="38"/>
			<point x="227" y="38" type="curve"/>
			<point x="225" y="38"/>
			<point x="225" y="38"/>
			<point x="225" y="38" type="curve"/>
			<point x="225" y="38"/>
			<point x="226" y="38"/>
			<point x="224" y="38" type="curve"/>
			<point x="147" y="38"/>
			<point x="87" y="101"/>
			<point x="87" y="174" type="curve"/>
			<point x="87" y="174"/>
			<point x="87" y="174"/>
			<point x="87" y="174" type="curve"/>
			<point x="354" y="292" type="line"/>
			<point x="320" y="324"/>
			<point x="271" y="350"/>
			<point x="227" y="350" type="curve"/>
			<point x="227" y="350" type="line"/>
			<point x="227" y="350"/>
			<point x="227" y="350"/>
			<point x="227" y="350" type="curve"/>
			<point x="-19" y="350"/>
			<point x="3" y="0"/>
			<point x="225" y="0" type="curve"/>
			<point x="225" y="0"/>
			<point x="225" y="0"/>
			<point x="226" y="0" type="curve"/>
			<point x="227" y="0"/>
			<point x="226" y="0"/>
			<point x="227" y="0" type="curve"/>
			<point x="339" y="0"/>
			<point x="401" y="96"/>
		</contour>
		<contour>
			<point x="297" y="300" type="curve"/>
			<point x="297" y="300" type="line"/>
			<point x="87" y="207" type="line"/>
			<point x="132" y="329"/>
			<point x="229" y="331"/>
		</contour>
	</outline>
</glyph>
<glyph name="ecircumflex" format="2">
	<advance width="451"/>
	<unicode hex="00EA"/>
	<outline>
		<contour>
			<point x="290" y="442" type="line"/>
			<point x="331" y="442" type="line"/>
			<point x="247" y="590" type="line"/>
			<point x="225" y="590" type="line"/>
			<point x="203" y="590" type="line"/>
			<point x="119" y="442" type="line"/>
			<point x="160" y="442" type="line"/>
			<point x="225" y="557" type="line"/>
		</contour>
		<contour>
			<point x="401" y="174" type="curve"/>
			<point x="401" y="174" type="line"/>
			<point x="401" y="174"/>
			<point x="401" y="174"/>
			<point x="401" y="175" type="curve"/>
			<point x="366" y="175" type="line"/>
			<point x="366" y="174"/>
			<point x="366" y="174"/>
			<point x="366" y="174" type="curve"/>
			<point x="366" y="96"/>
			<point x="289" y="38"/>
			<point x="227" y="38" type="curve"/>
			<point x="225" y="38"/>
			<point x="225" y="38"/>
			<point x="225" y="38" type="curve"/>
			<point x="225" y="38"/>
			<point x="226" y="38"/>
			<point x="224" y="38" type="curve"/>
			<point x="147" y="38"/>
			<point x="87" y="101"/>
			<point x="87" y="174" type="curve"/>
			<point x="87" y="174"/>
			<point x="87" y="174"/>
			<point x="87" y="174" type="curve"/>
			<point x="354" y="292" type="line"/>
			<point x="320" y="324"/>
			<point x="271" y="350"/>
			<point x="227" y="350" type="curve"/>
			<point x="227" y="350" type="line"/>
			<point x="227" y="350"/>
			<point x="227" y="350"/>
			<point x="227" y="350" type="curve"/>
			<point x="-19" y="350"/>
			<point x="3" y="0"/>
			<point x="225" y="0" type="curve"/>
			<point x="225" y="0"/>
			<point x="225" y="0"/>
			<point x="226" y="0" type="curve"/>
			<point x="227" y="0"/>
			<point x="226" y="0"/>
			<point x="227" y="0" type="curve"/>
			<point x="339" y="0"/>
			<point x="401" y="96"/>
		</contour>
		<contour>
			<point x="297" y="300" type="curve"/>
			<point x="297" y="300" type="line"/>
			<point x="87" y="207" type="line"/>
			<point x="132" y="329"/>
			<point x="229" y="331"/>
		</contour>
	</outline>
</glyph>
<glyph name="edieresis" format="2">
	<advance width="451"/>
	<unicode hex="00EB"/>
	<outline>
		<contour>
			<point x="170" y="476" type="curve"/>
			<point x="170" y="476" type="line"/>
			<point x="170" y="457"/>
			<point x="155" y="442"/>
			<point x="137" y="442" type="curve"/>
			<point x="118" y="442"/>
			<point x="103" y="457"/>
			<point x="103" y="476" type="curve"/>
			<point x="103" y="494"/>
			<point x="118" y="509"/>
			<point x="137" y="509" type="curve"/>
			<point x="155" y="509"/>
			<point x="170" y="494"/>
		</contour>
		<contour>
			<point x="348" y="476" type="curve"/>
			<point x="348" y="476" type="line"/>
			<point x="348" y="457"/>
			<point x="333" y="442"/>
			<point x="315" y="442" type="curve"/>
			<point x="296" y="442"/>
			<point x="281" y="457"/>
			<point x="281" y="476" type="curve"/>
			<point x="281" y="494"/>
			<point x="296" y="509"/>
			<point x="315" y="509" type="curve"/>
			<point x="333" y="509"/>
			<point x="348" y="494"/>
		</contour>
		<contour>
			<point x="401" y="174" type="curve"/>
			<point x="401" y="174" type="line"/>
			<point x="401" y="174"/>
			<point x="401" y="174"/>
			<point x="401" y="175" type="curve"/>
			<point x="366" y="175" type="line"/>
			<point x="366" y="174"/>
			<point x="366" y="174"/>
			<point x="366" y="174" type="curve"/>
			<point x="366" y="96"/>
			<point x="289" y="38"/>
			<point x="227" y="38" type="curve"/>
			<point x="225" y="38"/>
			<point x="225" y="38"/>
			<point x="225" y="38" type="curve"/>
			<point x="225" y="38"/>
			<point x="226" y="38"/>
			<point x="224" y="38" type="curve"/>
			<point x="147" y="38"/>
			<point x="87" y="101"/>
			<point x="87" y="174" type="curve"/>
			<point x="87" y="174"/>
			<point x="87" y="174"/>
			<point x="87" y="174" type="curve"/>
			<point x="354" y="292" type="line"/>
			<point x="320" y="324"/>
			<point x="271" y="350"/>
			<point x="227" y="350" type="curve"/>
			<point x="227" y="350" type="line"/>
			<point x="227" y="350"/>
			<point x="227" y="350"/>
			<point x="227" y="350" type="curve"/>
			<point x="-19" y="350"/>
			<point x="3" y="0"/>
			<point x="225" y="0" type="curve"/>
			<point x="225" y="0"/>
			<point x="225" y="0"/>
			<point x="226" y="0" type="curve"/>
			<point x="227" y="0"/>
			<point x="226" y="0"/>
			<point x="227" y="0" type="curve"/>
			<point x="339" y="0"/>
			<point x="401" y="96"/>
		</contour>
		<contour>
			<point x="297" y="300" type="curve"/>
			<point x="297" y="300" type="line"/>
			<point x="87" y="207" type="line"/>
			<point x="132" y="329"/>
			<point x="229" y="331"/>
		</contour>
	</outline>
</glyph>
<glyph name="igrave" format="2">
	<advance width="183"/>
	<unicode hex="00EC"/>
	<outline>
		<contour>
			<point x="131" y="136" type="curve"/>
			<point x="131" y="136" type="line"/>
			<point x="131" y="350" type="line"/>
			<point x="97" y="350" type="line"/>
			<point x="97" y="242" type="line"/>
			<point x="97" y="129" type="line"/>
			<point x="97" y="120" type="line"/>
			<point x="96" y="77"/>
			<point x="81" y="33"/>
			<point x="50" y="0" type="curve"/>
			<point x="50" y="0" type="line"/>
			<point x="93" y="0" type="line"/>
			<point x="121" y="40"/>
			<point x="134" y="88"/>
		</contour>
		<contour>
			<point x="50" y="611" type="line"/>
			<point x="99" y="442" type="line"/>
			<point x="133" y="442" type="line"/>
			<point x="94" y="611" type="line"/>
		</contour>
	</outline>
</glyph>
<glyph name="icircumflex" format="2">
	<advance width="312"/>
	<unicode hex="00EE"/>
	<outline>
		<contour>
			<point x="173" y="136" type="curve"/>
			<point x="173" y="136" type="line"/>
			<point x="173" y="350" type="line"/>
			<point x="139" y="350" type="line"/>
			<point x="139" y="242" type="line"/>
			<point x="139" y="129" type="line"/>
			<point x="139" y="120" type="line"/>
			<point x="138" y="77"/>
			<point x="123" y="33"/>
			<point x="92" y="0" type="curve"/>
			<point x="92" y="0" type="line"/>
			<point x="135" y="0" type="line"/>
			<point x="163" y="40"/>
			<point x="176" y="88"/>
		</contour>
		<contour>
			<point x="221" y="442" type="line"/>
			<point x="262" y="442" type="line"/>
			<point x="178" y="590" type="line"/>
			<point x="156" y="590" type="line"/>
			<point x="134" y="590" type="line"/>
			<point x="50" y="442" type="line"/>
			<point x="91" y="442" type="line"/>
			<point x="156" y="557" type="line"/>
		</contour>
	</outline>
</glyph>
<glyph name="idieresis" format="2">
	<advance width="345"/>
	<unicode hex="00EF"/>
	<outline>
		<contour>
			<point x="191" y="136" type="curve"/>
			<point x="191" y="136" type="line"/>
			<point x="191" y="350" type="line"/>
			<point x="157" y="350" type="line"/>
			<point x="157" y="242" type="line"/>
			<point x="157" y="129" type="line"/>
			<point x="157" y="120" type="line"/>
			<point x="156" y="77"/>
			<point x="141" y="33"/>
			<point x="110" y="0" type="curve"/>
			<point x="110" y="0" type="line"/>
			<point x="153" y="0" type="line"/>
			<point x="181" y="40"/>
			<point x="194" y="88"/>
		</contour>
		<contour>
			<point x="119" y="476" type="curve"/>
			<point x="119" y="476" type="line"/>
			<point x="119" y="457"/>
			<point x="104" y="442"/>
			<point x="86" y="442" type="curve"/>
			<point x="67" y="442"/>
			<point x="52" y="457"/>
			<point x="52" y="476" type="curve"/>
			<point x="52" y="494"/>
			<point x="67" y="509"/>
			<point x="86" y="509" type="curve"/>
			<point x="104" y="509"/>
			<point x="119" y="494"/>
		</contour>
		<contour>
			<point x="297" y="476" type="curve"/>
			<point x="297" y="476" type="line"/>
			<point x="297" y="457"/>
			<point x="282" y="442"/>
			<point x="264" y="442" type="curve"/>
			<point x="245" y="442"/>
			<point x="230" y="457"/>
			<point x="230" y="476" type="curve"/>
			<point x="230" y="494"/>
			<point x="245" y="509"/>
			<point x="264" y="509" type="curve"/>
			<point x="282" y="509"/>
			<point x="297" y="494"/>
		</contour>
	</outline>
</glyph>
<glyph name="ntilde" format="2">
	<advance width="447"/>
	<unicode hex="00F1"/>
	<outline>
		<contour>
			<point x="244" y="350" type="curve"/>
			<point x="244" y="350" type="line"/>
			<point x="193" y="350"/>
			<point x="156" y="330"/>
			<point x="133" y="297" type="curve"/>
			<point x="133" y="297" type="line"/>
			<point x="133" y="350" type="line"/>
			<point x="99" y="350" type="line"/>
			<point x="99" y="242" type="line"/>
			<point x="99" y="242"/>
			<point x="99" y="243"/>
			<point x="98" y="243" type="curve"/>
			<point x="98" y="130" type="line"/>
			<point x="100" y="84"/>
			<point x="83" y="40"/>
			<point x="50" y="0" type="curve"/>
			<point x="50" y="0" type="line"/>
			<point x="93" y="0" type="line"/>
			<point x="121" y="40"/>
			<point x="134" y="88"/>
			<point x="133" y="134" type="curve"/>
			<point x="133" y="134" type="line"/>
			<point x="133" y="180" type="line"/>
			<point x="135" y="258"/>
			<point x="165" y="317"/>
			<point x="245" y="317" type="curve"/>
			<point x="326" y="317"/>
			<point x="359" y="256"/>
			<point x="363" y="175" type="curve"/>
			<point x="363" y="0" type="line"/>
			<point x="397" y="0" type="line"/>
			<point x="397" y="60" type="line"/>
			<point x="397" y="87" type="line"/>
			<point x="397" y="175" type="line"/>
			<point x="393" y="273"/>
			<point x="342" y="350"/>
		</contour>
		<contour>
			<point x="377" y="518" type="curve"/>
			<point x="344" y="518" type="line"/>
			<point x="344" y="497"/>
			<point x="326" y="478"/>
			<point x="305" y="478" type="curve"/>
			<point x="303" y="478"/>
			<point x="305" y="478"/>
			<point x="302" y="478" type="curve"/>
			<point x="302" y="478" type="line"/>
			<point x="296" y="478"/>
			<point x="282" y="485"/>
			<point x="278" y="487" type="curve"/>
			<point x="255" y="499"/>
			<point x="213" y="518"/>
			<point x="187" y="518" type="curve"/>
			<point x="186" y="518" type="line"/>
			<point x="146" y="518"/>
			<point x="116" y="487"/>
			<point x="116" y="447" type="curve"/>
			<point x="116" y="445"/>
			<point x="116" y="444"/>
			<point x="116" y="442" type="curve"/>
			<point x="149" y="442" type="line"/>
			<point x="149" y="444"/>
			<point x="149" y="445"/>
			<point x="149" y="447" type="curve"/>
			<point x="149" y="468"/>
			<point x="166" y="485"/>
			<point x="187" y="485" type="curve"/>
			<point x="188" y="485" type="line"/>
			<point x="188" y="485"/>
			<point x="204" y="486"/>
			<point x="240" y="470" type="curve"/>
			<point x="251" y="465" type="line"/>
			<point x="251" y="465" type="line"/>
			<point x="251" y="465" type="line"/>
			<point x="261" y="460"/>
			<point x="263" y="459"/>
			<point x="276" y="453" type="curve"/>
			<point x="281" y="451"/>
			<point x="285" y="449"/>
			<point x="291" y="447" type="curve"/>
			<point x="296" y="445"/>
			<point x="303" y="445"/>
			<point x="302" y="445" type="curve"/>
			<point x="302" y="445" type="line"/>
			<point x="302" y="445" type="line"/>
			<point x="302" y="445" type="line"/>
			<point x="303" y="445"/>
			<point x="300" y="445"/>
			<point x="302" y="445" type="curve"/>
			<point x="341" y="445"/>
			<point x="377" y="479"/>
		</contour>
	</outline>
</glyph>
<glyph name="ocircumflex" format="2">
	<advance width="450"/>
	<unicode hex="00F4"/>
	<outline>
		<contour>
			<point x="225" y="350" type="curve"/>
			<point x="225" y="350" type="line"/>
			<point x="128" y="350"/>
			<point x="50" y="272"/>
			<point x="50" y="175" type="curve"/>
			<point x="50" y="79"/>
			<point x="128" y="0"/>
			<point x="225" y="0" type="curve"/>
			<point x="322" y="0"/>
			<point x="400" y="79"/>
			<point x="400" y="175" type="curve"/>
			<point x="400" y="272"/>
			<point x="322" y="350"/>
		</contour>
		<contour>
			<point x="225" y="32" type="curve"/>
			<point x="225" y="32" type="line"/>
			<point x="146" y="32"/>
			<point x="81" y="96"/>
			<point x="81" y="175" type="curve"/>
			<point x="81" y="254"/>
			<point x="146" y="319"/>
			<point x="225" y="319" type="curve"/>
			<point x="304" y="319"/>
			<point x="368" y="254"/>
			<point x="368" y="175" type="curve"/>
			<point x="368" y="96"/>
			<point x="304" y="32"/>
		</contour>
		<contour>
			<point x="290" y="442" type="line"/>
			<point x="331" y="442" type="line"/>
			<point x="247" y="590" type="line"/>
			<point x="225" y="590" type="line"/>
			<point x="203" y="590" type="line"/>
			<point x="119" y="442" type="line"/>
			<point x="160" y="442" type="line"/>
			<point x="225" y="557" type="line"/>
		</contour>
	</outline>
</glyph>
<glyph name="otilde" format="2">
	<advance width="450"/>
	<unicode hex="00F5"/>
	<outline>
		<contour>
			<point x="225" y="350" type="curve"/>
			<point x="225" y="350" type="line"/>
			<point x="128" y="350"/>
			<point x="50" y="272"/>
			<point x="50" y="175" type="curve"/>
			<point x="50" y="79"/>
			<point x="128" y="0"/>
			<point x="225" y="0" type="curve"/>
			<point x="322" y="0"/>
			<point x="400" y="79"/>
			<point x="400" y="175" type="curve"/>
			<point x="400" y="272"/>
			<point x="322" y="350"/>
		</contour>
		<contour>
			<point x="225" y="32" type="curve"/>
			<point x="225" y="32" type="line"/>
			<point x="146" y="32"/>
			<point x="81" y="96"/>
			<point x="81" y="175" type="curve"/>
			<point x="81" y="254"/>
			<point x="146" y="319"/>
			<point x="225" y="319" type="curve"/>
			<point x="304" y="319"/>
			<point x="368" y="254"/>
			<point x="368" y="175" type="curve"/>
			<point x="368" y="96"/>
			<point x="304" y="32"/>
		</contour>
		<contour>
			<point x="355" y="518" type="curve"/>
			<point x="322" y="518" type="line"/>
			<point x="322" y="497"/>
			<point x="304" y="478"/>
			<point x="283" y="478" type="curve"/>
			<point x="281" y="478"/>
			<point x="283" y="478"/>
			<point x="280" y="478" type="curve"/>
			<point x="280" y="478" type="line"/>
			<point x="274" y="478"/>
			<point x="260" y="485"/>
			<point x="256" y="487" type="curve"/>
			<point x="233" y="499"/>
			<point x="191" y="518"/>
			<point x="165" y="518" type="curve"/>
			<point x="164" y="518" type="line"/>
			<point x="124" y="518"/>
			<point x="94" y="487"/>
			<point x="94" y="447" type="curve"/>
			<point x="94" y="445"/>
			<point x="94" y="444"/>
			<point x="94" y="442" type="curve"/>
			<point x="127" y="442" type="line"/>
			<point x="127" y="444"/>
			<point x="127" y="445"/>
			<point x="127" y="447" type="curve"/>
			<point x="127" y="468"/>
			<point x="144" y="485"/>
			<point x="165" y="485" type="curve"/>
			<point x="166" y="485" type="line"/>
			<point x="166" y="485"/>
			<point x="182" y="486"/>
			<point x="218" y="470" type="curve"/>
			<point x="229" y="465" type="line"/>
			<point x="229" y="465" type="line"/>
			<point x="229" y="465" type="line"/>
			<point x="239" y="460"/>
			<point x="241" y="459"/>
			<point x="254" y="453" type="curve"/>
			<point x="259" y="451"/>
			<point x="263" y="449"/>
			<point x="269" y="447" type="curve"/>
			<point x="274" y="445"/>
			<point x="281" y="445"/>
			<point x="280" y="445" type="curve"/>
			<point x="280" y="445" type="line"/>
			<point x="280" y="445" type="line"/>
			<point x="280" y="445" type="line"/>
			<point x="281" y="445"/>
			<point x="278" y="445"/>
			<point x="280" y="445" type="curve"/>
			<point x="319" y="445"/>
			<point x="355" y="479"/>
		</contour>
	</outline>
</glyph>
<glyph name="odieresis" format="2">
	<advance width="450"/>
	<unicode hex="00F6"/>
	<outline>
		<contour>
			<point x="225" y="350" type="curve"/>
			<point x="225" y="350" type="line"/>
			<point x="128" y="350"/>
			<point x="50" y="272"/>
			<point x="50" y="175" type="curve"/>
			<point x="50" y="79"/>
			<point x="128" y="0"/>
			<point x="225" y="0" type="curve"/>
			<point x="322" y="0"/>
			<point x="400" y="79"/>
			<point x="400" y="175" type="curve"/>
			<point x="400" y="272"/>
			<point x="322" y="350"/>
		</contour>
		<contour>
			<point x="225" y="32" type="curve"/>
			<point x="225" y="32" type="line"/>
			<point x="146" y="32"/>
			<point x="81" y="96"/>
			<point x="81" y="175" type="curve"/>
			<point x="81" y="254"/>
			<point x="146" y="319"/>
			<point x="225" y="319" type="curve"/>
			<point x="304" y="319"/>
			<point x="368" y="254"/>
			<point x="368" y="175" type="curve"/>
			<point x="368" y="96"/>
			<point x="304" y="32"/>
		</contour>
		<contour>
			<point x="170" y="476" type="curve"/>
			<point x="170" y="476" type="line"/>
			<point x="170" y="457"/>
			<point x="155" y="442"/>
			<point x="137" y="442" type="curve"/>
			<point x="118" y="442"/>
			<point x="103" y="457"/>
			<point x="103" y="476" type="curve"/>
			<point x="103" y="494"/>
			<point x="118" y="509"/>
			<point x="137" y="509" type="curve"/>
			<point x="155" y="509"/>
			<point x="170" y="494"/>
		</contour>
		<contour>
			<point x="348" y="476" type="curve"/>
			<point x="348" y="476" type="line"/>
			<point x="348" y="457"/>
			<point x="333" y="442"/>
			<point x="315" y="442" type="curve"/>
			<point x="296" y="442"/>
			<point x="281" y="457"/>
			<point x="281" y="476" type="curve"/>
			<point x="281" y="494"/>
			<point x="296" y="509"/>
			<point x="315" y="509" type="curve"/>
			<point x="333" y="509"/>
			<point x="348" y="494"/>
		</contour>
	</outline>
</glyph>
<glyph name="divide" format="2">
	<advance width="450"/>
	<unicode hex="00F7"/>
	<outline>
		<contour>
			<point x="225" y="241" type="curve"/>
			<point x="225" y="241" type="line"/>
			<point x="207" y="241"/>
			<point x="192" y="226"/>
			<point x="192" y="208" type="curve"/>
			<point x="192" y="189"/>
			<point x="207" y="174"/>
			<point x="225" y="174" type="curve"/>
			<point x="244" y="174"/>
			<point x="259" y="189"/>
			<point x="259" y="208" type="curve"/>
			<point x="259" y="226"/>
			<point x="244" y="241"/>
		</contour>
		<contour>
			<point x="225" y="458" type="curve"/>
			<point x="225" y="458" type="line"/>
			<point x="244" y="458"/>
			<point x="259" y="473"/>
			<point x="259" y="492" type="curve"/>
			<point x="259" y="510"/>
			<point x="244" y="525"/>
			<point x="225" y="525" type="curve"/>
			<point x="207" y="525"/>
			<point x="192" y="510"/>
			<point x="192" y="492" type="curve"/>
			<point x="192" y="473"/>
			<point x="207" y="458"/>
		</contour>
		<contour>
			<point x="400" y="367" type="line"/>
			<point x="312" y="367" type="line"/>
			<point x="286" y="367" type="line"/>
			<point x="164" y="367" type="line"/>
			<point x="137" y="367" type="line"/>
			<point x="50" y="367" type="line"/>
			<point x="50" y="333" type="line"/>
			<point x="400" y="333" type="line"/>
		</contour>
	</outline>
</glyph>
<glyph name="ucircumflex" format="2">
	<advance width="496"/>
	<unicode hex="00FB"/>
	<outline>
		<contour>
			<point x="397" y="129" type="curve"/>
			<point x="397" y="129" type="line"/>
			<point x="397" y="241" type="line"/>
			<point x="397" y="241"/>
			<point x="397" y="241"/>
			<point x="397" y="241" type="curve"/>
			<point x="397" y="350" type="line"/>
			<point x="362" y="350" type="line"/>
			<point x="361" y="167" type="line"/>
			<point x="361" y="167" type="line" smooth="yes"/>
			<point x="361" y="167"/>
			<point x="364" y="167"/>
			<point x="361" y="167" type="curve"/>
			<point x="361" y="95"/>
			<point x="298" y="33"/>
			<point x="223" y="33" type="curve"/>
			<point x="148" y="33"/>
			<point x="85" y="95"/>
			<point x="85" y="167" type="curve"/>
			<point x="85" y="167"/>
			<point x="85" y="167"/>
			<point x="85" y="167" type="curve"/>
			<point x="85" y="167" type="line"/>
			<point x="85" y="350" type="line"/>
			<point x="50" y="350" type="line"/>
			<point x="50" y="167" type="line"/>
			<point x="50" y="167" type="line"/>
			<point x="50" y="167"/>
			<point x="50" y="167"/>
			<point x="50" y="167" type="curve"/>
			<point x="50" y="75"/>
			<point x="127" y="0"/>
			<point x="223" y="0" type="curve"/>
			<point x="282" y="0"/>
			<point x="334" y="31"/>
			<point x="366" y="75" type="curve"/>
			<point x="373" y="49"/>
			<point x="385" y="22"/>
			<point x="402" y="0" type="curve"/>
			<point x="446" y="0" type="line"/>
			<point x="446" y="0" type="line"/>
			<point x="423" y="22"/>
			<point x="395" y="82"/>
		</contour>
		<contour>
			<point x="290" y="442" type="line"/>
			<point x="331" y="442" type="line"/>
			<point x="247" y="590" type="line"/>
			<point x="225" y="590" type="line"/>
			<point x="203" y="590" type="line"/>
			<point x="119" y="442" type="line"/>
			<point x="160" y="442" type="line"/>
			<point x="225" y="557" type="line"/>
		</contour>
	</outline>
</glyph>
<glyph name="udieresis" format="2">
	<advance width="496"/>
	<unicode hex="00FC"/>
	<outline>
		<contour>
			<point x="397" y="129" type="curve"/>
			<point x="397" y="129" type="line"/>
			<point x="397" y="241" type="line"/>
			<point x="397" y="241"/>
			<point x="397" y="241"/>
			<point x="397" y="241" type="curve"/>
			<point x="397" y="350" type="line"/>
			<point x="362" y="350" type="line"/>
			<point x="361" y="167" type="line"/>
			<point x="361" y="167" type="line" smooth="yes"/>
			<point x="361" y="167"/>
			<point x="364" y="167"/>
			<point x="361" y="167" type="curve"/>
			<point x="361" y="95"/>
			<point x="298" y="33"/>
			<point x="223" y="33" type="curve"/>
			<point x="148" y="33"/>
			<point x="85" y="95"/>
			<point x="85" y="167" type="curve"/>
			<point x="85" y="167"/>
			<point x="85" y="167"/>
			<point x="85" y="167" type="curve"/>
			<point x="85" y="167" type="line"/>
			<point x="85" y="350" type="line"/>
			<point x="50" y="350" type="line"/>
			<point x="50" y="167" type="line"/>
			<point x="50" y="167" type="line"/>
			<point x="50" y="167"/>
			<point x="50" y="167"/>
			<point x="50" y="167" type="curve"/>
			<point x="50" y="75"/>
			<point x="127" y="0"/>
			<point x="223" y="0" type="curve"/>
			<point x="282" y="0"/>
			<point x="334" y="31"/>
			<point x="366" y="75" type="curve"/>
			<point x="373" y="49"/>
			<point x="385" y="22"/>
			<point x="402" y="0" type="curve"/>
			<point x="446" y="0" type="line"/>
			<point x="446" y="0" type="line"/>
			<point x="423" y="22"/>
			<point x="395" y="82"/>
		</contour>
		<contour>
			<point x="170" y="476" type="curve"/>
			<point x="170" y="476" type="line"/>
			<point x="170" y="457"/>
			<point x="155" y="442"/>
			<point x="137" y="442" type="curve"/>
			<point x="118" y="442"/>
			<point x="103" y="457"/>
			<point x="103" y="476" type="curve"/>
			<point x="103" y="494"/>
			<point x="118" y="509"/>
			<point x="137" y="509" type="curve"/>
			<point x="155" y="509"/>
			<point x="170" y="494"/>
		</contour>
		<contour>
			<point x="348" y="476" type="curve"/>
			<point x="348" y="476" type="line"/>
			<point x="348" y="457"/>
			<point x="333" y="442"/>
			<point x="315" y="442" type="curve"/>
			<point x="296" y="442"/>
			<point x="281" y="457"/>
			<point x="281" y="476" type="curve"/>
			<point x="281" y="494"/>
			<point x="296" y="509"/>
			<point x="315" y="509" type="curve"/>
			<point x="333" y="509"/>
			<point x="348" y="494"/>
		</contour>
	</outline>
</glyph>
<glyph name="ydieresis" format="2">
	<advance width="410"/>
	<unicode hex="00FF"/>
	<outline>
		<contour>
			<point x="341" y="292" type="line"/>
			<point x="360" y="350" type="line"/>
			<point x="324" y="350" type="line"/>
			<point x="228" y="42" type="line"/>
			<point x="132" y="350" type="line"/>
			<point x="95" y="350" type="line"/>
			<point x="210" y="-15" type="line"/>
			<point x="177" y="-121" type="line"/>
			<point x="177" y="-121"/>
			<point x="177" y="-121"/>
			<point x="177" y="-121" type="curve"/>
			<point x="143" y="-228" type="line"/>
			<point x="131" y="-272"/>
			<point x="98" y="-311"/>
			<point x="50" y="-350" type="curve"/>
			<point x="100" y="-350" type="line"/>
			<point x="100" y="-350" type="line"/>
			<point x="143" y="-311"/>
			<point x="162" y="-284"/>
			<point x="175" y="-242" type="curve"/>
			<point x="185" y="-209" type="line"/>
			<point x="224" y="-85" type="line"/>
			<point x="234" y="-53" type="line"/>
			<point x="280" y="94" type="line"/>
			<point x="290" y="128" type="line"/>
			<point x="310" y="191" type="line"/>
			<point x="330" y="256" type="line"/>
			<point x="330" y="256" type="line"/>
			<point x="341" y="292" type="line"/>
		</contour>
		<contour>
			<point x="170" y="476" type="curve"/>
			<point x="170" y="476" type="line"/>
			<point x="170" y="457"/>
			<point x="155" y="442"/>
			<point x="137" y="442" type="curve"/>
			<point x="118" y="442"/>
			<point x="103" y="457"/>
			<point x="103" y="476" type="curve"/>
			<point x="103" y="494"/>
			<point x="118" y="509"/>
			<point x="137" y="509" type="curve"/>
			<point x="155" y="509"/>
			<point x="170" y="494"/>
		</contour>
		<contour>
			<point x="348" y="476" type="curve"/>
			<point x="348" y="476" type="line"/>
			<point x="348" y="457"/>
			<point x="333" y="442"/>
			<point x="315" y="442" type="curve"/>
			<point x="296" y="442"/>
			<point x="281" y="457"/>
			<point x="281" y="476" type="curve"/>
			<point x="281" y="494"/>
			<point x="296" y="509"/>
			<point x="315" y="509" type="curve"/>
			<point x="333" y="509"/>
			<point x="348" y="494"/>
		</contour>
	</outline>
</glyph>
<glyph name="Cacute" format="2">
	<advance width="799"/>
	<unicode hex="0106"/>
	<outline>
		<contour>
			<point x="749" y="347" type="curve"/>
			<point x="714" y="347" type="line"/>
			<point x="713" y="173"/>
			<point x="572" y="32"/>
			<point x="398" y="32" type="curve"/>
			<point x="223" y="32"/>
			<point x="81" y="174"/>
			<point x="81" y="349" type="curve"/>
			<point x="81" y="523"/>
			<point x="222" y="666"/>
			<point x="397" y="666" type="curve"/>
			<point x="397" y="700" type="line"/>
			<point x="205" y="699"/>
			<point x="50" y="542"/>
			<point x="50" y="350" type="curve"/>
			<point x="50" y="156"/>
			<point x="206" y="0"/>
			<point x="400" y="0" type="curve"/>
			<point x="592" y="0"/>
			<point x="748" y="155"/>
		</contour>
		<contour>
			<point x="463" y="919" type="line"/>
			<point x="414" y="750" type="line"/>
			<point x="380" y="750" type="line"/>
			<point x="419" y="919" type="line"/>
		</contour>
	</outline>
</glyph>
